<?xml version="1.0" encoding="UTF-8"?>
<svg xmlns="http://www.w3.org/2000/svg" id="uuid-96727ea4-72f3-401e-9342-9696f590d8bc" viewBox="0 0 100.96 100.96">
  <defs>
    <style>.uuid-4b5039c2-4317-4076-bbcc-96335414e238{fill:#e84db5;fill-rule:evenodd;stroke-width:0px;}.uuid-32581956-fbb4-4a63-bb84-8955af5bd7bb{fill:none;stroke:#e84db5;stroke-miterlimit:10;stroke-width:2px;}</style>
  </defs>
  <g id="uuid-1ff3c0e6-bc88-453f-b76d-1799dc88a61b">
    <circle class="uuid-32581956-fbb4-4a63-bb84-8955af5bd7bb" cx="50.48" cy="50.48" r="49.48"></circle>
    <path class="uuid-4b5039c2-4317-4076-bbcc-96335414e238" d="M34.6,55.32c-3.44,3.45-3.44,9.19,0,12.64,3.45,3.61,9.19,3.61,12.8,0l23.62-23.63c3.44-3.61,3.44-9.21,0-12.82-3.6-3.45-9.19-3.45-12.78,0l-23.63,23.82ZM39.52,56.31h0c-.48-.65-.48-1.65,0-2.15.67-.65,1.65-.65,2.13,0,.65.5.65,1.49,0,2.15-.48.5-1.47.5-2.13,0h0ZM38.38,66.34h0c-.67.65-1.65.65-2.13,0-.65-.65-.65-1.49,0-2.15.48-.5,1.47-.5,2.13,0,.48.65.48,1.49,0,2.15h0ZM43.3,64.69h0c-.5.5-1.48.5-2.13,0-.5-.65-.5-1.47,0-2.15.65-.65,1.64-.65,2.13,0,.65.68.65,1.49,0,2.15h0ZM48.38,60.89h0c.65.5.65,1.49,0,2.15-.65.5-1.48.5-2.13,0-.48-.65-.48-1.65,0-2.15.65-.63,1.48-.63,2.13,0h0ZM40.02,61.23h0c-.65.65-1.48.65-2.13,0-.5-.5-.5-1.47,0-2.15.65-.47,1.48-.47,2.13,0,.65.68.65,1.65,0,2.15h0ZM45.11,59.58h0c-.65.68-1.65.68-2.13,0-.67-.5-.67-1.47,0-2.12.48-.5,1.48-.5,2.13,0,.48.65.48,1.62,0,2.12h0ZM58.89,53.01h0l-2.96,2.96c-2.46,2.46-6.73,2.46-9.19,0-2.63-2.62-2.63-6.88,0-9.34l2.79-2.96c2.63-2.64,6.73-2.64,9.36,0,2.62,2.62,2.62,6.73,0,9.34h0ZM65.94,43.33h0c.65.5.65,1.49,0,1.99-.5.63-1.48.63-2.13,0-.5-.5-.5-1.49,0-1.99.65-.65,1.64-.65,2.13,0h0ZM62.65,42.02h0c-.65.5-1.64.5-2.13,0-.65-.5-.65-1.49,0-2.15.5-.5,1.48-.5,2.13,0,.5.65.5,1.65,0,2.15h0ZM67.57,38.25h0c.65.47.65,1.47,0,2.12-.5.5-1.48.5-1.96,0-.67-.65-.67-1.65,0-2.12.48-.68,1.47-.68,1.96,0h0ZM59.21,38.73h0c-.5.5-1.48.5-2.15,0-.48-.65-.48-1.62,0-2.12.67-.65,1.65-.65,2.15,0,.65.5.65,1.47,0,2.12h0ZM64.29,36.92h0c-.48.65-1.48.65-2.13,0-.65-.47-.65-1.47,0-2.12.65-.5,1.65-.5,2.13,0,.5.65.5,1.65,0,2.12h0ZM69.38,33.15h0c.48.65.48,1.65,0,2.15-.65.65-1.65.65-2.13,0-.65-.5-.65-1.49,0-2.15.48-.5,1.48-.5,2.13,0h0ZM51.16,35.45h0l-12.63,12.8-3.94-3.93c-3.44-3.61-3.44-9.21,0-12.82,3.45-3.45,9.19-3.45,12.8,0l3.77,3.95ZM54.28,64.03h0l12.8-12.64,3.94,3.93c3.44,3.45,3.44,9.19,0,12.64-3.6,3.61-9.19,3.61-12.78,0l-3.95-3.93Z"></path>
  </g>
</svg>
