<?xml version="1.0" encoding="UTF-8"?>
<svg xmlns="http://www.w3.org/2000/svg" id="uuid-a5f995dd-2745-47e6-8ced-6a93642244ce" viewBox="0 0 100.96 100.96">
  <defs>
    <style>.uuid-e28805c5-6dcf-4c19-9b6c-9225a61c654b{fill:#e84db5;stroke-width:0px;}.uuid-d38cb4b0-627a-46ce-b554-cd453ec156a7{fill:none;stroke:#e84db5;stroke-miterlimit:10;stroke-width:2px;}</style>
  </defs>
  <g id="uuid-7273c3a3-114b-4d4a-bc4b-33ecb5dc90c1">
    <circle class="uuid-d38cb4b0-627a-46ce-b554-cd453ec156a7" cx="50.48" cy="50.48" r="49.48"></circle>
    <path class="uuid-e28805c5-6dcf-4c19-9b6c-9225a61c654b" d="M70.2,35.39c.47,1.81.47,3.45,0,5.26-.5,1.64-1.16,3.44-1.99,5.25-.81,1.81-1.31,3.11-1.46,4.27,0,.48,0,1.79,0,4.1,0,2.3,0,4.44-.34,6.57-.98,7.05-2.46,10.5-4.59,10.5-.48,0-.82-.17-1.15-.33-.33-.33-.67-.82-.82-1.31-.16-.67-.31-1.16-.5-1.65,0-.65,0-1.31,0-2.3,0-.81,0-1.64,0-2.12.18-.67.18-1.48.18-2.3.16-1.63.16-2.79.16-3.44-.34-3.77-1.96-5.74-4.92-5.74-2.8,0-4.45,1.98-4.76,5.74-.18.48-.18,1.64,0,3.44,0,.82.16,1.64.16,2.3,0,.48,0,1.31,0,2.12.16.99,0,1.65,0,2.3-.16.48-.16.98-.34,1.65-.31.48-.48.98-.81,1.31-.33.16-.82.33-1.15.33-2.3,0-3.77-3.44-4.76-10.5-.16-2.13-.33-4.27-.16-6.57,0-2.13,0-3.44-.17-4.1-.17-1.15-.67-2.46-1.48-4.27-.81-1.81-1.31-3.61-1.81-5.25-.5-1.81-.65-3.45-.34-5.26.84-2.79,2.15-4.59,4.45-5.4,1.47-.5,3.45-.5,5.91.33,2.46.65,4.11,1.15,5.26,1.15,1.15,0,2.96-.5,5.42-1.15,2.3-.82,4.26-.82,5.91-.33,2.12.81,3.61,2.62,4.11,5.4h0Z"></path>
  </g>
</svg>
