<?xml version="1.0" encoding="UTF-8"?>
<svg xmlns="http://www.w3.org/2000/svg" id="uuid-2cb74ed6-f453-44d8-a25b-f82a29c63238" viewBox="0 0 104.66 125.39">
  <defs>
    <style>.uuid-caa3a560-f94a-4cb6-afba-9819db989698{fill:#3c3c3b;stroke-width:0px;}.uuid-acaa24b7-eb16-4914-a802-20397a77dfe8{fill:none;stroke:#3c3c3b;stroke-miterlimit:10;stroke-width:2px;}</style>
  </defs>
  <g id="uuid-8ce7a0c6-0f0d-4c82-9d63-64490a8cb798">
    <path class="uuid-caa3a560-f94a-4cb6-afba-9819db989698" d="M15.35,17.82c-1.97-3.05-1.09-7.07,2.17-9.19,1.46-.94,3.12-1.29,4.66-1.07l-.22,1.4c-1.28-.16-2.49.12-3.58.82-2.54,1.64-3.15,4.77-1.63,7.13,1.53,2.37,4.65,3.11,7.11,1.53,1.27-.82,2.1-2.06,2.36-3.4l1.43.36c-.38,1.65-1.39,3.19-3.02,4.24-3.27,2.11-7.3,1.26-9.29-1.82Z"></path>
    <path class="uuid-caa3a560-f94a-4cb6-afba-9819db989698" d="M27.5,12.21c-.97-2.61.4-5.46,3.1-6.47s5.6.26,6.58,2.87c.96,2.59-.4,5.45-3.11,6.45-2.7,1.01-5.6-.26-6.57-2.85ZM35.7,9.16c-.71-1.89-2.69-2.77-4.6-2.06-1.91.71-2.84,2.67-2.13,4.56.7,1.88,2.68,2.75,4.59,2.04s2.84-2.67,2.14-4.54Z"></path>
    <path class="uuid-caa3a560-f94a-4cb6-afba-9819db989698" d="M38.89,3.34l1.51-.24.26,1.61c.49-1.25,1.64-2.11,3.08-2.34,2.43-.39,3.73.87,4.13,3.35l.92,5.71-1.51.24-.88-5.52c-.28-1.74-1.09-2.57-2.84-2.29-1.73.28-2.74,1.79-2.49,3.36l.85,5.31-1.51.24-1.51-9.43Z"></path>
    <path class="uuid-caa3a560-f94a-4cb6-afba-9819db989698" d="M54.89,6.52c.27-2.77,2.76-4.74,5.63-4.46,1.34.13,2.52.72,3.37,1.61l-1.07.96c-.55-.61-1.4-1.03-2.42-1.12-2.05-.2-3.74,1.13-3.94,3.16-.19,1.97,1.14,3.64,3.29,3.85,1.1.11,2.15-.2,2.89-.8l.77,1.2c-1.03.79-2.41,1.18-3.87,1.04-2.87-.28-4.92-2.67-4.65-5.45Z"></path>
    <path class="uuid-caa3a560-f94a-4cb6-afba-9819db989698" d="M68.04,0l1.48.42-1.36,4.79c.97-.93,2.36-1.23,3.76-.83,2.33.66,3.06,2.31,2.36,4.79l-1.58,5.57-1.5-.42,1.52-5.38c.48-1.7.06-2.8-1.65-3.28-1.73-.49-3.19.54-3.61,2l-1.47,5.19-1.48-.42,3.51-12.42Z"></path>
    <path class="uuid-caa3a560-f94a-4cb6-afba-9819db989698" d="M78.26,6.82l1.41.6-3.73,8.79-1.41-.6,3.73-8.79ZM79.08,4.25c.21-.51.8-.75,1.32-.53.52.22.77.82.56,1.32-.21.5-.81.72-1.33.5-.52-.22-.76-.79-.55-1.3Z"></path>
    <path class="uuid-caa3a560-f94a-4cb6-afba-9819db989698" d="M83.92,5.69l1.37.69-5.85,11.51-1.37-.69,5.85-11.51Z"></path>
    <path class="uuid-caa3a560-f94a-4cb6-afba-9819db989698" d="M83.79,14.63c1.57-2.28,4.58-2.9,6.89-1.31,2.16,1.48,2.63,4.47,1.09,6.72-.16.23-.36.45-.37.46l-6.6-4.53c-.88,1.71-.31,3.55,1.19,4.58.91.63,2.04.95,3.07.87l-.07,1.28c-1.32.07-2.66-.3-3.77-1.06-2.3-1.58-3.14-4.51-1.43-7ZM90.83,18.73c.87-1.55.44-3.39-.97-4.36-1.38-.95-3.22-.69-4.41.66l5.39,3.7Z"></path>
    <path class="uuid-caa3a560-f94a-4cb6-afba-9819db989698" d="M89.73,108.55c1.9,3.09.94,7.1-2.38,9.14-1.48.91-3.15,1.23-4.68.97l.25-1.4c1.27.18,2.5-.06,3.6-.74,2.58-1.59,3.26-4.71,1.79-7.09-1.48-2.4-4.58-3.21-7.07-1.68-1.29.79-2.15,2.01-2.44,3.35l-1.42-.39c.41-1.64,1.46-3.16,3.11-4.17,3.31-2.04,7.33-1.1,9.25,2.02Z"></path>
    <path class="uuid-caa3a560-f94a-4cb6-afba-9819db989698" d="M77.46,113.9c.93,2.63-.49,5.46-3.21,6.42-2.72.96-5.6-.35-6.53-2.98-.92-2.61.5-5.44,3.22-6.4,2.72-.96,5.6.35,6.52,2.96ZM69.2,116.81c.67,1.91,2.64,2.81,4.56,2.14s2.88-2.62,2.21-4.53c-.67-1.89-2.63-2.8-4.55-2.12-1.92.68-2.88,2.62-2.22,4.51Z"></path>
    <path class="uuid-caa3a560-f94a-4cb6-afba-9819db989698" d="M65.96,122.57l-1.52.22-.23-1.61c-.51,1.24-1.68,2.08-3.11,2.29-2.43.35-3.72-.93-4.08-3.42l-.83-5.73,1.52-.22.8,5.54c.25,1.75,1.04,2.58,2.8,2.33,1.74-.25,2.77-1.75,2.54-3.32l-.77-5.32,1.52-.22,1.36,9.46Z"></path>
    <path class="uuid-caa3a560-f94a-4cb6-afba-9819db989698" d="M50,119.13c-.32,2.77-2.84,4.69-5.71,4.35-1.34-.16-2.51-.77-3.34-1.67l1.08-.94c.54.62,1.38,1.05,2.4,1.17,2.04.24,3.76-1.06,4-3.09.23-1.97-1.07-3.66-3.22-3.91-1.1-.13-2.15.16-2.91.75l-.75-1.21c1.04-.77,2.43-1.14,3.89-.97,2.86.33,4.87,2.76,4.55,5.53Z"></path>
    <path class="uuid-caa3a560-f94a-4cb6-afba-9819db989698" d="M36.66,125.39l-1.46-.46,1.48-4.76c-1,.9-2.39,1.17-3.78.73-2.31-.72-2.99-2.39-2.23-4.85l1.72-5.53,1.48.46-1.66,5.34c-.53,1.69-.13,2.8,1.56,3.32,1.71.53,3.21-.46,3.65-1.9l1.61-5.15,1.46.46-3.84,12.33Z"></path>
    <path class="uuid-caa3a560-f94a-4cb6-afba-9819db989698" d="M25.68,120.8c-.23.5-.82.72-1.34.48-.51-.24-.74-.84-.51-1.34.23-.5.83-.69,1.35-.46.51.24.73.82.5,1.32ZM26.59,118.26l-1.39-.65,4.03-8.66,1.39.65-4.03,8.66Z"></path>
    <path class="uuid-caa3a560-f94a-4cb6-afba-9819db989698" d="M20.86,119.16l-1.34-.75,6.29-11.27,1.34.75-6.29,11.27Z"></path>
    <path class="uuid-caa3a560-f94a-4cb6-afba-9819db989698" d="M21.33,110.23c-1.68,2.2-4.72,2.67-6.95.98-2.09-1.59-2.41-4.59-.76-6.76.17-.22.38-.43.39-.44l6.37,4.84c.96-1.66.48-3.53-.96-4.63-.88-.67-1.99-1.05-3.03-1.02l.14-1.28c1.32,0,2.64.43,3.71,1.24,2.21,1.68,2.92,4.66,1.09,7.07ZM14.5,105.8c-.94,1.5-.6,3.36.76,4.4,1.33,1.01,3.18.84,4.44-.45l-5.2-3.95Z"></path>
    <path class="uuid-acaa24b7-eb16-4914-a802-20397a77dfe8" d="M100.42,36.26c2.09,5.58,3.24,11.61,3.24,17.92,0,6.83-1.35,13.35-3.79,19.31"></path>
    <path class="uuid-acaa24b7-eb16-4914-a802-20397a77dfe8" d="M4.24,36.26c-2.09,5.58-3.24,11.61-3.24,17.92,0,6.83,1.35,13.35,3.79,19.31"></path>
    <path class="uuid-caa3a560-f94a-4cb6-afba-9819db989698" d="M32.24,78.8c-3.88-2.04-6.86-4.71-9.31-7.97-.46-.61-.86-1.28-1.22-1.97-.39-.73-.48-1.52.25-2.1.72-.57,1.35-.1,1.93.35,1.44,1.12,2.79,2.37,4.31,3.35,4.4,2.82,9.07,4.46,14.23,2.15,3.62-1.62,6.39-4.35,8.67-7.51,2.33-3.24,4.13-6.78,5.1-10.7.25-1.01.25-1.64-1.09-1.36-.69.14-1.36-.04-1.63-.8-.29-.8.24-1.25.85-1.58,2.62-1.41,4.38-3.68,5.97-6.09,1.83-2.78,4.35-4.2,7.64-4.12,1.34.03,2.01-.52,2.48-1.68.81-2,1.5-4.03,1.9-6.16.32-1.7,1.42-2.54,2.7-2.22,1.21.3,1.77,1.47,1.34,3.1-.66,2.51-1.28,5.02-1.54,7.62-.1,1.02.15,1.78.93,2.48,2.74,2.49,3.6,5.55,2.71,9.16-.67,2.71-1.89,5.34-1.37,8.26.1.53-.21,1.12-.73,1.15-1.87.12-2.16,1.68-2.76,2.91-3.07,6.32-7.48,11.35-13.6,14.93-6.96,4.07-14.12,4.19-21.53,1.6-2.25-.78-4.46-1.63-6.22-2.8ZM64.07,48.61c-1.62,1.54-3.03,2.6-4.65,3.34-.78.36-1.13.96-1.31,1.77-1.25,5.74-4.02,10.7-7.84,15.11-5.39,6.21-12.04,8.01-19.32,5.18-2.08-.81-3.94-2.04-5.97-3.54.59,1.12,1.26,1.77,1.93,2.42,5.12,4.91,11.31,7.58,18.27,8.5,3.08.41,6.13.33,9.15-.71,9.64-3.32,15.19-10.56,19.03-19.49.23-.54.28-1.03-.01-1.58-1-1.9-1.26-3.98-1.4-6.08-.04-.62.14-1.32-.41-1.83-.48.11-.56.54-.78.83-1.59,2.12-3.19,4.24-5.31,5.87-.94.72-1.99,1.72-3.25.77-1.26-.96-.35-2.14.05-3.16.88-2.26,1.56-4.56,1.82-7.39ZM63.84,57.22c.08.06.16.13.24.19.48-.42.98-.82,1.44-1.26,2.13-2.03,3.71-4.5,5.38-6.9.36-.52.58-1.35,1.41-1.17.86.18.94,1.03,1.01,1.73.17,1.59.25,3.19.4,4.78.13,1.37.17,2.78,1.27,3.97.51-1.86.88-3.58,1.47-5.23,1.29-3.62.43-6.61-2.46-9.06-.7-.59-.95-1.28-.9-2.18.13-2.71.53-5.38,1.2-8,.14-.55.48-1.11.06-1.73-.69.35-.5.98-.6,1.47-.45,2.23-1.11,4.37-2.11,6.42-.68,1.41-1.56,2.1-3.22,1.94-2.32-.22-4.38.46-5.88,2.37-1.48,1.89-2.72,3.96-4.42,5.71,2.12-.55,3.73-1.77,5-3.48.35-.47.52-1.23,1.28-1.11.83.14,1.05.92,1.2,1.62.4,1.89.03,3.74-.46,5.55-.4,1.47-.89,2.92-1.34,4.37Z"></path>
  </g>
</svg>
