<?xml version="1.0" encoding="UTF-8"?>
<svg xmlns="http://www.w3.org/2000/svg" id="uuid-80907473-d7c5-4e40-83d9-f4620b38b58c" viewBox="0 0 104.99 128.92">
  <defs>
    <style>.uuid-ed1fa969-d920-4e52-989f-0ca932217633{fill:#3c3c3b;stroke-width:0px;}.uuid-6072a185-14c1-4217-8170-e9322021c06d{fill:none;stroke:#3c3c3b;stroke-miterlimit:10;stroke-width:2px;}</style>
  </defs>
  <g id="uuid-15e9531f-2530-441b-865a-3b5846185d23">
    <path class="uuid-ed1fa969-d920-4e52-989f-0ca932217633" d="M15.97,24.67l-.12-1.36c1.44.2,3.03-.04,4.65-1.2,1.39-.99,2.43-2.63,1.52-3.9-.84-1.18-2.49-.54-4.1.11-2.25.91-4.6,1.69-5.97-.23-1.32-1.85-.15-4.11,1.77-5.48,1.33-.95,2.77-1.49,4.44-1.43l.15,1.36c-1.48-.03-2.72.5-3.75,1.23-1.06.76-2.08,2.21-1.26,3.36.76,1.07,2.24.55,3.94-.13,2.33-.94,4.81-1.72,6.19.21,1.52,2.13-.04,4.61-2.1,6.08-2.12,1.51-4,1.62-5.35,1.38Z"></path>
    <path class="uuid-ed1fa969-d920-4e52-989f-0ca932217633" d="M21.34,8.64c-.25-.49-.06-1.09.45-1.36.51-.26,1.13-.08,1.38.41.25.49.03,1.09-.47,1.35-.51.26-1.1.08-1.36-.4ZM22.79,10.92l1.38-.71,4.39,8.49-1.38.71-4.39-8.49Z"></path>
    <path class="uuid-ed1fa969-d920-4e52-989f-0ca932217633" d="M27.22,8.63l1.46-.53.56,1.53c.26-1.33,1.24-2.39,2.61-2.89,2.34-.85,3.87.14,4.72,2.51l1.97,5.44-1.46.53-1.91-5.26c-.6-1.66-1.55-2.32-3.24-1.71-1.67.6-2.38,2.28-1.84,3.78l1.83,5.05-1.45.53-3.26-8.98Z"></path>
    <path class="uuid-ed1fa969-d920-4e52-989f-0ca932217633" d="M45.16,14.79l.58-1.01c.85.7,2.04,1.04,3.2.96,1.69-.13,3.52-1.27,3.3-4.09l-.02-.31c-.34,1.11-1.64,2.09-3.54,2.24-2.72.21-4.79-1.68-4.99-4.26-.2-2.58,1.55-4.78,4.27-4.99,1.71-.13,3.31.49,3.91,1.65l-.13-1.74,1.48-.11.57,7.38c.3,3.83-2.45,5.25-4.63,5.41-1.58.12-2.98-.28-3.99-1.11ZM52,7.55c-.14-1.8-1.77-3.07-3.64-2.93-1.89.14-3.24,1.68-3.1,3.56.14,1.88,1.72,3.17,3.61,3.03,1.93-.15,3.28-1.67,3.13-3.66Z"></path>
    <path class="uuid-ed1fa969-d920-4e52-989f-0ca932217633" d="M56.87,0l1.55.09-.76,12.88-1.55-.09.76-12.88Z"></path>
    <path class="uuid-ed1fa969-d920-4e52-989f-0ca932217633" d="M60.37,9.47l1.08-5.87,1.52.28-1.05,5.67c-.32,1.76.42,2.65,2,2.94,1.76.33,3.04-.88,3.31-2.32l.98-5.33,1.52.28-1.74,9.4-1.46-.27.31-1.66c-.83,1.1-2.35,1.48-3.63,1.25-2.4-.44-3.32-1.87-2.86-4.38Z"></path>
    <path class="uuid-ed1fa969-d920-4e52-989f-0ca932217633" d="M71.5,12.67l1.77-5.16-1.41-.48.4-1.17,1.41.48.67-1.95,1.55.24-.76,2.21,3.2,1.1-.4,1.17-3.2-1.1-1.79,5.2c-.43,1.24.01,1.79.76,2.05.87.3,1.71.03,1.71.03l.11,1.26c-.45.12-1.37.28-2.39-.08-1.66-.57-2.37-1.69-1.64-3.8Z"></path>
    <path class="uuid-ed1fa969-d920-4e52-989f-0ca932217633" d="M78.41,13.03c1.29-2.44,4.24-3.39,6.75-2.07,2.34,1.24,3.17,4.16,1.89,6.57-.13.24-.3.48-.31.5l-7.15-3.79c-.67,1.8.12,3.57,1.74,4.43.99.52,2.16.72,3.18.53l.08,1.29c-1.31.21-2.7,0-3.9-.65-2.49-1.32-3.69-4.15-2.27-6.82ZM85.96,16.33c.68-1.64.04-3.42-1.5-4.23-1.5-.79-3.31-.33-4.34,1.14l5.84,3.09Z"></path>
    <path class="uuid-ed1fa969-d920-4e52-989f-0ca932217633" d="M92.09,15.28l1.21.97-1.02,1.27c1.27-.47,2.68-.19,3.83.73,1.94,1.56,1.89,3.38.32,5.33l-3.62,4.51-1.21-.97,3.5-4.36c1.1-1.38,1.17-2.53-.23-3.66-1.38-1.11-3.19-.85-4.18.39l-3.36,4.19-1.21-.97,5.98-7.45Z"></path>
    <path class="uuid-ed1fa969-d920-4e52-989f-0ca932217633" d="M90.2,104.23l.11,1.36c-1.44-.21-3.03.02-4.66,1.17-1.4.98-2.45,2.61-1.54,3.9.84,1.19,2.48.55,4.1-.08,2.26-.9,4.61-1.67,5.97.26,1.31,1.86.13,4.11-1.81,5.47-1.33.94-2.78,1.48-4.45,1.41l-.14-1.37c1.48.04,2.73-.48,3.76-1.21,1.07-.75,2.09-2.2,1.28-3.35-.76-1.08-2.24-.56-3.94.11-2.34.93-4.82,1.69-6.19-.25-1.5-2.13.07-4.61,2.14-6.06,2.13-1.5,4.01-1.6,5.36-1.35Z"></path>
    <path class="uuid-ed1fa969-d920-4e52-989f-0ca932217633" d="M83.3,117.96l-1.38.71-4.38-8.5,1.38-.71,4.38,8.49ZM84.76,120.24c.25.49.06,1.1-.45,1.36-.51.26-1.13.08-1.38-.41-.25-.49-.03-1.09.47-1.35.51-.26,1.1-.08,1.36.41Z"></path>
    <path class="uuid-ed1fa969-d920-4e52-989f-0ca932217633" d="M78.86,120.25l-1.45.53-.56-1.53c-.25,1.32-1.23,2.39-2.61,2.89-2.33.85-3.87-.14-4.73-2.5l-1.98-5.44,1.46-.53,1.91,5.26c.6,1.66,1.56,2.31,3.24,1.7,1.67-.61,2.38-2.29,1.83-3.78l-1.84-5.05,1.46-.53,3.27,8.98Z"></path>
    <path class="uuid-ed1fa969-d920-4e52-989f-0ca932217633" d="M60.98,114.11l-.57,1.01c-.85-.7-2.04-1.04-3.2-.95-1.69.13-3.52,1.28-3.29,4.1l.02.31c.34-1.11,1.63-2.1,3.54-2.25,2.72-.22,4.79,1.67,5,4.25.2,2.58-1.54,4.79-4.26,5.01-1.71.13-3.31-.49-3.91-1.64l.14,1.74-1.48.12-.58-7.38c-.3-3.84,2.45-5.26,4.62-5.43,1.59-.13,2.99.28,3.99,1.1ZM54.16,121.37c.14,1.8,1.78,3.07,3.65,2.92,1.89-.15,3.24-1.7,3.09-3.57-.15-1.88-1.72-3.17-3.61-3.02-1.93.15-3.28,1.68-3.12,3.67Z"></path>
    <path class="uuid-ed1fa969-d920-4e52-989f-0ca932217633" d="M49.25,128.92l-1.55-.1.78-12.88,1.55.09-.78,12.88Z"></path>
    <path class="uuid-ed1fa969-d920-4e52-989f-0ca932217633" d="M45.74,119.44l-1.14,5.86-1.52-.3,1.1-5.67c.34-1.75-.4-2.66-1.98-2.96-1.76-.34-3.05.85-3.33,2.29l-1.03,5.32-1.52-.3,1.82-9.38,1.46.28-.32,1.66c.84-1.1,2.36-1.46,3.64-1.21,2.4.47,3.31,1.9,2.82,4.41Z"></path>
    <path class="uuid-ed1fa969-d920-4e52-989f-0ca932217633" d="M34.65,116.11l-1.89,5.12,1.4.52-.43,1.16-1.4-.51-.72,1.93-1.55-.28.81-2.19-3.17-1.17.43-1.16,3.17,1.17,1.91-5.15c.46-1.23.03-1.79-.71-2.07-.86-.32-1.71-.07-1.71-.07l-.08-1.26c.45-.11,1.37-.25,2.39.13,1.64.61,2.33,1.74,1.56,3.84Z"></path>
    <path class="uuid-ed1fa969-d920-4e52-989f-0ca932217633" d="M27.74,115.59c-1.38,2.4-4.36,3.24-6.82,1.82-2.29-1.32-3.01-4.28-1.65-6.64.14-.24.32-.47.33-.49l7,4.05c.74-1.77.02-3.57-1.57-4.49-.97-.56-2.13-.8-3.16-.65l-.03-1.29c1.32-.17,2.69.11,3.87.79,2.44,1.41,3.53,4.28,2.02,6.9ZM20.32,112c-.74,1.61-.16,3.42,1.34,4.29,1.46.85,3.29.45,4.38-.98l-5.72-3.31Z"></path>
    <path class="uuid-ed1fa969-d920-4e52-989f-0ca932217633" d="M14.07,112.71l-1.15-1.03,1.09-1.21c-1.29.4-2.69.04-3.78-.94-1.85-1.66-1.7-3.48-.02-5.35l3.86-4.31,1.15,1.04-3.73,4.16c-1.18,1.32-1.31,2.47.03,3.66,1.32,1.18,3.14,1.02,4.2-.16l3.59-4,1.15,1.03-6.38,7.11Z"></path>
    <path class="uuid-6072a185-14c1-4217-8170-e9322021c06d" d="M3.46,72.9c-1.6-4.94-2.46-10.21-2.46-15.69s.94-11.19,2.66-16.31"></path>
    <path class="uuid-6072a185-14c1-4217-8170-e9322021c06d" d="M101.53,72.9c1.6-4.94,2.46-10.21,2.46-15.69s-.94-11.19-2.66-16.31"></path>
    <path class="uuid-ed1fa969-d920-4e52-989f-0ca932217633" d="M61.68,63.8c2.37-.33,4.69-1.06,7.15-.5,1.41.32,2.14.96,2.36,2.41,1.35,8.78-5.61,16.81-14.48,16.41-2.19-.1-2.63.69-2.52,2.56.09,1.51.01,3.03-.04,4.54-.02.56-.18,1.16-.87,1.21-.84.06-1.03-.6-1.05-1.24-.05-1.72-.08-3.44-.05-5.16.02-1.34-.37-1.97-1.9-1.93-8.37.23-14.29-4.96-15.34-13.27-.17-1.33.14-2.6.4-3.88.21-1.02.96-1.37,1.91-1.6,1.84-.44,3.67-.15,6.06.03-1.37-1.04-2.36-1.72-3.26-2.5-3.95-3.41-5.56-7.7-4.92-12.89.21-1.72,1.12-2.32,2.71-2.46,5.31-.46,9.78,1.11,13.17,5.34.21.27.45.52.68.76.03.04.13.01.32.03.13-1.05-.8-1.35-1.34-1.84-6.84-6.26-6.71-15.85.31-21.88,1.9-1.63,2.46-1.63,4.41.02,6.92,5.84,7.17,15.34.61,21.57-.61.58-1.58.92-1.68,2.15.72-.04.9-.62,1.19-.99,3.32-4.1,7.66-5.6,12.82-5.18,1.94.16,2.76,1.07,2.91,2.98.51,6.26-2.24,11.39-7.78,14.31-.61.32-1.19.68-1.79,1.02-1.96.31-3.91.63-5.91.5-.87-.05-1.49.28-1.52,1.25-.03,1.27,0,2.53,0,3.8.15.08.3.16.45.24,1.78-2.64,4.28-4.35,6.97-5.8ZM58.83,39.08c.12-3.97-1.34-7.22-4.37-9.79-.75-.64-1.43-.85-2.37-.18-6.08,4.36-6.29,14.75-.4,19.32,1.13.88,2.04.89,3.08-.05,2.77-2.49,4.17-5.57,4.06-9.31ZM52.17,59.43c-.03-6.91-5.44-12.37-12.33-12.37-1.29,0-2.79-.13-2.96,1.98-.6,7.37,4.76,13.42,12.11,13.52,2.93.04,3.19-.22,3.18-3.12ZM69.52,50.32c.02-2.87-.35-3.29-2.91-3.29-7.4,0-12.99,6.16-12.38,13.55.12,1.39.74,1.88,2.07,1.97,7.17.49,13.16-5.03,13.22-12.24ZM66.33,65.04c-7.4.07-12.72,6-12.09,13.44.1,1.15.49,1.7,1.71,1.83,7.2.76,13.47-4.76,13.57-12.02.05-3.14-.09-3.28-3.19-3.25ZM36.89,68.14c.05,7.34,6.1,12.82,13.37,12.18,1.27-.11,1.79-.62,1.9-1.89.66-7.33-4.75-13.33-12.14-13.39-3.01-.02-3.15.12-3.13,3.1ZM45.38,64.06c2.61,1.31,4.61,3.28,6.58,5.39.22-1.15.17-2.16.23-3.17.09-1.52-.57-2.11-2.07-2-1.55.11-3.11.01-4.74-.23Z"></path>
  </g>
</svg>
