<?xml version="1.0" encoding="UTF-8"?>
<svg xmlns="http://www.w3.org/2000/svg" id="uuid-f0a6413e-6389-40d1-a7c2-83b67a28b386" viewBox="0 0 1264.33 205.86">
  <defs>
    <style>.uuid-933c47e4-fde1-4929-bedb-940bbe60523c{fill:#e84db5;stroke-width:0px;}.uuid-4481d532-9eb1-42ff-b2e8-85070719bcb0{fill:none;stroke:#fadd55;stroke-miterlimit:10;stroke-width:44px;}</style>
  </defs>
  <g id="uuid-06e525ab-a88f-4624-b7a6-3b07ab467ea7">
    <path class="uuid-4481d532-9eb1-42ff-b2e8-85070719bcb0" d="M8.86,20.14l217.77,95.75c154.12,67.77,327,85.45,492.51,50.39l103.91-22.02c134.32-28.46,274.07-22.28,405.1,17.91l29.73,9.12"></path>
    <path class="uuid-933c47e4-fde1-4929-bedb-940bbe60523c" d="M99.81,51.84l.43.19c.63.49.65,1.4.06,2.74l-.62,1.4c-.79,1.79-1.79,4.27-3.01,7.43l.21.09c4.12,1.96,6.51,3.08,7.17,3.37l.33.98-.38.87c-.08.18-.47.29-1.17.32l-5.12-2.25c-3.27-1.44-4.69-2.62-4.28-3.55l1.61-3.67c2.46-5.59,4.04-8.23,4.75-7.92Z"></path>
    <path class="uuid-933c47e4-fde1-4929-bedb-940bbe60523c" d="M114.67,61.52l.43.19.47.73c.17-.27.38-.35.62-.24l1.09.48c2.29,1.87,3.02,3.75,2.19,5.63l-.87,1.97c-1.13,2.57-3.49,3.43-7.1,2.58-3.52-2.62-4.72-5.22-3.58-7.8l.58-1.32c.93-2.12,2.99-2.86,6.16-2.22ZM110.71,65.22l-.1.22c-.74,1.69-.13,3.26,1.83,4.71l.43.19c1.42.63,2.7-.11,3.83-2.22.76-1.74-.09-3.15-2.56-4.24-1.81-.2-2.96.25-3.44,1.34Z"></path>
    <path class="uuid-933c47e4-fde1-4929-bedb-940bbe60523c" d="M125.16,65.57l.46.2c.7.31.6,1.99-.3,5.05l.23.1c1.94-1.88,3.96-2.35,6.08-1.42.51.49.72.85.62,1.08l-.4.92c-.17.38-1.21.47-3.13.27-1.36.61-3.06,2.6-5.08,5.96l-.88.16-.69-.3c-.84-.37-.17-4.17,2-11.4.49-.51.86-.72,1.09-.61Z"></path>
    <path class="uuid-933c47e4-fde1-4929-bedb-940bbe60523c" d="M138.97,72.34l.49.22c3.17,1.73,4.34,3.53,3.52,5.39-2.92,2.05-5.42,2.61-7.51,1.69l-.11.25c-.17.38.14.8.91,1.28,1,.44,2.86.67,5.58.7l.25.11c.23.1.37.46.41,1.06l-.11.24c-1.33,1.78-3.57,1.97-6.74.58l-.75-.33c-2.66-1.98-3.42-4.27-2.27-6.89l.65-1.49c1.84-2.73,3.73-3.67,5.66-2.82ZM135.34,77.25l-.11.24c3.11.52,4.87.32,5.28-.62-1.08-1.07-1.8-1.68-2.15-1.84-1.32-.11-2.33.62-3.03,2.21Z"></path>
    <path class="uuid-933c47e4-fde1-4929-bedb-940bbe60523c" d="M162.51,82.9c3.65,1.61,4.55,5.21,2.69,10.82l-.1.22c-.93.29-1.47.41-1.59.35-.87-.38-.8-2.18.21-5.38-.21-1.83-.97-3.03-2.26-3.6-1.5-.66-2.99-.19-4.47,1.42l-.28,1.19-.57,1.3c-.34.78-.84,1.17-1.48,1.18l-.81-.36c-.6-.26-.16-2.15,1.3-5.68-.07-.8-.38-1.37-.93-1.72-2.68-.46-4.46.32-5.35,2.34l-1.15,2.62c-.09.21-.39.34-.89.39l-.81-.36c-.72-.32.05-3.36,2.33-9.13l.49-.04.6.26c.11.05.33.66.65,1.84,1.66-.83,3.36-.87,5.09-.11l.81.36c.6.26,1.14,1.02,1.63,2.29,1.66-.83,3.29-.9,4.9-.2ZM162.75,83.01c3.65,1.61,4.55,5.21,2.69,10.82l-.1.22c-.93.29-1.46.41-1.59.35-.87-.38-.8-2.18.21-5.38-.21-1.83-.97-3.03-2.26-3.6-1.5-.66-2.99-.18-4.47,1.42l-.28,1.19-.57,1.3c-.34.78-.84,1.17-1.48,1.18l-.81-.36c-.6-.26-.16-2.15,1.3-5.68-.07-.8-.38-1.37-.93-1.72-2.68-.46-4.46.32-5.35,2.34l-1.15,2.62c-.09.21-.39.34-.89.39l-.81-.36c-.72-.32.05-3.36,2.33-9.13l.49-.04.6.27c.11.05.33.66.65,1.84,1.66-.83,3.36-.87,5.09-.11l.81.36c.59.26,1.14,1.02,1.63,2.29,1.66-.83,3.29-.9,4.9-.2Z"></path>
    <path class="uuid-933c47e4-fde1-4929-bedb-940bbe60523c" d="M179.26,90.22l.51.22c1.35.59.79,3.7-1.67,9.3l-.17.39c-.08.19-.53.3-1.35.31-.91-.4-1.39-.91-1.44-1.54,1.52-4.37,2.58-7.25,3.2-8.65l.92-.04ZM181.65,86.15l.25.11c.57.54.67,1.22.31,2.04-.1.22-.45.33-1.06.34l-1.27-.56c-.24-.11-.4-.44-.46-1.01l.4-.92c.37-.38.97-.38,1.82,0Z"></path>
    <path class="uuid-933c47e4-fde1-4929-bedb-940bbe60523c" d="M190.21,93.77c4.01,2.4,5.18,5.5,3.51,9.31-1.19,2.7-4.13,3.43-8.82,2.21l-.86-.38-.96-.7-.81,2.42-.3.69c-.1.22-.42.36-.95.42-1.98-.87-1.06-5.64,2.75-14.31.71-.24,2.86-.13,6.43.34ZM185.83,96.83c-1.01,3.45-1.01,5.39-.03,5.82,2.76.65,4.48.21,5.16-1.35.95-2.16.15-3.81-2.4-4.93-.69-.23-1.6-.08-2.73.45Z"></path>
    <path class="uuid-933c47e4-fde1-4929-bedb-940bbe60523c" d="M204.75,100.26c1.05.8,1.45,1.5,1.18,2.09-.22.51-1.49.55-3.8.12l-.62.32-.07.16c-.21.47-.07,2.11.41,4.92l-.43.99c-.72,1.64-2.47,2.25-5.25,1.82l-.4-.17c-.92-.75-1.32-1.25-1.21-1.51l.37-.83c.21-.29,1.28-.41,3.21-.36l.55-.74c-.67-2.39-.83-3.97-.49-4.75l.36-.82c.85-1.92,2.9-2.33,6.17-1.23Z"></path>
    <path class="uuid-933c47e4-fde1-4929-bedb-940bbe60523c" d="M211.61,103.51l.45.2c.14.06.32.48.52,1.25l-3.15,4.74c-.88,2-.05,3.55,2.49,4.66,1.36.14,2.49-.81,3.38-2.85l1.2-4.57c.55-.44,1.12-.53,1.73-.26,1.05,1.25.93,3.32-.35,6.23-2.33,3.74-4.77,5.05-7.33,3.92-2.54-1.12-3.95-3.18-4.21-6.18.19-.86.37-1.46.52-1.82,2.28-3.93,3.86-5.71,4.74-5.32Z"></path>
    <path class="uuid-933c47e4-fde1-4929-bedb-940bbe60523c" d="M236.33,115.28c3.67,1.57,4.6,5.17,2.8,10.79l-.09.22c-.93.3-1.46.42-1.59.37-.87-.37-.82-2.17.15-5.38-.23-1.83-1-3.02-2.3-3.58-1.5-.64-2.99-.16-4.46,1.46l-.27,1.19-.56,1.31c-.34.78-.83,1.18-1.47,1.19l-.81-.35c-.6-.26-.18-2.15,1.25-5.69-.08-.8-.39-1.37-.95-1.71-2.68-.43-4.46.37-5.33,2.4l-1.13,2.63c-.09.21-.39.34-.89.39l-.81-.35c-.73-.31.02-3.36,2.24-9.15l.49-.05.61.26c.11.05.33.66.66,1.83,1.65-.85,3.35-.9,5.09-.16l.81.35c.6.26,1.15,1.01,1.65,2.27,1.65-.85,3.29-.93,4.89-.24ZM236.57,115.38c3.67,1.57,4.6,5.17,2.8,10.79l-.09.22c-.93.3-1.46.42-1.59.37-.87-.37-.82-2.17.15-5.38-.23-1.83-1-3.02-2.3-3.58-1.5-.64-2.99-.16-4.46,1.46l-.27,1.19-.56,1.31c-.33.78-.83,1.18-1.47,1.19l-.81-.35c-.6-.26-.18-2.15,1.25-5.69-.08-.8-.39-1.37-.95-1.71-2.68-.43-4.46.37-5.33,2.4l-1.13,2.63c-.09.21-.38.34-.89.4l-.81-.35c-.73-.31.02-3.36,2.24-9.15l.49-.05.61.26c.11.05.33.66.66,1.83,1.66-.85,3.35-.9,5.09-.16l.81.35c.6.26,1.15,1.01,1.65,2.27,1.65-.85,3.29-.93,4.89-.24Z"></path>
    <path class="uuid-933c47e4-fde1-4929-bedb-940bbe60523c" d="M262.25,120.68l.49.19c1.11.43.1,4.95-3.04,13.54-.44,1.12-1.62,1.31-3.55.56-.29.45-1.02.44-2.21-.02l-.25-.1c-3.21-1.25-4.64-3.75-4.3-7.5l.47-1.2c1.17-3,3.81-4.1,7.95-3.3l.97.38,1.59.9.22-1.3.66-1.7c.09-.23.42-.38,1.01-.44ZM252.37,127.9c-.68,1.75.26,3.29,2.83,4.62,1.17-.03,2.05-.17,2.65-.44,1.27-3.28,1.29-5.43.03-6.45-2.84-.62-4.58-.12-5.21,1.5l-.3.77Z"></path>
    <path class="uuid-933c47e4-fde1-4929-bedb-940bbe60523c" d="M270.25,128.34l.45.16.52.7c.15-.28.35-.38.61-.28l1.11.41c2.4,1.72,3.25,3.55,2.54,5.48l-.74,2.02c-.97,2.63-3.27,3.64-6.92,3.02-3.68-2.4-5.03-4.92-4.06-7.56l.5-1.35c.8-2.18,2.8-3.04,6.01-2.6ZM266.53,132.29l-.08.22c-.64,1.73.07,3.26,2.12,4.59l.45.16c1.46.54,2.69-.28,3.68-2.45.65-1.78-.28-3.14-2.82-4.07-1.82-.09-2.94.43-3.35,1.55Z"></path>
    <path class="uuid-933c47e4-fde1-4929-bedb-940bbe60523c" d="M281.99,127.72l.7.24c.91,1.24.44,6.09-1.41,14.54-.56.59-.99.83-1.3.72l-1.17-.41c-1-.35-.49-4.08,1.54-11.18-.16-.06.11-1.33.81-3.81l.83-.1Z"></path>
    <path class="uuid-933c47e4-fde1-4929-bedb-940bbe60523c" d="M292.01,136.01l.45.15.54.68c.14-.29.34-.39.6-.3l1.13.38c2.45,1.65,3.35,3.46,2.7,5.41l-.68,2.04c-.89,2.66-3.17,3.73-6.83,3.22-3.75-2.29-5.18-4.77-4.28-7.44l.46-1.36c.74-2.2,2.71-3.12,5.93-2.77ZM288.4,140.06l-.08.22c-.58,1.75.17,3.26,2.26,4.52l.45.15c1.47.49,2.68-.36,3.61-2.56.6-1.8-.38-3.13-2.94-3.98-1.82-.04-2.92.51-3.3,1.65Z"></path>
    <path class="uuid-933c47e4-fde1-4929-bedb-940bbe60523c" d="M302.54,138.94l.48.15c.73.23.81,1.92.24,5.05l.24.08c1.72-2.07,3.69-2.76,5.89-2.07.56.44.81.77.73,1.01l-.3.96c-.12.39-1.15.6-3.08.6-1.29.75-2.76,2.91-4.41,6.48l-.86.25-.72-.23c-.87-.28-.62-4.13.76-11.55.44-.56.77-.81,1.02-.73Z"></path>
    <path class="uuid-933c47e4-fde1-4929-bedb-940bbe60523c" d="M325.28,145.56c1.15.65,1.63,1.29,1.45,1.92-.15.53-1.4.74-3.75.61l-.57.4-.05.17c-.14.49.21,2.1,1.05,4.82l-.3,1.04c-.5,1.72-2.16,2.55-4.97,2.5l-.42-.12c-1.01-.62-1.47-1.07-1.4-1.34l.25-.87c.17-.32,1.21-.58,3.14-.78l.45-.8c-.98-2.28-1.34-3.83-1.11-4.65l.25-.86c.59-2.02,2.57-2.69,5.96-2.03Z"></path>
    <path class="uuid-933c47e4-fde1-4929-bedb-940bbe60523c" d="M330.57,148.17l.53.15c1.42.4,1.31,3.55-.34,9.45l-.11.41c-.06.2-.49.37-1.29.5-.96-.27-1.5-.71-1.64-1.32.88-4.54,1.53-7.55,1.94-9.01l.91-.17ZM332.37,143.8l.27.07c.64.45.84,1.11.6,1.97-.06.23-.4.39-1,.49l-1.33-.37c-.25-.07-.45-.38-.6-.93l.27-.96c.31-.42.91-.51,1.8-.26Z"></path>
    <path class="uuid-933c47e4-fde1-4929-bedb-940bbe60523c" d="M340.43,147.43l.42.11c.82.81,1.01,2.04.57,3.7l2.49.66c1.38.37,1.92,1.1,1.62,2.2-.19.71-.8,1.07-1.84,1.07-1.34-.65-2.26-1.05-2.78-1.19l-.05.2c-.54,4.26-.9,6.75-1.09,7.47-.1.37-.65.51-1.67.44-.99-.26-.95-3.21.13-8.83l-.42-.11c-1.58-.42-2.39-1-2.42-1.75l.17-.62c.16-.59,1.29-.66,3.38-.21l.71-2.69c.05-.2.31-.36.78-.46Z"></path>
    <path class="uuid-933c47e4-fde1-4929-bedb-940bbe60523c" d="M362.42,154.86c4.02.95,5.33,4.37,3.94,10.24l-.49,2.09c-.44,1.86-.97,2.71-1.58,2.57l-.23-.05c-.43-.1-.56-.95-.39-2.54l.16-.69-.23-.05c-1.58.93-2.89,1.28-3.92,1.04l-.94-.22c-4.17-.99-5.75-3.65-4.72-7.99.82-3.46,3.62-4.92,8.39-4.38ZM356.8,159.51c-.65,2.75.25,4.42,2.72,5l-.05.21c2.69-.39,4.23-1.4,4.62-3.03.49-2.09-.03-3.44-1.58-4.04l-1.08-.25c-2.72-.14-4.27.57-4.63,2.12Z"></path>
    <path class="uuid-933c47e4-fde1-4929-bedb-940bbe60523c" d="M385.34,161.48c3.91.82,5.53,4.16,4.86,10.03l-.05.23c-.85.48-1.35.7-1.49.67-.93-.19-1.23-1.96-.91-5.31-.58-1.75-1.57-2.77-2.96-3.06-1.6-.34-2.96.43-4.08,2.31l-.03,1.22-.29,1.39c-.18.83-.58,1.32-1.21,1.46l-.86-.18c-.64-.13-.6-2.07.1-5.82-.23-.77-.66-1.26-1.26-1.49-2.72.1-4.3,1.24-4.75,3.39l-.59,2.8c-.05.22-.31.41-.79.56l-.86-.18c-.77-.16-.64-3.3.4-9.41l.47-.14.65.14c.12.02.46.58,1.01,1.67,1.46-1.16,3.11-1.54,4.96-1.16l.87.18c.64.13,1.33.77,2.07,1.9,1.46-1.16,3.04-1.56,4.75-1.2ZM385.6,161.54c3.91.82,5.53,4.16,4.86,10.03l-.05.23c-.85.48-1.35.7-1.49.67-.93-.2-1.23-1.96-.91-5.31-.59-1.75-1.57-2.77-2.96-3.06-1.6-.33-2.96.43-4.08,2.31l-.03,1.22-.29,1.39c-.17.83-.58,1.32-1.21,1.46l-.87-.18c-.64-.13-.6-2.08.1-5.82-.23-.77-.66-1.26-1.26-1.49-2.72.1-4.3,1.24-4.75,3.39l-.59,2.8c-.05.22-.31.41-.79.56l-.86-.18c-.77-.16-.64-3.3.4-9.41l.47-.14.64.14c.12.03.46.58,1.01,1.67,1.46-1.16,3.11-1.54,4.96-1.16l.86.18c.64.13,1.33.77,2.07,1.9,1.46-1.16,3.04-1.56,4.75-1.2Z"></path>
    <path class="uuid-933c47e4-fde1-4929-bedb-940bbe60523c" d="M399.16,163.99l.53.1c3.48.95,5.04,2.43,4.67,4.44-2.37,2.67-4.67,3.79-6.92,3.38l-.05.27c-.08.41.32.75,1.18,1.03,1.07.2,2.94,0,5.59-.61l.27.05c.25.05.47.36.65.94l-.05.26c-.88,2.04-3.02,2.74-6.42,2.12l-.8-.15c-3.05-1.31-4.31-3.37-3.8-6.18l.29-1.59c1.17-3.08,2.79-4.43,4.86-4.05ZM396.76,169.6l-.05.26c3.15-.21,4.81-.81,5-1.82-1.3-.79-2.14-1.22-2.51-1.29-1.31.2-2.13,1.15-2.44,2.85Z"></path>
    <path class="uuid-933c47e4-fde1-4929-bedb-940bbe60523c" d="M413.96,163.39l.43.07c.9.73,1.2,1.94.92,3.63l2.54.42c1.4.23,2.01.91,1.83,2.04-.12.73-.7,1.14-1.73,1.24-1.39-.52-2.35-.83-2.88-.92l-.03.21c-.13,4.29-.26,6.8-.38,7.54-.06.37-.6.57-1.62.6-1.01-.17-1.25-3.1-.71-8.8l-.43-.07c-1.61-.27-2.47-.77-2.57-1.51l.11-.64c.1-.61,1.22-.78,3.35-.53l.45-2.74c.03-.21.28-.39.73-.53Z"></path>
    <path class="uuid-933c47e4-fde1-4929-bedb-940bbe60523c" d="M423.88,176.28c1.79,1,2.55,2.44,2.26,4.31l-.09.6c-.76,1.69-1.71,2.45-2.85,2.27-.19-.03-.36-.26-.52-.71l.03-.2c.05-.34.44-1.04,1.16-2.12-1.76-.27-2.57-.88-2.43-1.82l.09-.61c.48-1.31,1.26-1.89,2.34-1.72Z"></path>
    <path class="uuid-933c47e4-fde1-4929-bedb-940bbe60523c" d="M441.82,170.44l2.79.36c.23.03.59.47,1.1,1.31l-.03.24c-.07.56-1.56.83-4.47.83-.99,1.06-1.52,1.85-1.59,2.37.2,2.69,1.12,4.15,2.75,4.36.94-.04,1.7-.02,2.31.06l.51.07c.24.03.46.29.67.79l-.12.93c-.06.46-.87.75-2.42.85l-2.01-.26c-2.96-.39-4.52-2.86-4.68-7.43,1.29-3.27,3.02-4.76,5.2-4.48Z"></path>
    <path class="uuid-933c47e4-fde1-4929-bedb-940bbe60523c" d="M455.04,172.24l.47.05.67.55c.08-.31.25-.45.52-.42l1.18.13c2.74,1.1,4,2.68,3.77,4.72l-.24,2.13c-.31,2.79-2.32,4.31-6.01,4.58-4.14-1.46-6.06-3.58-5.74-6.38l.16-1.43c.26-2.31,2-3.62,5.22-3.95ZM452.36,176.96l-.03.24c-.21,1.83.84,3.15,3.15,3.95l.47.05c1.55.17,2.54-.91,2.99-3.26.21-1.89-1.02-2.98-3.7-3.28-1.79.35-2.75,1.11-2.89,2.3Z"></path>
    <path class="uuid-933c47e4-fde1-4929-bedb-940bbe60523c" d="M473.57,174.18c2.71.25,4.81,2.68,6.3,7.29l-.13,1.44c-.21,2.31-1.12,3.39-2.72,3.25-.77-.47-1.13-.99-1.08-1.55.04-.41.24-1.46.59-3.15.18-2-1.19-3.49-4.13-4.47l-.3-.03c-1.46-.13-2.47.94-3.02,3.23-.3,3.27-1.15,4.85-2.55,4.72-1.12-.1-1.67-2.97-1.64-8.61l.63-.23.6.06.84.66c1.39-2.01,3.59-2.88,6.61-2.6Z"></path>
    <path class="uuid-933c47e4-fde1-4929-bedb-940bbe60523c" d="M489.51,174.63c1.26.4,1.86.92,1.81,1.57-.04.55-1.22,1.01-3.54,1.38l-.47.51v.17c-.05.51.63,2.01,2.03,4.5l-.08,1.08c-.13,1.79-1.58,2.95-4.34,3.48l-.43-.03c-1.12-.4-1.66-.74-1.64-1.02l.07-.91c.1-.34,1.06-.82,2.91-1.41l.28-.88c-1.43-2.03-2.11-3.46-2.05-4.31l.07-.89c.15-2.09,1.95-3.17,5.4-3.23Z"></path>
    <path class="uuid-933c47e4-fde1-4929-bedb-940bbe60523c" d="M497.98,176.1l.54.03c3.57.51,5.3,1.79,5.18,3.82-2.02,2.94-4.17,4.34-6.45,4.21l-.02.28c-.02.41.41.71,1.3.88,1.09.06,2.91-.37,5.47-1.3l.28.02c.25.01.51.3.76.85l-.02.26c-.62,2.13-2.66,3.1-6.11,2.9l-.82-.05c-3.19-.92-4.7-2.81-4.54-5.66l.09-1.62c.77-3.2,2.21-4.75,4.32-4.63ZM496.29,181.96v.26c3.08-.6,4.66-1.41,4.72-2.42-1.39-.63-2.27-.95-2.65-.97-1.28.36-1.97,1.4-2.07,3.13Z"></path>
    <path class="uuid-933c47e4-fde1-4929-bedb-940bbe60523c" d="M513.77,176.57l2.81.11c.23,0,.63.41,1.22,1.21v.24c-.03.56-1.49.97-4.39,1.23-.89,1.14-1.34,1.98-1.37,2.51.44,2.67,1.49,4.03,3.14,4.09.93-.12,1.7-.17,2.3-.15l.51.02c.24,0,.48.25.74.73l-.04.94c-.02.47-.8.82-2.34,1.07l-2.03-.08c-2.99-.12-4.76-2.44-5.33-6.98.99-3.37,2.58-5.02,4.77-4.93Z"></path>
    <path class="uuid-933c47e4-fde1-4929-bedb-940bbe60523c" d="M526.19,174.11h.43c.99.6,1.46,1.76,1.43,3.47l2.57.06c1.42.03,2.12.62,2.1,1.76-.02.74-.53,1.23-1.54,1.47-1.45-.32-2.45-.49-2.98-.5v.21c.47,4.27.7,6.77.68,7.52,0,.38-.52.65-1.52.82-1.03-.02-1.68-2.89-1.94-8.61h-.43c-1.63-.05-2.55-.42-2.76-1.14v-.65c.03-.62,1.11-.95,3.25-1l.06-2.78c0-.21.22-.42.65-.63Z"></path>
    <path class="uuid-933c47e4-fde1-4929-bedb-940bbe60523c" d="M539.81,177.5h.54c3.59.33,5.39,1.51,5.38,3.55-1.86,3.04-3.93,4.56-6.22,4.55v.28c0,.41.44.68,1.34.81,1.09,0,2.89-.52,5.4-1.58h.28c.25,0,.52.27.8.81v.26c-.51,2.16-2.49,3.23-5.95,3.22h-.82c-3.23-.76-4.84-2.56-4.83-5.42v-1.62c.61-3.24,1.97-4.86,4.08-4.85ZM538.44,183.44v.26c3.06-.76,4.59-1.65,4.6-2.67-1.42-.55-2.32-.83-2.7-.83-1.26.42-1.89,1.5-1.9,3.23Z"></path>
    <path class="uuid-933c47e4-fde1-4929-bedb-940bbe60523c" d="M554.28,174.3h.44c1.01.55,1.52,1.69,1.55,3.4l2.57-.03c1.42-.02,2.14.54,2.16,1.69,0,.74-.49,1.25-1.48,1.52-1.46-.27-2.46-.4-3-.4v.21c.63,4.25.95,6.74.96,7.49,0,.38-.49.67-1.49.88-1.03.01-1.78-2.83-2.25-8.54h-.44c-1.63.03-2.57-.32-2.79-1.03v-.65c-.02-.62,1.05-.98,3.19-1.11l-.04-2.78c0-.21.21-.43.62-.65Z"></path>
    <path class="uuid-933c47e4-fde1-4929-bedb-940bbe60523c" d="M566.81,176.53h.49c.16-.02.49.28,1,.89l-.8,5.63c.07,2.18,1.48,3.22,4.25,3.14,1.29-.46,1.9-1.8,1.83-4.03l-.88-4.64c.3-.63.79-.96,1.45-.98,1.48.68,2.27,2.6,2.37,5.77-.49,4.38-2.13,6.61-4.92,6.7-2.78.09-4.93-1.17-6.46-3.77-.19-.86-.3-1.48-.31-1.86.36-4.53,1.03-6.81,1.99-6.84Z"></path>
    <path class="uuid-933c47e4-fde1-4929-bedb-940bbe60523c" d="M583.02,176.64l.54-.03c3.61.13,5.46,1.21,5.56,3.25-1.69,3.14-3.68,4.76-5.96,4.88v.28c.03.41.5.66,1.4.74,1.09-.05,2.86-.68,5.31-1.87h.28c.25-.03.54.23.84.75v.26c-.38,2.18-2.3,3.36-5.75,3.53l-.82.04c-3.27-.58-4.97-2.29-5.11-5.15l-.08-1.62c.43-3.27,1.7-4.96,3.8-5.06ZM581.97,182.65v.26c3.03-.92,4.51-1.89,4.46-2.91-1.45-.47-2.36-.7-2.74-.68-1.23.49-1.81,1.6-1.72,3.33Z"></path>
    <path class="uuid-933c47e4-fde1-4929-bedb-940bbe60523c" d="M594.58,175.38l.5-.03c.76-.05,1.45,1.49,2.06,4.62l.25-.02c.85-2.56,2.43-3.91,4.74-4.07.68.2,1.03.43,1.05.67l.07,1c.03.41-.86.97-2.65,1.68-.93,1.17-1.51,3.72-1.75,7.63l-.7.55-.75.05c-.91.06-2.08-3.62-3.49-11.04.2-.68.43-1.03.68-1.05Z"></path>
    <path class="uuid-933c47e4-fde1-4929-bedb-940bbe60523c" d="M618.99,172.8c4.11-.38,6.45,2.44,7,8.45l.2,2.14c.18,1.9-.05,2.88-.68,2.94l-.24.02c-.44.04-.83-.72-1.18-2.29l-.07-.71-.24.02c-1.21,1.39-2.33,2.13-3.38,2.23l-.96.09c-4.27.39-6.61-1.63-7.02-6.07-.33-3.54,1.86-5.81,6.56-6.83ZM615.15,178.99c.26,2.82,1.65,4.11,4.17,3.88l.02.21c2.43-1.23,3.57-2.68,3.41-4.34-.2-2.13-1.12-3.25-2.78-3.33l-1.1.1c-2.62.74-3.86,1.9-3.72,3.48Z"></path>
    <path class="uuid-933c47e4-fde1-4929-bedb-940bbe60523c" d="M637.09,167.74l.52-.06c1.19-.13,2.38,4.34,3.58,13.41.13,1.2-.83,1.91-2.89,2.14-.05.53-.71.86-1.97,1l-.26.03c-3.42.38-5.85-1.17-7.29-4.65l-.14-1.28c-.36-3.2,1.48-5.4,5.51-6.61l1.04-.12,1.82.06-.41-1.25-.2-1.81c-.03-.25.2-.53.69-.86ZM631.69,178.72c.21,1.87,1.76,2.8,4.65,2.78,1.03-.57,1.74-1.1,2.14-1.62-.39-3.49-1.38-5.4-2.96-5.73-2.81.76-4.11,2.01-3.92,3.74l.09.83Z"></path>
    <path class="uuid-933c47e4-fde1-4929-bedb-940bbe60523c" d="M644.12,166.83l.27-.03c.77.17,1.2.7,1.32,1.59.03.24-.21.51-.73.84l-1.37.17c-.26.03-.57-.18-.92-.63l-.12-.99c.12-.51.64-.82,1.56-.94ZM644.15,171.56l.55-.07c1.46-.18,2.58,2.76,3.34,8.84l.05.42c.03.21-.31.53-1,.96-.99.12-1.66-.07-2.03-.58-.94-4.53-1.51-7.55-1.69-9.06l.77-.51Z"></path>
    <path class="uuid-933c47e4-fde1-4929-bedb-940bbe60523c" d="M655.14,168.95c4.68-.07,7.3,1.96,7.88,6.08.41,2.92-1.71,5.09-6.35,6.52l-.93.13-1.18-.09.59,2.49.1.74c.03.24-.16.53-.59.85-2.14.3-3.87-4.24-5.18-13.63.48-.58,2.36-1.61,5.65-3.09ZM653.01,173.85c.95,3.46,1.96,5.12,3.04,4.97,2.69-.89,3.92-2.17,3.68-3.85-.33-2.34-1.87-3.32-4.63-2.93-.7.17-1.4.78-2.09,1.82Z"></path>
    <path class="uuid-933c47e4-fde1-4929-bedb-940bbe60523c" d="M665.81,163.82l.27-.04c.77.15,1.22.67,1.36,1.55.04.24-.2.52-.71.86l-1.37.21c-.26.04-.57-.16-.93-.6l-.15-.99c.11-.51.62-.84,1.53-.98ZM665.97,168.54l.55-.08c1.46-.22,2.65,2.69,3.58,8.75l.06.42c.03.21-.29.54-.97.99-.98.15-1.66-.03-2.04-.53-1.07-4.5-1.71-7.51-1.94-9.01l.76-.53Z"></path>
    <path class="uuid-933c47e4-fde1-4929-bedb-940bbe60523c" d="M677.17,165.67c1.32.09,2.03.46,2.13,1.1.09.55-.95,1.27-3.12,2.17l-.34.6.03.17c.08.5,1.09,1.8,3.03,3.9l.18,1.07c.29,1.77-.84,3.23-3.4,4.4l-.43.07c-1.18-.13-1.79-.33-1.84-.61l-.15-.9c.01-.36.84-1.04,2.49-2.05l.06-.92c-1.86-1.63-2.87-2.87-3-3.71l-.15-.88c-.34-2.07,1.16-3.54,4.5-4.4Z"></path>
    <path class="uuid-933c47e4-fde1-4929-bedb-940bbe60523c" d="M686.86,164.6l2.76-.5c.23-.04.71.26,1.45.92l.04.23c.1.55-1.24,1.27-4.01,2.14-.62,1.31-.88,2.22-.79,2.74,1.01,2.51,2.32,3.61,3.95,3.32.88-.32,1.62-.53,2.22-.64l.51-.09c.23-.04.53.14.88.55l.17.92c.08.46-.6.98-2.05,1.55l-2,.36c-2.94.53-5.18-1.36-6.71-5.66.23-3.51,1.43-5.46,3.59-5.85Z"></path>
    <path class="uuid-933c47e4-fde1-4929-bedb-940bbe60523c" d="M696.12,158.57l.27-.05c.77.12,1.25.62,1.42,1.5.04.23-.18.53-.67.88l-1.36.26c-.26.05-.58-.14-.96-.57l-.19-.98c.09-.52.58-.87,1.49-1.04ZM696.47,163.28l.54-.11c1.45-.28,2.76,2.59,3.92,8.6l.08.41c.04.21-.27.55-.93,1.03-.97.19-1.66.04-2.06-.45-1.24-4.46-2-7.44-2.29-8.93l.74-.56Z"></path>
    <path class="uuid-933c47e4-fde1-4929-bedb-940bbe60523c" d="M710.39,160.23c2.67-.55,5.38,1.17,8.14,5.15l.29,1.42c.47,2.27-.09,3.57-1.66,3.89-.87-.22-1.37-.62-1.48-1.18-.08-.4-.2-1.47-.34-3.19-.41-1.97-2.15-3-5.25-3.08l-.3.06c-1.44.3-2.09,1.62-1.96,3.97.66,3.22.3,4.97-1.07,5.25-1.1.23-2.46-2.36-4.06-7.77l.54-.41.59-.12.99.39c.75-2.33,2.61-3.79,5.57-4.4Z"></path>
    <path class="uuid-933c47e4-fde1-4929-bedb-940bbe60523c" d="M726.27,156.11c2.3-.49,4.38,1.8,6.26,6.85l.66,3.12c.3,4.92-1.02,7.7-3.95,8.32-.73-.15-1.16-.37-1.28-.66l-.24-1.12c-.06-.28.75-1.15,2.41-2.61.67-1.14.81-2.65.42-4.52l-.22.05c-.83,1.11-1.83,1.79-2.99,2.04-3.66.04-5.76-1.23-6.31-3.81l-.14-.67c-.43-2.01.95-4.17,4.12-6.48.73-.31,1.15-.47,1.26-.5ZM723.55,163.09l.05.24c.3,1.44,1.52,2.04,3.66,1.8,1.29-.27,1.9-1.35,1.84-3.22-.09-.44-.69-1.68-1.8-3.73-2.83,1.7-4.08,3.33-3.75,4.9Z"></path>
    <path class="uuid-933c47e4-fde1-4929-bedb-940bbe60523c" d="M744.53,153.09l.53-.11c3.58-.44,5.58.33,6,2.33-1.17,3.37-2.88,5.29-5.11,5.76l.06.27c.09.4.58.57,1.48.51,1.07-.23,2.71-1.12,4.94-2.69l.27-.06c.25-.05.57.15.95.62l.05.26c-.04,2.22-1.75,3.69-5.13,4.4l-.8.17c-3.32-.05-5.27-1.47-5.86-4.27l-.34-1.59c-.1-3.29.89-5.16,2.95-5.6ZM744.45,159.19l.05.26c2.83-1.39,4.14-2.58,3.93-3.58-1.51-.24-2.44-.32-2.81-.24-1.14.68-1.53,1.87-1.17,3.56Z"></path>
    <path class="uuid-933c47e4-fde1-4929-bedb-940bbe60523c" d="M755.14,146.03l.72-.15c1.42.59,3.53,4.97,6.34,13.16-.17.79-.42,1.22-.74,1.29l-1.21.26c-1.04.22-2.54-3.23-4.48-10.36-.16.03-.59-1.19-1.29-3.68l.66-.52Z"></path>
    <path class="uuid-933c47e4-fde1-4929-bedb-940bbe60523c" d="M764.24,144.27l.27-.06c.78.11,1.26.6,1.44,1.47.05.23-.17.53-.66.89l-1.35.29c-.26.05-.58-.13-.97-.55l-.21-.98c.08-.52.57-.88,1.47-1.07ZM764.67,148.97l.54-.11c1.44-.31,2.8,2.54,4.07,8.53l.09.41c.04.21-.26.55-.91,1.04-.97.21-1.66.07-2.07-.41-1.32-4.44-2.13-7.4-2.45-8.89l.73-.57Z"></path>
    <path class="uuid-933c47e4-fde1-4929-bedb-940bbe60523c" d="M773.35,143.74l.42-.09c1.1.35,1.83,1.37,2.18,3.04l2.52-.53c1.39-.29,2.21.12,2.44,1.23.15.72-.23,1.32-1.16,1.78-1.49.02-2.49.08-3.02.2l.04.21c1.44,4.04,2.24,6.43,2.39,7.16.08.37-.35.75-1.29,1.15-1.01.21-2.29-2.43-3.87-7.94l-.42.09c-1.6.34-2.58.18-2.94-.47l-.13-.63c-.13-.6.85-1.17,2.93-1.71l-.58-2.72c-.04-.21.12-.46.49-.76Z"></path>
    <path class="uuid-933c47e4-fde1-4929-bedb-940bbe60523c" d="M787.4,152.17c2.03.31,3.24,1.38,3.64,3.23l.13.59c-.12,1.85-.74,2.89-1.87,3.13-.19.04-.43-.12-.73-.48l-.04-.19c-.07-.34.04-1.13.34-2.39-1.75.37-2.72.09-2.92-.85l-.13-.61c-.02-1.4.51-2.21,1.59-2.44Z"></path>
    <path class="uuid-933c47e4-fde1-4929-bedb-940bbe60523c" d="M803.25,139.71c1.32.04,2.05.37,2.18,1.01.11.54-.89,1.31-3.01,2.31l-.31.62.04.17c.11.5,1.17,1.75,3.21,3.75l.22,1.06c.37,1.75-.7,3.27-3.2,4.55l-.43.09c-1.18-.07-1.8-.25-1.86-.52l-.19-.89c0-.36.79-1.08,2.4-2.17l.02-.92c-1.94-1.55-2.99-2.74-3.17-3.57l-.19-.88c-.44-2.05,1-3.59,4.29-4.6Z"></path>
    <path class="uuid-933c47e4-fde1-4929-bedb-940bbe60523c" d="M812.09,138.78l.53-.11c3.58-.44,5.58.33,6,2.33-1.17,3.37-2.88,5.29-5.11,5.76l.06.27c.08.4.58.57,1.48.51,1.07-.23,2.71-1.12,4.94-2.69l.27-.06c.25-.05.57.15.95.62l.05.26c-.04,2.22-1.75,3.69-5.13,4.4l-.8.17c-3.32-.05-5.27-1.47-5.86-4.27l-.34-1.59c-.1-3.29.89-5.16,2.95-5.6ZM812.01,144.87l.05.26c2.83-1.39,4.14-2.58,3.93-3.58-1.51-.24-2.44-.32-2.81-.24-1.14.68-1.53,1.87-1.17,3.56Z"></path>
    <path class="uuid-933c47e4-fde1-4929-bedb-940bbe60523c" d="M831.39,130.28l.52-.1c1.17-.23,2.72,4.13,4.64,13.08.23,1.18-.67,1.97-2.71,2.37,0,.53-.63.91-1.88,1.16l-.26.05c-3.38.65-5.93-.7-7.63-4.05l-.25-1.27c-.61-3.16,1.04-5.5,4.96-7.03l1.02-.2,1.82-.08-.5-1.22-.35-1.79c-.05-.24.16-.55.62-.91ZM826.88,141.66c.36,1.85,1.98,2.65,4.86,2.4.98-.65,1.64-1.24,2-1.78-.67-3.45-1.8-5.28-3.41-5.48-2.74.99-3.94,2.33-3.61,4.04l.16.82Z"></path>
    <path class="uuid-933c47e4-fde1-4929-bedb-940bbe60523c" d="M853.3,126.44l.52-.09c1.18-.2,2.61,4.2,4.29,13.2.2,1.19-.73,1.95-2.77,2.29-.02.53-.66.9-1.91,1.11l-.26.04c-3.4.56-5.91-.86-7.52-4.26l-.21-1.27c-.53-3.17,1.19-5.47,5.15-6.89l1.03-.17,1.83-.04-.47-1.23-.3-1.79c-.04-.24.17-.54.64-.89ZM848.48,137.69c.31,1.86,1.9,2.7,4.79,2.53.99-.62,1.68-1.2,2.05-1.73-.57-3.47-1.66-5.32-3.26-5.57-2.76.91-4,2.23-3.72,3.94l.14.82Z"></path>
    <path class="uuid-933c47e4-fde1-4929-bedb-940bbe60523c" d="M860.74,125.22l.27-.04c.77.15,1.22.67,1.36,1.55.04.23-.2.52-.71.85l-1.37.21c-.26.04-.57-.16-.93-.61l-.15-.99c.11-.51.62-.84,1.53-.98ZM860.9,129.95l.55-.08c1.46-.22,2.65,2.7,3.57,8.75l.06.42c.03.21-.29.54-.97.99-.98.15-1.66-.03-2.04-.53-1.06-4.51-1.7-7.51-1.93-9.01l.76-.53Z"></path>
    <path class="uuid-933c47e4-fde1-4929-bedb-940bbe60523c" d="M873.27,126.66c4.09-.56,6.55,2.15,7.37,8.13l.29,2.13c.26,1.89.08,2.88-.55,2.96l-.23.03c-.44.06-.86-.68-1.28-2.23l-.1-.71-.23.03c-1.14,1.44-2.23,2.24-3.28,2.38l-.95.13c-4.25.58-6.68-1.33-7.28-5.75-.48-3.52,1.6-5.89,6.25-7.11ZM869.71,133.02c.39,2.8,1.83,4.03,4.34,3.69l.03.21c2.37-1.34,3.44-2.83,3.22-4.49-.29-2.12-1.27-3.19-2.93-3.2l-1.1.15c-2.59.85-3.77,2.07-3.56,3.64Z"></path>
    <path class="uuid-933c47e4-fde1-4929-bedb-940bbe60523c" d="M897.76,125.19c3.97-.44,6.55,2.23,7.75,8.01l.03.24c-.66.72-1.06,1.09-1.2,1.1-.94.11-1.78-1.48-2.52-4.76-1.1-1.48-2.36-2.14-3.76-1.98-1.62.18-2.68,1.34-3.16,3.47l.36,1.17.16,1.42c.09.85-.14,1.43-.69,1.76l-.88.1c-.65.07-1.22-1.78-1.72-5.57-.46-.66-1.02-1-1.67-1.02-2.55.95-3.7,2.52-3.46,4.71l.32,2.84c.03.23-.17.49-.58.78l-.88.1c-.79.09-1.64-2.93-2.56-9.07l.41-.28.65-.07c.12-.01.62.41,1.48,1.27,1.02-1.55,2.47-2.44,4.35-2.65l.88-.1c.65-.07,1.5.32,2.56,1.16,1.02-1.55,2.4-2.43,4.14-2.62ZM898.02,125.16c3.97-.44,6.55,2.23,7.75,8.01l.03.24c-.66.72-1.06,1.09-1.2,1.1-.94.11-1.78-1.48-2.52-4.76-1.1-1.48-2.36-2.14-3.76-1.98-1.62.18-2.68,1.34-3.16,3.47l.36,1.17.16,1.42c.09.85-.14,1.43-.69,1.76l-.88.1c-.65.07-1.22-1.78-1.72-5.57-.46-.66-1.02-1-1.67-1.02-2.55.95-3.7,2.52-3.45,4.71l.32,2.84c.03.23-.17.49-.58.78l-.88.1c-.79.09-1.64-2.93-2.56-9.07l.41-.28.66-.07c.12-.01.62.41,1.48,1.27,1.02-1.55,2.47-2.44,4.35-2.65l.88-.1c.65-.07,1.5.31,2.56,1.16,1.02-1.55,2.4-2.43,4.14-2.62Z"></path>
    <path class="uuid-933c47e4-fde1-4929-bedb-940bbe60523c" d="M923.81,122.55c2.72-.21,5.19,1.84,7.42,6.14l.11,1.45c.18,2.31-.54,3.53-2.14,3.65-.84-.33-1.28-.78-1.32-1.35-.03-.41-.01-1.48.06-3.2-.15-2.01-1.76-3.25-4.82-3.72l-.3.02c-1.46.11-2.28,1.34-2.44,3.69.25,3.28-.33,4.97-1.73,5.08-1.12.08-2.14-2.65-3.04-8.22l.58-.33.6-.05.94.51c1.04-2.21,3.07-3.43,6.08-3.66Z"></path>
    <path class="uuid-933c47e4-fde1-4929-bedb-940bbe60523c" d="M939.03,121.51l.47-.03.75.43c.03-.32.18-.48.45-.5l1.18-.07c2.89.63,4.39,1.98,4.5,4.03l.12,2.15c.15,2.8-1.57,4.64-5.16,5.51-4.33-.75-6.57-2.53-6.72-5.33l-.08-1.44c-.13-2.32,1.37-3.9,4.49-4.76ZM937.17,126.61v.24c.11,1.84,1.37,2.97,3.78,3.37l.47-.03c1.55-.08,2.36-1.32,2.41-3.71-.1-1.9-1.5-2.77-4.2-2.62-1.71.64-2.53,1.56-2.46,2.75Z"></path>
    <path class="uuid-933c47e4-fde1-4929-bedb-940bbe60523c" d="M958.17,120.7c2.72-.09,5.11,2.06,7.16,6.45l.05,1.45c.08,2.32-.69,3.51-2.29,3.56-.82-.37-1.24-.84-1.26-1.41-.01-.41.05-1.48.2-3.2-.07-2.01-1.62-3.32-4.66-3.92h-.3c-1.47.06-2.33,1.25-2.6,3.59.11,3.29-.54,4.95-1.94,5-1.12.04-2.02-2.74-2.7-8.34l.6-.31.61-.02.92.55c1.13-2.17,3.21-3.3,6.23-3.4Z"></path>
    <path class="uuid-933c47e4-fde1-4929-bedb-940bbe60523c" d="M971.3,119.75h.49c.16,0,.49.3.99.92l-.9,5.62c.03,2.18,1.43,3.25,4.19,3.22,1.29-.44,1.93-1.77,1.9-3.99l-.8-4.66c.32-.63.81-.95,1.46-.96,1.47.7,2.22,2.64,2.26,5.81-.57,4.37-2.25,6.57-5.04,6.6-2.78.04-4.91-1.26-6.39-3.89-.18-.86-.27-1.48-.27-1.87.44-4.52,1.15-6.79,2.11-6.8Z"></path>
    <path class="uuid-933c47e4-fde1-4929-bedb-940bbe60523c" d="M998.88,120.63c3.99.05,6.23,3.01,6.71,8.9v.24c-.75.63-1.19.95-1.33.95-.95-.01-1.59-1.69-1.92-5.03-.91-1.6-2.08-2.41-3.49-2.43-1.63-.02-2.82,1-3.56,3.06l.21,1.2-.02,1.42c0,.85-.31,1.41-.9,1.66h-.88c-.65-.02-.99-1.93-1.03-5.75-.38-.71-.89-1.11-1.53-1.22-2.64.63-3.98,2.04-4.01,4.25l-.04,2.86c0,.23-.22.46-.67.7h-.88c-.79-.02-1.27-3.12-1.43-9.32l.44-.23h.66c.12,0,.56.49,1.31,1.45,1.2-1.42,2.75-2.12,4.64-2.09h.88c.65.02,1.45.51,2.4,1.48,1.2-1.42,2.68-2.12,4.43-2.1ZM999.14,120.64c3.99.05,6.23,3.02,6.71,8.9v.24c-.75.63-1.19.95-1.33.95-.95-.01-1.59-1.69-1.92-5.03-.91-1.6-2.08-2.41-3.49-2.43-1.63-.02-2.82,1-3.56,3.06l.21,1.2-.02,1.42c0,.85-.31,1.41-.9,1.66h-.88c-.65-.02-.99-1.93-1.03-5.75-.38-.71-.89-1.11-1.53-1.22-2.64.63-3.98,2.04-4.01,4.25l-.04,2.86c0,.23-.22.46-.67.7h-.88c-.79-.02-1.27-3.12-1.43-9.32l.44-.23h.66c.12,0,.56.49,1.31,1.45,1.2-1.42,2.75-2.12,4.64-2.09h.88c.65.02,1.45.51,2.4,1.48,1.2-1.42,2.68-2.12,4.43-2.1Z"></path>
    <path class="uuid-933c47e4-fde1-4929-bedb-940bbe60523c" d="M1024.41,121.45c3.99.17,6.13,3.21,6.43,9.1v.24c-.78.61-1.23.91-1.37.9-.95-.04-1.54-1.74-1.76-5.09-.86-1.63-2-2.47-3.41-2.54-1.63-.07-2.85.91-3.65,2.94l.17,1.21-.06,1.42c-.04.85-.36,1.4-.95,1.63l-.88-.04c-.65-.03-.93-1.95-.85-5.76-.36-.72-.85-1.14-1.49-1.26-2.66.54-4.04,1.92-4.14,4.12l-.12,2.86c0,.23-.24.46-.69.68l-.88-.04c-.79-.03-1.17-3.15-1.14-9.35l.45-.22.66.03c.12,0,.55.5,1.27,1.48,1.25-1.38,2.81-2.03,4.7-1.95l.88.04c.65.03,1.43.54,2.35,1.54,1.25-1.38,2.74-2.03,4.49-1.96ZM1024.67,121.46c3.99.17,6.13,3.21,6.43,9.1v.24c-.78.61-1.23.91-1.37.91-.95-.04-1.54-1.74-1.76-5.09-.86-1.63-2-2.47-3.42-2.54-1.63-.07-2.85.91-3.65,2.94l.17,1.21-.06,1.42c-.04.85-.36,1.4-.96,1.63l-.88-.04c-.65-.03-.93-1.95-.85-5.76-.36-.72-.85-1.14-1.49-1.26-2.66.54-4.04,1.92-4.14,4.12l-.12,2.86c0,.23-.24.46-.69.68l-.88-.04c-.79-.03-1.17-3.15-1.14-9.35l.45-.22.66.03c.12,0,.55.5,1.27,1.48,1.25-1.38,2.81-2.03,4.7-1.95l.88.04c.65.03,1.43.54,2.35,1.54,1.25-1.38,2.74-2.03,4.49-1.96Z"></path>
    <path class="uuid-933c47e4-fde1-4929-bedb-940bbe60523c" d="M1035.17,121.27l.53.04,4.61,6.16.5.35c1.04-1.92,2.47-3.67,4.32-5.26l.79.05c.35.08.51.3.49.64l-.04.62c-.06.97-2.82,5.31-8.27,13-.07.97-.65,1.86-1.76,2.66l-1.05-.07c-.67-.46-.98-1.1-.93-1.91,1.03-2.19,2.42-4.56,4.18-7.12l.02-.3c-2.89-4.17-4.3-6.84-4.22-7.99.02-.29.3-.58.85-.87Z"></path>
    <path class="uuid-933c47e4-fde1-4929-bedb-940bbe60523c" d="M1064.1,124.02c2.71.26,4.8,2.7,6.27,7.31l-.14,1.44c-.22,2.31-1.13,3.39-2.73,3.24-.77-.47-1.12-.99-1.07-1.56.04-.41.24-1.46.6-3.15.19-2-1.18-3.5-4.12-4.48l-.3-.03c-1.46-.14-2.47.94-3.03,3.22-.31,3.27-1.17,4.84-2.57,4.71-1.12-.11-1.65-2.98-1.6-8.62l.63-.23.6.06.84.66c1.4-2,3.61-2.86,6.62-2.58Z"></path>
    <path class="uuid-933c47e4-fde1-4929-bedb-940bbe60523c" d="M1075.48,125.43l.55.06c1.47.16,1.86,3.29,1.19,9.38l-.05.42c-.02.21-.42.44-1.19.7-.99-.11-1.6-.46-1.83-1.04.14-4.63.3-7.7.47-9.21l.87-.31ZM1076.55,120.83l.28.03c.71.34,1.01.96.91,1.85-.03.24-.33.45-.91.64l-1.38-.15c-.26-.03-.51-.3-.74-.83l.11-1c.24-.47.82-.65,1.73-.55Z"></path>
    <path class="uuid-933c47e4-fde1-4929-bedb-940bbe60523c" d="M1083.75,122.18l.52.07c.24.03.47.32.67.87l-.23,1.81-.42,1.25,1.84-.02,1.3.16c3.32.42,5.25,2.4,5.79,5.96l-.23,1.8c-.4,3.18-2.96,4.78-7.67,4.79l-.51-.06c-.4-.05-2.05-.78-4.96-2.19.06-.51,0-.78-.17-.8,1.16-9.28,2.52-13.82,4.06-13.63ZM1082.79,134.81c.99.87,1.94,1.36,2.86,1.47,2.86-.1,4.42-1.22,4.68-3.35.25-1.98-1.3-3.4-4.65-4.25-1.4-.17-2.36,1.87-2.89,6.12Z"></path>
    <path class="uuid-933c47e4-fde1-4929-bedb-940bbe60523c" d="M1098.67,123.48l.51.07c1.04.15,1.35,2.07.95,5.75,2.16-1.22,3.93-1.73,5.33-1.53l.5.07c2.64.38,4,2.71,4.09,6.98-.59,2.89-.94,4.71-1.05,5.46l-1.12.61-1.24-.18c-.62-.43-.88-.98-.79-1.65.8-3.2,1.25-5.09,1.33-5.67-.22-1.91-.75-2.92-1.6-3.04-2.84-.41-4.8,1.34-5.87,5.26l-.47,3.25c-.04.26-.42.55-1.15.86l-.74-.11c-.64-.32-.86-1.12-.68-2.39l.44-3,.68-9.85c.35-.62.64-.92.89-.88Z"></path>
    <path class="uuid-933c47e4-fde1-4929-bedb-940bbe60523c" d="M1124.47,132.18l.53.09c3.49.92,5.06,2.38,4.71,4.39-2.34,2.69-4.64,3.84-6.89,3.45l-.05.27c-.07.41.33.75,1.19,1.02,1.07.19,2.94-.03,5.59-.66l.27.05c.25.04.47.35.65.93l-.04.26c-.86,2.04-3,2.77-6.4,2.18l-.81-.14c-3.06-1.28-4.34-3.33-3.86-6.14l.28-1.6c1.14-3.09,2.74-4.46,4.82-4.1ZM1122.12,137.8l-.05.26c3.15-.24,4.81-.86,4.98-1.86-1.31-.78-2.15-1.2-2.52-1.27-1.31.21-2.12,1.17-2.41,2.87Z"></path>
    <path class="uuid-933c47e4-fde1-4929-bedb-940bbe60523c" d="M1138.25,133.93l.48.09c.16.03.42.4.78,1.1l-2.02,5.32c-.41,2.14.74,3.47,3.46,4,1.36-.17,2.25-1.34,2.67-3.53l.16-4.72c.44-.55.98-.76,1.63-.64,1.3.98,1.64,3.03,1.04,6.15-1.44,4.16-3.53,5.98-6.28,5.45-2.73-.53-4.55-2.23-5.47-5.1,0-.88.04-1.51.11-1.89,1.35-4.34,2.5-6.42,3.45-6.24Z"></path>
    <path class="uuid-933c47e4-fde1-4929-bedb-940bbe60523c" d="M1151.59,137.45l.54.11c1.45.3,1.55,3.45.3,9.45l-.09.41c-.04.21-.46.4-1.25.59-.97-.2-1.55-.6-1.73-1.21.58-4.59,1.02-7.63,1.33-9.12l.9-.23ZM1153.08,132.97l.27.06c.67.41.91,1.05.73,1.93-.05.23-.37.42-.96.55l-1.36-.28c-.26-.05-.48-.35-.66-.89l.2-.98c.28-.44.87-.57,1.78-.39Z"></path>
    <path class="uuid-933c47e4-fde1-4929-bedb-940bbe60523c" d="M1163.32,138.86c1.19.58,1.71,1.18,1.57,1.82-.12.54-1.35.83-3.7.86l-.54.43-.04.17c-.11.5.35,2.08,1.38,4.74l-.23,1.06c-.38,1.75-1.98,2.69-4.79,2.83l-.42-.09c-1.05-.55-1.54-.97-1.48-1.24l.2-.89c.14-.33,1.17-.66,3.08-.99l.4-.83c-1.13-2.21-1.6-3.73-1.42-4.56l.19-.88c.45-2.05,2.38-2.86,5.81-2.43Z"></path>
    <path class="uuid-933c47e4-fde1-4929-bedb-940bbe60523c" d="M1182.44,144.47c3.88.94,5.39,4.33,4.55,10.18l-.06.23c-.87.45-1.37.66-1.51.62-.92-.22-1.17-2-.74-5.33-.53-1.77-1.48-2.82-2.86-3.15-1.59-.38-2.97.34-4.15,2.18l-.06,1.22-.33,1.38c-.2.83-.62,1.3-1.25,1.42l-.86-.21c-.63-.15-.54-2.09.28-5.82-.21-.77-.62-1.28-1.22-1.53-2.72.02-4.34,1.1-4.86,3.25l-.67,2.78c-.05.22-.32.4-.81.54l-.86-.21c-.77-.19-.54-3.32.69-9.4l.48-.13.64.16c.12.03.44.59.96,1.7,1.49-1.11,3.15-1.45,4.99-1l.86.21c.63.15,1.3.81,2.01,1.96,1.49-1.11,3.09-1.46,4.79-1.05ZM1182.7,144.53c3.88.94,5.39,4.33,4.55,10.18l-.06.23c-.87.45-1.37.66-1.51.62-.92-.22-1.17-2-.74-5.33-.53-1.77-1.48-2.81-2.86-3.15-1.59-.39-2.97.34-4.15,2.18l-.06,1.22-.33,1.38c-.2.83-.62,1.3-1.25,1.42l-.86-.21c-.63-.15-.54-2.09.28-5.82-.21-.77-.62-1.28-1.22-1.53-2.72.02-4.34,1.1-4.86,3.25l-.67,2.78c-.05.22-.32.4-.81.54l-.86-.21c-.77-.19-.54-3.32.69-9.4l.48-.13.64.16c.12.03.44.59.96,1.7,1.49-1.11,3.15-1.45,4.99-1l.86.21c.63.15,1.3.81,2.01,1.96,1.49-1.11,3.08-1.46,4.79-1.05Z"></path>
    <path class="uuid-933c47e4-fde1-4929-bedb-940bbe60523c" d="M1197.57,148.04l.46.12.58.65c.12-.29.32-.41.58-.33l1.15.31c2.54,1.5,3.55,3.25,3.02,5.23l-.56,2.08c-.73,2.71-2.94,3.92-6.63,3.62-3.88-2.06-5.45-4.45-4.72-7.17l.37-1.39c.6-2.24,2.52-3.28,5.75-3.12ZM1194.21,152.3l-.06.23c-.48,1.78.36,3.24,2.52,4.38l.46.12c1.5.4,2.65-.52,3.45-2.77.49-1.83-.56-3.1-3.17-3.8-1.82.07-2.89.69-3.2,1.84Z"></path>
    <path class="uuid-933c47e4-fde1-4929-bedb-940bbe60523c" d="M1217.91,149.21l.51.15c1.15.33.54,4.92-1.82,13.76-.33,1.16-1.5,1.45-3.49.87-.25.47-.98.53-2.21.17l-.25-.07c-3.31-.96-4.96-3.32-4.95-7.08l.36-1.24c.89-3.09,3.43-4.42,7.62-4l1,.29,1.66.75.1-1.31.51-1.75c.07-.24.39-.41.96-.53ZM1208.71,157.28c-.52,1.81.55,3.26,3.23,4.35,1.16-.13,2.03-.36,2.6-.68.98-3.38.79-5.52-.54-6.43-2.89-.37-4.57.29-5.05,1.96l-.23.8Z"></path>
  </g>
</svg>
