<?xml version="1.0" encoding="UTF-8"?>
<svg xmlns="http://www.w3.org/2000/svg" id="uuid-4e347173-95f7-4111-8a56-31af2e5d45b6" viewBox="0 0 104.79 122.24">
  <defs>
    <style>.uuid-6930e65e-8847-4c48-9757-49e49a663b34{fill:#3c3c3b;stroke-width:0px;}.uuid-3ea8ba04-1729-44db-a2a2-02d2e279babc{fill:none;stroke:#3c3c3b;stroke-miterlimit:10;stroke-width:2px;}</style>
  </defs>
  <g id="uuid-3a1c554b-1105-4a91-99f5-321a4f39b1fa">
    <path class="uuid-6930e65e-8847-4c48-9757-49e49a663b34" d="M15.19,6.93l1.48-.73,7.46,5.99c.6.49,1.75,1.63,1.75,1.63,0,0-.18-1.6-.21-2.39l-.23-9.56,1.48-.73.47,14.04-1.32.65L15.19,6.93Z"></path>
    <path class="uuid-6930e65e-8847-4c48-9757-49e49a663b34" d="M30.65,8.35c-.73-2.67.75-5.37,3.45-6.11,2.53-.69,5.11.88,5.83,3.51.07.26.11.56.12.58l-7.72,2.11c.74,1.77,2.51,2.53,4.26,2.05,1.07-.29,2.04-.94,2.65-1.78l.93.88c-.8,1.05-1.95,1.83-3.25,2.19-2.68.73-5.47-.52-6.27-3.44ZM38.33,5.63c-.62-1.66-2.3-2.52-3.95-2.07-1.62.44-2.61,2.01-2.35,3.79l6.3-1.72Z"></path>
    <path class="uuid-6930e65e-8847-4c48-9757-49e49a663b34" d="M43.41,11.59l.58-1c.84.71,2.01,1.06,3.16.99,1.67-.11,3.49-1.24,3.3-4.06l-.02-.31c-.35,1.1-1.64,2.08-3.53,2.2-2.7.18-4.72-1.73-4.9-4.31-.17-2.58,1.58-4.77,4.27-4.95,1.69-.11,3.27.53,3.85,1.69l-.12-1.74,1.47-.1.5,7.38c.26,3.84-2.48,5.22-4.63,5.37-1.57.11-2.95-.31-3.94-1.15ZM50.24,4.43c-.12-1.8-1.72-3.09-3.57-2.96-1.87.12-3.22,1.65-3.1,3.53.13,1.88,1.67,3.19,3.54,3.07,1.91-.13,3.27-1.63,3.13-3.63Z"></path>
    <path class="uuid-6930e65e-8847-4c48-9757-49e49a663b34" d="M54.34,4.82c.38-2.78,2.57-4.68,5.27-4.31,1.56.21,2.85,1.02,3.4,2.35l.23-1.65,1.52.21-1.29,9.47-1.52-.21.23-1.65c-.89,1.15-2.35,1.56-3.91,1.35-2.7-.37-4.3-2.81-3.92-5.55ZM62.59,5.95c.27-1.98-.98-3.7-2.84-3.95-1.94-.26-3.58,1.02-3.85,3.04-.27,2,.96,3.68,2.9,3.94,1.86.25,3.52-1.04,3.79-3.03Z"></path>
    <path class="uuid-6930e65e-8847-4c48-9757-49e49a663b34" d="M68.46,2.33l1.45.49-.52,1.54c1.02-.88,2.44-1.1,3.81-.64,2.33.79,2.9,2.51,2.09,4.89l-1.86,5.48-1.45-.49,1.79-5.3c.57-1.67.24-2.78-1.44-3.35-1.66-.56-3.25.31-3.76,1.81l-1.72,5.09-1.45-.49,3.07-9.05Z"></path>
    <path class="uuid-6930e65e-8847-4c48-9757-49e49a663b34" d="M77.12,10.47c1.39-2.42,4.46-3.19,6.96-1.75,2.5,1.44,3.38,4.48,2,6.89-1.38,2.4-4.44,3.17-6.94,1.73-2.5-1.44-3.38-4.48-2.01-6.88ZM84.71,14.83c1.01-1.75.41-3.84-1.35-4.85-1.77-1.02-3.86-.48-4.87,1.27-1,1.74-.4,3.82,1.37,4.83s3.86.48,4.86-1.26Z"></path>
    <path class="uuid-6930e65e-8847-4c48-9757-49e49a663b34" d="M86.05,115.78l-1.49.71-7.37-6.1c-.59-.5-1.73-1.65-1.73-1.65,0,0,.16,1.6.18,2.39l.09,9.57-1.49.71-.26-14.05,1.33-.63,10.75,9.05Z"></path>
    <path class="uuid-6930e65e-8847-4c48-9757-49e49a663b34" d="M70.59,114.14c.7,2.68-.81,5.36-3.53,6.07-2.54.66-5.1-.94-5.79-3.58-.07-.27-.1-.56-.11-.58l7.75-2.02c-.71-1.78-2.48-2.56-4.23-2.1-1.07.28-2.05.92-2.67,1.75l-.92-.9c.81-1.04,1.97-1.81,3.28-2.15,2.69-.7,5.46.58,6.22,3.51ZM62.88,116.78c.6,1.67,2.27,2.55,3.93,2.12,1.62-.42,2.63-1.98,2.39-3.77l-6.32,1.65Z"></path>
    <path class="uuid-6930e65e-8847-4c48-9757-49e49a663b34" d="M57.89,110.75l-.59.99c-.83-.72-2-1.09-3.14-1.02-1.67.09-3.51,1.2-3.35,4.02l.02.31c.36-1.1,1.66-2.06,3.55-2.16,2.7-.15,4.7,1.78,4.84,4.37.14,2.58-1.64,4.75-4.33,4.89-1.69.09-3.26-.57-3.83-1.73l.1,1.74-1.47.08-.41-7.38c-.21-3.84,2.54-5.19,4.69-5.31,1.57-.09,2.95.35,3.92,1.2ZM50.97,117.83c.1,1.8,1.68,3.11,3.54,3.01,1.87-.1,3.24-1.61,3.14-3.49-.1-1.88-1.63-3.21-3.5-3.11-1.91.11-3.28,1.6-3.17,3.59Z"></path>
    <path class="uuid-6930e65e-8847-4c48-9757-49e49a663b34" d="M46.87,117.39c-.42,2.77-2.65,4.64-5.33,4.23-1.55-.24-2.84-1.07-3.37-2.4l-.25,1.65-1.51-.23,1.44-9.44,1.51.23-.25,1.65c.91-1.13,2.37-1.52,3.93-1.29,2.69.41,4.25,2.87,3.83,5.61ZM38.64,116.13c-.3,1.98.92,3.71,2.77,3.99,1.93.3,3.59-.96,3.9-2.98.3-2-.91-3.69-2.84-3.99-1.85-.28-3.54.99-3.84,2.97Z"></path>
    <path class="uuid-6930e65e-8847-4c48-9757-49e49a663b34" d="M32.68,119.62l-1.44-.53.56-1.53c-1.04.85-2.47,1.04-3.83.54-2.31-.85-2.83-2.58-1.97-4.94l1.99-5.44,1.44.53-1.92,5.25c-.61,1.66-.31,2.77,1.36,3.38,1.65.6,3.26-.23,3.81-1.72l1.85-5.05,1.44.53-3.29,8.97Z"></path>
    <path class="uuid-6930e65e-8847-4c48-9757-49e49a663b34" d="M24.18,111.25c-1.47,2.37-4.56,3.03-7.01,1.51-2.45-1.52-3.23-4.59-1.76-6.96,1.46-2.35,4.56-3.02,7-1.49,2.45,1.52,3.23,4.59,1.77,6.94ZM16.75,106.63c-1.07,1.72-.54,3.82,1.19,4.89,1.73,1.07,3.85.61,4.91-1.11,1.05-1.7.53-3.8-1.2-4.88-1.73-1.08-3.85-.61-4.9,1.09Z"></path>
    <path class="uuid-3ea8ba04-1729-44db-a2a2-02d2e279babc" d="M10.03,25.76C3.88,34.7.5,45.65,1.06,57.32c.48,9.91,3.73,19.02,8.97,26.63"></path>
    <path class="uuid-3ea8ba04-1729-44db-a2a2-02d2e279babc" d="M95.96,82.12c5.39-8.59,8.29-18.85,7.77-29.74-.43-8.85-3.07-17.08-7.36-24.16"></path>
    <path class="uuid-3ea8ba04-1729-44db-a2a2-02d2e279babc" d="M35.61,39.6c7.45,1.61,12.52,5.79,14.22,13.73.88-1.06.86-2.01.99-2.89,1.1-7.26-2.05-12.99-8.71-16.07-3.49-1.62-7.14-2.68-10.91-3.37-2.58-.47-4.93-1.39-6.77-3.35-.24-.25-.47-.7-.93-.45-.33.18-.25.58-.23.89.38,6.43,1.71,12.54,6.04,17.62,2.27,2.66,5.09,4.44,8.52,5.16,2.81.58,4.8,2.12,6.17,4.64,3.63,6.66,6.1,13.74,7.97,21.06.65,2.54,1.32,5.07,1.96,7.6.18.7.4,1.36.88,1.91.98,1.14,2.2,1.57,3.67,1.25,1.34-.29,1.76-1.33,2.01-2.51,1.01-4.69,1.64-9.46,3.08-14.06,2.03-6.5,4.43-12.79,9.42-17.73,1.12-1.11,2.4-2,3.67-3.13-.78-.46-1.37-.07-1.93.13-5.83,2.09-9.64,6.39-12.53,11.64-1.82,3.31-3.15,6.82-4.08,10.5-.24.94-.22,2.45-1.45,2.44-1.1-.01-1.11-1.46-1.32-2.38-1.81-8.04-5.23-15.38-9.74-22.21-2.68-4.05-5.76-7.82-10.01-10.43Z"></path>
  </g>
</svg>
