<?xml version="1.0" encoding="UTF-8"?>
<svg xmlns="http://www.w3.org/2000/svg" id="uuid-c594ecc4-4282-45e4-b6c8-d76d959673ed" viewBox="0 0 746.66 250.83">
  <defs>
    <style>.uuid-d8f3a40b-c1a8-4c7d-ba2d-db859ce83637{fill:#fb7d28;}.uuid-d8f3a40b-c1a8-4c7d-ba2d-db859ce83637,.uuid-dfb99852-e46a-44ea-8601-a60e3205e00d,.uuid-ac6e7748-5b00-429a-bd9a-921eab2e522b{stroke-width:0px;}.uuid-dfb99852-e46a-44ea-8601-a60e3205e00d{fill:#fff1e6;}.uuid-ac6e7748-5b00-429a-bd9a-921eab2e522b{fill:#fff1e6;}</style>
  </defs>
  <g id="uuid-1426eb18-a2c2-4def-b1a5-71307292c904">
    <circle class="uuid-dfb99852-e46a-44ea-8601-a60e3205e00d" cx="99.67" cy="127.36" r="67.91"></circle>
    <circle class="uuid-dfb99852-e46a-44ea-8601-a60e3205e00d" cx="193.56" cy="127.36" r="67.91"></circle>
    <circle class="uuid-dfb99852-e46a-44ea-8601-a60e3205e00d" cx="290.56" cy="127.36" r="67.91"></circle>
    <circle class="uuid-dfb99852-e46a-44ea-8601-a60e3205e00d" cx="388.18" cy="127.36" r="67.91"></circle>
    <circle class="uuid-dfb99852-e46a-44ea-8601-a60e3205e00d" cx="456.1" cy="127.36" r="67.91"></circle>
    <circle class="uuid-dfb99852-e46a-44ea-8601-a60e3205e00d" cx="549.99" cy="127.36" r="67.91"></circle>
    <circle class="uuid-dfb99852-e46a-44ea-8601-a60e3205e00d" cx="646.99" cy="127.36" r="67.91"></circle>
    <path class="uuid-d8f3a40b-c1a8-4c7d-ba2d-db859ce83637" d="M108.1,99.99v48.3h-14.63v-48.3h14.63Z"></path>
    <path class="uuid-d8f3a40b-c1a8-4c7d-ba2d-db859ce83637" d="M135.01,126.14c-1.38-2.8-2.6-5.96-3.66-9.45h-.97c1.33,7.13,2,12.72,2,16.77v14.83h-14.63v-48.3h18.77l10.9,22.15c1.38,2.81,2.6,5.96,3.66,9.45h.97c-1.33-7.13-2-12.72-2-16.77v-14.83h14.63v48.3h-18.77l-10.9-22.15Z"></path>
    <path class="uuid-d8f3a40b-c1a8-4c7d-ba2d-db859ce83637" d="M206.49,117.93c-.41-2.53-1.32-4.27-2.73-5.21-1.4-.94-3.44-1.42-6.11-1.42-3.77,0-6.44.94-8,2.83-1.56,1.89-2.35,5.22-2.35,10s.75,8.12,2.24,10.01c1.49,1.89,4.01,2.83,7.56,2.83,3.22,0,5.6-.47,7.14-1.41,1.54-.94,2.45-2.5,2.72-4.66h-11.25v-9.87h26.15l-.21,27.25h-8.97l-.28-10.83h-1.1c-2.07,7.77-7.73,11.66-16.97,11.66-2.94,0-5.69-.46-8.25-1.38-2.55-.92-4.89-2.32-7-4.21-2.12-1.89-3.78-4.49-5-7.8-1.22-3.31-1.83-7.18-1.83-11.59s.64-8.34,1.93-11.63c1.29-3.29,3.1-5.89,5.45-7.8,2.35-1.91,5-3.31,7.97-4.21,2.97-.9,6.31-1.35,10.04-1.35,13.89,0,21.87,5.38,23.94,16.15l-15.11,2.62Z"></path>
    <path class="uuid-d8f3a40b-c1a8-4c7d-ba2d-db859ce83637" d="M258.72,99.99c5.01,0,9.07,1.21,12.18,3.62,3.11,2.42,4.66,5.9,4.66,10.45,0,3.22-.85,5.85-2.55,7.9-1.7,2.05-4.07,3.44-7.11,4.17v1.04c1.79.46,3.38,1.55,4.76,3.28,1.38,1.73,2.8,4.36,4.28,7.9l4.07,9.94h-16.35l-5.87-15.87h-10.63v15.87h-14.63v-48.3h27.19ZM246.17,121.73h9.94c3.04,0,4.55-1.63,4.55-4.9s-1.52-4.69-4.55-4.69h-9.94v9.59Z"></path>
    <path class="uuid-d8f3a40b-c1a8-4c7d-ba2d-db859ce83637" d="M322.96,99.99v12.42h-23.8v6.07h20.22v11.04h-20.22v6.35h24.5v12.42h-39.12v-48.3h38.43Z"></path>
    <path class="uuid-d8f3a40b-c1a8-4c7d-ba2d-db859ce83637" d="M353.25,99.99c16.88,0,25.32,8.05,25.32,24.15s-8.44,24.15-25.32,24.15h-20.98v-48.3h20.98ZM346.84,136.15h6.42c3.77,0,6.43-.87,7.97-2.62,1.54-1.75,2.31-4.88,2.31-9.38s-.77-7.63-2.31-9.38c-1.54-1.75-4.2-2.62-7.97-2.62h-6.42v24.01Z"></path>
    <path class="uuid-d8f3a40b-c1a8-4c7d-ba2d-db859ce83637" d="M401.14,99.99v48.3h-14.63v-48.3h14.63Z"></path>
    <path class="uuid-d8f3a40b-c1a8-4c7d-ba2d-db859ce83637" d="M449.23,99.99v12.42h-23.8v6.07h20.22v11.04h-20.22v6.35h24.5v12.42h-39.12v-48.3h38.43Z"></path>
    <path class="uuid-d8f3a40b-c1a8-4c7d-ba2d-db859ce83637" d="M475.8,126.14c-1.38-2.8-2.6-5.96-3.66-9.45h-.97c1.33,7.13,2,12.72,2,16.77v14.83h-14.63v-48.3h18.77l10.9,22.15c1.38,2.81,2.6,5.96,3.66,9.45h.97c-1.33-7.13-2-12.72-2-16.77v-14.83h14.63v48.3h-18.77l-10.9-22.15Z"></path>
    <path class="uuid-d8f3a40b-c1a8-4c7d-ba2d-db859ce83637" d="M555.7,99.99v12.9h-14.35v35.4h-14.63v-35.4h-14.35v-12.9h43.33Z"></path>
    <path class="uuid-d8f3a40b-c1a8-4c7d-ba2d-db859ce83637" d="M601.03,99.99v12.42h-23.8v6.07h20.22v11.04h-20.22v6.35h24.5v12.42h-39.12v-48.3h38.43Z"></path>
    <path class="uuid-d8f3a40b-c1a8-4c7d-ba2d-db859ce83637" d="M608.48,114.41c0-4.92,1.98-8.69,5.93-11.32s9.41-3.93,16.35-3.93,11.97,1.27,15.77,3.79c3.79,2.53,6.11,6.65,6.93,12.35l-15.04,2.21c-.09-2.39-.71-4.02-1.86-4.9-1.15-.87-3.08-1.31-5.8-1.31-2.48,0-4.19.27-5.11.79-.92.53-1.38,1.35-1.38,2.45,0,.97.3,1.69.9,2.17.6.48,1.61.82,3.04,1l10.07,1.38c2.3.32,4.29.72,5.97,1.21,1.68.48,3.4,1.23,5.17,2.24,1.77,1.01,3.13,2.46,4.07,4.35.94,1.89,1.42,4.16,1.42,6.83,0,5.01-2.04,8.83-6.11,11.45-4.07,2.62-9.88,3.93-17.42,3.93s-13.02-1.26-16.97-3.79c-3.96-2.53-6.35-6.65-7.18-12.35l15.11-2.21c.04,2.44.72,4.08,2.04,4.93,1.31.85,3.65,1.28,7,1.28,2.9,0,4.91-.25,6.04-.76,1.13-.51,1.69-1.4,1.69-2.69,0-1.01-.31-1.74-.93-2.17-.62-.44-1.64-.75-3.07-.93l-10-1.31c-1.89-.23-3.54-.53-4.97-.9-1.43-.37-2.91-.91-4.45-1.62-1.54-.71-2.81-1.58-3.79-2.59-.99-1.01-1.81-2.33-2.45-3.97-.64-1.63-.97-3.51-.97-5.62Z"></path>
    <path class="uuid-ac6e7748-5b00-429a-bd9a-921eab2e522b" d="M690.51,42.75c1.06-13,2.1-26.01,3.15-39.01.39-4.8-7.1-5.08-7.48-.27-1,12.61-2.01,25.21-3.01,37.82-.38,4.74,6.95,6.27,7.34,1.47h0Z"></path>
    <path class="uuid-ac6e7748-5b00-429a-bd9a-921eab2e522b" d="M707.55,48.73c5.96-13.83,11.98-27.63,17.85-41.5,1.86-4.39-4.62-8.06-6.55-3.63-6.07,13.91-12.02,27.88-18.02,41.82-1.9,4.42,4.81,7.73,6.72,3.3h0Z"></path>
    <path class="uuid-ac6e7748-5b00-429a-bd9a-921eab2e522b" d="M721.33,55.22c6.41-5.75,12.8-11.51,19.24-17.23,3.61-3.2-1.56-8.68-5.14-5.45-6.44,5.82-12.92,11.6-19.4,17.38-3.6,3.22,1.72,8.5,5.3,5.29h0Z"></path>
    <path class="uuid-ac6e7748-5b00-429a-bd9a-921eab2e522b" d="M727.31,75.44c5.34-.58,10.69-1.17,16.03-1.75,4.78-.52,4.23-8.01-.57-7.47-5.12.58-10.25,1.15-15.37,1.73-4.71.54-4.89,8.01-.09,7.49h0Z"></path>
    <path class="uuid-ac6e7748-5b00-429a-bd9a-921eab2e522b" d="M56.15,208.08c-1.06,13-2.1,26.01-3.15,39.01-.39,4.8,7.1,5.08,7.48.27,1-12.61,2.01-25.21,3.01-37.82.38-4.74-6.95-6.27-7.34-1.47h0Z"></path>
    <path class="uuid-ac6e7748-5b00-429a-bd9a-921eab2e522b" d="M39.11,202.11c-5.96,13.83-11.98,27.63-17.85,41.5-1.86,4.39,4.62,8.06,6.55,3.63,6.07-13.91,12.02-27.88,18.02-41.82,1.9-4.42-4.81-7.73-6.72-3.3h0Z"></path>
    <path class="uuid-ac6e7748-5b00-429a-bd9a-921eab2e522b" d="M25.33,195.61c-6.41,5.75-12.8,11.51-19.24,17.23-3.61,3.2,1.56,8.68,5.14,5.45,6.44-5.82,12.92-11.6,19.4-17.38,3.6-3.22-1.72-8.5-5.3-5.29h0Z"></path>
    <path class="uuid-ac6e7748-5b00-429a-bd9a-921eab2e522b" d="M19.35,175.39c-5.34.58-10.69,1.17-16.03,1.75-4.78.52-4.23,8.01.57,7.47,5.12-.58,10.25-1.15,15.37-1.73,4.71-.54,4.89-8.01.09-7.49h0Z"></path>
  </g>
</svg>
