<?xml version="1.0" encoding="UTF-8"?>
<svg xmlns="http://www.w3.org/2000/svg" id="uuid-7d394b05-286a-4326-bc48-dc5511a1ec5a" viewBox="0 0 328.99 412.67">
  <defs>
    <style>.uuid-e55e182d-5dc2-4868-83d8-574e579354d2{fill:#fb7d28;}.uuid-e55e182d-5dc2-4868-83d8-574e579354d2,.uuid-011602ac-d812-46f8-b2fb-2643bd22dd50,.uuid-387a12ce-bc6a-400a-9607-ae16baa14bd8,.uuid-066a78d4-ce77-4346-b524-b7aea46d51a3,.uuid-97c9b665-b580-413b-ad46-f86823b5bfe3,.uuid-94b10cc1-c73f-425f-af89-31d9769e711d{stroke-width:0px;}.uuid-011602ac-d812-46f8-b2fb-2643bd22dd50{fill:#6e4af4;}.uuid-387a12ce-bc6a-400a-9607-ae16baa14bd8{fill:#fb7e21;}.uuid-066a78d4-ce77-4346-b524-b7aea46d51a3{fill:#e84db5;}.uuid-97c9b665-b580-413b-ad46-f86823b5bfe3{fill:#5f5e5c;}.uuid-909f487b-9bf2-4abe-8822-5e1b7afd72c3{fill:#000;stroke:#61605b;stroke-miterlimit:10;stroke-width:.75px;}.uuid-94b10cc1-c73f-425f-af89-31d9769e711d{fill:#fff;}</style>
  </defs>
  <g id="uuid-4e2f968d-7694-40ee-a7de-3681bcee458e">
    <path class="uuid-387a12ce-bc6a-400a-9607-ae16baa14bd8" d="M71.04,128.42c0-4.11,2.22-7.01,5.43-7.01s5.41,2.9,5.41,7.01-2.22,7.01-5.41,7.01-5.43-2.9-5.43-7.01ZM78.95,128.42c0-2.64-.84-4.49-2.48-4.49s-2.52,1.85-2.52,4.49.86,4.49,2.52,4.49,2.48-1.85,2.48-4.49Z"></path>
    <path class="uuid-387a12ce-bc6a-400a-9607-ae16baa14bd8" d="M88.83,137.01l1.05-1.76c.84.65,2.06.94,3.04.94,1.95,0,2.94-1.17,3.02-2.85.02-.06.02-.15.02-.23-.46.82-1.59,1.55-3.15,1.55-2.92,0-4.74-2.27-4.74-5.06s1.83-5.08,4.74-5.08c1.34,0,2.73.59,3.29,1.64v-1.43h2.66v7.95c0,3.44-2.08,5.62-5.56,5.62-1.89,0-3.42-.5-4.38-1.3ZM95.98,129.54c0-1.47-1.09-2.58-2.54-2.58s-2.52,1.11-2.52,2.64,1.09,2.6,2.52,2.6,2.54-1.09,2.54-2.66Z"></path>
    <path class="uuid-97c9b665-b580-413b-ad46-f86823b5bfe3" d="M53.89,144.94h2l5.32,11.8h-2.15l-.93-2.04h-6.48l-.93,2.04h-2.15l5.32-11.8ZM57.41,153.03l-1.35-3.06c-.51-1.17-1.17-2.75-1.17-2.75,0,0-.64,1.57-1.17,2.75l-1.35,3.06h5.02Z"></path>
    <path class="uuid-97c9b665-b580-413b-ad46-f86823b5bfe3" d="M62,155.14l5.86-7.12c.67-.84,1.13-1.26,1.13-1.26h-6.68v-1.82h9.3v1.62l-5.66,6.88c-.73.87-1.29,1.47-1.29,1.47h7.14v1.82h-9.79v-1.6Z"></path>
    <path class="uuid-97c9b665-b580-413b-ad46-f86823b5bfe3" d="M73.5,152.04v-7.1h2.11v6.99c0,1.95,1.09,3.06,2.91,3.06s2.89-1.11,2.89-3.06v-6.99h2.11v7.1c0,3.04-1.97,4.88-5.01,4.88s-5.02-1.84-5.02-4.88ZM78.89,141.45h2.08l-1.89,2.68h-1.8l1.62-2.68Z"></path>
    <path class="uuid-97c9b665-b580-413b-ad46-f86823b5bfe3" d="M85.46,150.82c0-3.35,2.64-6.06,6.21-6.06,1.53,0,2.93.51,3.97,1.38l-1.22,1.42c-.8-.62-1.67-.89-2.6-.89-2.44,0-4.15,1.89-4.15,4.15s1.71,4.19,4.02,4.19c1.15,0,2.2-.42,2.97-1.17l1.29,1.46c-1.09,1-2.58,1.62-4.28,1.62-3.57,0-6.21-2.71-6.21-6.1Z"></path>
    <path class="uuid-97c9b665-b580-413b-ad46-f86823b5bfe3" d="M101.97,144.94h2l5.32,11.8h-2.15l-.93-2.04h-6.48l-.93,2.04h-2.15l5.32-11.8ZM105.49,153.03l-1.35-3.06c-.51-1.17-1.17-2.75-1.17-2.75,0,0-.64,1.57-1.17,2.75l-1.35,3.06h5.02Z"></path>
    <path class="uuid-97c9b665-b580-413b-ad46-f86823b5bfe3" d="M110.75,144.94h4.99c3.39,0,5.19,2.02,5.19,4.51,0,1.58-.86,3.08-2.42,3.82l2.6,3.46h-2.46l-2.06-2.88c-.33.05-.69.09-1.06.09h-2.68v2.79h-2.11v-11.8ZM115.83,152.13c1.69,0,2.88-1.2,2.88-2.68s-1.18-2.71-2.86-2.71h-2.99v5.39h2.97Z"></path>
    <path class="uuid-387a12ce-bc6a-400a-9607-ae16baa14bd8" d="M61.43,202.85l-2.94,1.91-1.26-1.97,4.49-3.57h2.52v13.6h-2.81v-9.97Z"></path>
    <path class="uuid-387a12ce-bc6a-400a-9607-ae16baa14bd8" d="M74.02,210.2h-6.4v-1.91l5.1-9.48,2.35,1.18-4.15,7.72h3.11v-2.96h2.71v2.96h1.62v2.5h-1.62v2.62h-2.71v-2.62Z"></path>
    <path class="uuid-387a12ce-bc6a-400a-9607-ae16baa14bd8" d="M81.17,209.99h2.54l-1.99,5.71h-1.78l1.24-5.71Z"></path>
    <path class="uuid-387a12ce-bc6a-400a-9607-ae16baa14bd8" d="M85.83,211.64l1.07-2.08c.73.59,2.06,1.05,3.21,1.05,1.89,0,2.77-1.05,2.77-2.18,0-1.45-1.32-2.16-3-2.16-.97,0-1.91.36-2.5.69l-1.03-.94v-6.8h8.67v2.5h-5.85v2.5c.48-.15,1.03-.23,1.59-.23,2.71,0,5.04,1.47,5.04,4.3s-2.27,4.74-5.6,4.74c-1.87,0-3.34-.57-4.36-1.38Z"></path>
    <path class="uuid-387a12ce-bc6a-400a-9607-ae16baa14bd8" d="M102.95,214.6l1.05-1.76c.84.65,2.06.94,3.04.94,1.95,0,2.94-1.17,3.02-2.85.02-.06.02-.15.02-.23-.46.82-1.59,1.55-3.15,1.55-2.92,0-4.74-2.27-4.74-5.06s1.83-5.08,4.74-5.08c1.34,0,2.73.59,3.29,1.64v-1.43h2.66v7.95c0,3.44-2.08,5.62-5.56,5.62-1.89,0-3.42-.5-4.38-1.3ZM110.1,207.13c0-1.47-1.09-2.58-2.54-2.58s-2.52,1.11-2.52,2.64,1.09,2.6,2.52,2.6,2.54-1.09,2.54-2.66Z"></path>
    <path class="uuid-97c9b665-b580-413b-ad46-f86823b5bfe3" d="M60.15,222.54h8.68v1.82h-6.57v2.88h5.55v1.8h-5.55v5.3h-2.11v-11.8Z"></path>
    <path class="uuid-97c9b665-b580-413b-ad46-f86823b5bfe3" d="M70.34,222.54h2.11v11.8h-2.11v-11.8Z"></path>
    <path class="uuid-97c9b665-b580-413b-ad46-f86823b5bfe3" d="M74.97,222.54h5.5c1.95,0,3.53.91,3.53,2.99,0,.93-.58,1.78-1.24,2.11,1.35.29,2.35,1.49,2.35,3.02,0,2.42-1.84,3.68-4.48,3.68h-5.66v-11.8ZM80.36,227c.91,0,1.44-.49,1.44-1.29s-.51-1.35-1.53-1.35h-3.19v2.64h3.28ZM80.48,232.51c1.47,0,2.42-.6,2.42-1.82s-.87-1.89-2.22-1.89h-3.6v3.71h3.4Z"></path>
    <path class="uuid-97c9b665-b580-413b-ad46-f86823b5bfe3" d="M87.2,222.54h4.99c3.39,0,5.19,2.02,5.19,4.51,0,1.58-.86,3.08-2.42,3.82l2.6,3.46h-2.46l-2.06-2.88c-.33.05-.69.09-1.06.09h-2.68v2.79h-2.11v-11.8ZM92.28,229.73c1.69,0,2.88-1.2,2.88-2.68s-1.18-2.71-2.86-2.71h-2.99v5.39h2.97Z"></path>
    <path class="uuid-97c9b665-b580-413b-ad46-f86823b5bfe3" d="M103.6,222.54h2l5.32,11.8h-2.15l-.93-2.04h-6.48l-.93,2.04h-2.15l5.32-11.8ZM107.12,230.62l-1.35-3.06c-.51-1.17-1.17-2.75-1.17-2.75,0,0-.64,1.57-1.17,2.75l-1.35,3.06h5.02Z"></path>
    <path class="uuid-387a12ce-bc6a-400a-9607-ae16baa14bd8" d="M79.04,274.38l-2.94,1.91-1.26-1.97,4.49-3.57h2.52v13.6h-2.81v-9.97Z"></path>
    <path class="uuid-387a12ce-bc6a-400a-9607-ae16baa14bd8" d="M85.04,280.38c0-1.47.75-2.75,2.2-3.36-.92-.61-1.38-1.59-1.38-2.81,0-2.08,1.66-3.67,4.41-3.67s4.39,1.59,4.39,3.67c0,1.22-.46,2.2-1.38,2.81,1.45.61,2.2,1.89,2.2,3.36,0,2.48-1.97,4.2-5.2,4.2s-5.22-1.72-5.22-4.2ZM92.51,280.13c0-1.11-.78-2.04-2.25-2.04s-2.27.92-2.27,2.04.82,1.97,2.27,1.97,2.25-.86,2.25-1.97ZM92.07,274.55c0-.9-.65-1.66-1.8-1.66s-1.8.75-1.8,1.66.59,1.68,1.8,1.68,1.8-.8,1.8-1.68Z"></path>
    <path class="uuid-97c9b665-b580-413b-ad46-f86823b5bfe3" d="M62.46,294.07h2.11v6.97s.76-1.09,1.27-1.71l4.22-5.26h2.49l-4.35,5.52,4.81,6.28h-2.48l-3.66-4.82-2.31,2.79v2.04h-2.11v-11.8Z"></path>
    <path class="uuid-97c9b665-b580-413b-ad46-f86823b5bfe3" d="M73.71,299.95c0-3.35,2.64-6.06,6.21-6.06,1.53,0,2.93.51,3.97,1.38l-1.22,1.42c-.8-.62-1.67-.89-2.6-.89-2.44,0-4.15,1.89-4.15,4.15s1.71,4.19,4.02,4.19c1.15,0,2.2-.42,2.97-1.17l1.29,1.46c-1.09,1-2.58,1.62-4.28,1.62-3.57,0-6.21-2.71-6.21-6.1Z"></path>
    <path class="uuid-97c9b665-b580-413b-ad46-f86823b5bfe3" d="M90.22,294.07h2l5.32,11.8h-2.15l-.93-2.04h-6.48l-.93,2.04h-2.15l5.32-11.8ZM93.74,302.15l-1.35-3.06c-.51-1.17-1.17-2.75-1.17-2.75,0,0-.64,1.57-1.17,2.75l-1.35,3.06h5.02Z"></path>
    <path class="uuid-97c9b665-b580-413b-ad46-f86823b5bfe3" d="M99,294.07h2.11v9.98h7.06v1.82h-9.17v-11.8Z"></path>
    <line class="uuid-909f487b-9bf2-4abe-8822-5e1b7afd72c3" y1="85.79" x2="328.99" y2="85.79"></line>
    <path class="uuid-387a12ce-bc6a-400a-9607-ae16baa14bd8" d="M37,352.89c0-3.86,2.98-6.99,7.18-6.99,1.87,0,3.54.63,4.76,1.72l-1.8,1.97c-.92-.8-1.87-1.03-2.79-1.03-2.48,0-4.28,1.93-4.28,4.32s1.76,4.38,4.17,4.38c1.26,0,2.41-.48,3.25-1.41l1.83,2.06c-1.3,1.26-3.06,2.01-5.14,2.01-4.2,0-7.18-3.13-7.18-7.05Z"></path>
    <path class="uuid-387a12ce-bc6a-400a-9607-ae16baa14bd8" d="M50.34,352.91c0-3.88,3-7.01,7.2-7.01s7.2,3.13,7.2,7.01-3,7.03-7.2,7.03-7.2-3.13-7.2-7.03ZM61.67,352.91c0-2.41-1.74-4.34-4.11-4.34s-4.15,1.93-4.15,4.34,1.76,4.36,4.15,4.36,4.11-1.93,4.11-4.36Z"></path>
    <path class="uuid-387a12ce-bc6a-400a-9607-ae16baa14bd8" d="M66.93,346.11h2.94v11.08h7.87v2.52h-10.8v-13.6Z"></path>
    <path class="uuid-387a12ce-bc6a-400a-9607-ae16baa14bd8" d="M78.95,352.91c0-3.88,3-7.01,7.2-7.01s7.2,3.13,7.2,7.01-3,7.03-7.2,7.03-7.2-3.13-7.2-7.03ZM90.28,352.91c0-2.41-1.74-4.34-4.11-4.34s-4.15,1.93-4.15,4.34,1.76,4.36,4.15,4.36,4.11-1.93,4.11-4.36Z"></path>
    <path class="uuid-387a12ce-bc6a-400a-9607-ae16baa14bd8" d="M95.55,346.11h5.83c4.01,0,6.11,2.35,6.11,5.27,0,1.74-.9,3.42-2.58,4.32l2.83,4.01h-3.38l-2.1-3.19c-.4.06-.75.11-1.15.11h-2.62v3.08h-2.94v-13.6ZM101.47,354.11c1.72,0,2.92-1.24,2.92-2.73s-1.2-2.77-2.9-2.77h-3v5.5h2.98Z"></path>
    <path class="uuid-387a12ce-bc6a-400a-9607-ae16baa14bd8" d="M109.61,346.11h10.64v2.52h-7.7v2.77h7.3v2.5h-7.3v3.29h7.99v2.52h-10.93v-13.6Z"></path>
    <path class="uuid-387a12ce-bc6a-400a-9607-ae16baa14bd8" d="M121.84,358.09l1.07-2.27c1.09.8,2.39,1.49,4.47,1.49,1.13,0,2.52-.52,2.52-1.59s-1.22-1.32-2.41-1.62c-2.54-.59-5.16-1.45-5.16-4.28,0-2.62,2.46-3.92,5.06-3.92,2.06,0,3.61.55,4.97,1.45l-1.07,2.27c-1.09-.71-2.52-1.09-3.9-1.09-.71,0-2.06.27-2.06,1.3,0,.88.99,1.2,2.33,1.51,2.41.57,5.31,1.47,5.31,4.38s-2.85,4.22-5.58,4.22c-3.25,0-4.78-1.24-5.54-1.85Z"></path>
    <path class="uuid-387a12ce-bc6a-400a-9607-ae16baa14bd8" d="M32.31,375.08l-5.12-7.45h3.36l2.2,3.23c.57.82,1.03,1.72,1.03,1.72,0,0,.52-.92,1.05-1.72l2.12-3.23h3.36l-5.06,7.43v6.17h-2.94v-6.15Z"></path>
    <path class="uuid-387a12ce-bc6a-400a-9607-ae16baa14bd8" d="M45.95,379.61l1.07-2.27c1.09.8,2.39,1.49,4.47,1.49,1.13,0,2.52-.52,2.52-1.59s-1.22-1.32-2.41-1.62c-2.54-.59-5.16-1.45-5.16-4.28,0-2.62,2.46-3.92,5.06-3.92,2.06,0,3.61.55,4.97,1.45l-1.07,2.27c-1.09-.71-2.52-1.09-3.9-1.09-.71,0-2.06.27-2.06,1.3,0,.88.99,1.2,2.33,1.51,2.41.57,5.31,1.47,5.31,4.38s-2.85,4.22-5.58,4.22c-3.25,0-4.78-1.24-5.54-1.85Z"></path>
    <path class="uuid-387a12ce-bc6a-400a-9607-ae16baa14bd8" d="M64.11,367.63h2.9l5.92,13.6h-2.98l-.92-2.16h-6.9l-.92,2.16h-3l5.92-13.6ZM68.1,376.78l-1.57-3.88c-.42-1.03-.94-2.39-.96-2.43-.02.04-.55,1.41-.96,2.43l-1.57,3.88h5.08Z"></path>
    <path class="uuid-387a12ce-bc6a-400a-9607-ae16baa14bd8" d="M74.48,367.63h6.42c2.25,0,4.24.94,4.24,3.55,0,.99-.61,1.99-1.34,2.41,1.47.36,2.58,1.66,2.58,3.44,0,2.87-2.27,4.2-5.27,4.2h-6.63v-13.6ZM80.69,372.83c1.03,0,1.53-.5,1.53-1.32s-.5-1.36-1.59-1.36h-3.21v2.69h3.27ZM80.96,378.71c1.41,0,2.35-.5,2.35-1.72s-.88-1.78-2.18-1.78h-3.71v3.5h3.55Z"></path>
    <path class="uuid-387a12ce-bc6a-400a-9607-ae16baa14bd8" d="M88.11,374.43c0-3.88,3-7.01,7.2-7.01s7.2,3.13,7.2,7.01-3,7.03-7.2,7.03-7.2-3.13-7.2-7.03ZM99.44,374.43c0-2.41-1.74-4.34-4.11-4.34s-4.15,1.93-4.15,4.34,1.76,4.36,4.15,4.36,4.11-1.93,4.11-4.36Z"></path>
    <path class="uuid-387a12ce-bc6a-400a-9607-ae16baa14bd8" d="M104.71,367.63h5.83c4.01,0,6.11,2.35,6.11,5.27,0,1.74-.9,3.42-2.58,4.32l2.83,4.01h-3.38l-2.1-3.19c-.4.06-.75.11-1.15.11h-2.62v3.08h-2.94v-13.6ZM110.62,375.62c1.72,0,2.92-1.24,2.92-2.73s-1.2-2.77-2.9-2.77h-3v5.5h2.98Z"></path>
    <path class="uuid-387a12ce-bc6a-400a-9607-ae16baa14bd8" d="M118.76,367.63h10.64v2.52h-7.7v2.77h7.3v2.5h-7.3v3.29h7.99v2.52h-10.93v-13.6Z"></path>
    <path class="uuid-387a12ce-bc6a-400a-9607-ae16baa14bd8" d="M130.99,379.61l1.07-2.27c1.09.8,2.39,1.49,4.47,1.49,1.13,0,2.52-.52,2.52-1.59s-1.22-1.32-2.41-1.62c-2.54-.59-5.16-1.45-5.16-4.28,0-2.62,2.46-3.92,5.06-3.92,2.06,0,3.61.55,4.97,1.45l-1.07,2.27c-1.09-.71-2.52-1.09-3.9-1.09-.71,0-2.06.27-2.06,1.3,0,.88.99,1.2,2.33,1.51,2.41.57,5.31,1.47,5.31,4.38s-2.85,4.22-5.58,4.22c-3.25,0-4.78-1.24-5.54-1.85Z"></path>
    <path class="uuid-97c9b665-b580-413b-ad46-f86823b5bfe3" d="M33.09,390.95h2.15l4.22,5.79c.84,1.15,1.8,2.79,1.8,2.79v-8.57h2.11v11.8h-2.18l-4.02-5.5c-1.02-1.4-1.97-3-1.97-3v8.5h-2.11v-11.8Z"></path>
    <path class="uuid-97c9b665-b580-413b-ad46-f86823b5bfe3" d="M50.15,390.95h2l5.32,11.8h-2.15l-.93-2.04h-6.48l-.93,2.04h-2.15l5.32-11.8ZM53.67,399.03l-1.35-3.06c-.51-1.17-1.17-2.75-1.17-2.75,0,0-.64,1.57-1.17,2.75l-1.35,3.06h5.02Z"></path>
    <path class="uuid-97c9b665-b580-413b-ad46-f86823b5bfe3" d="M60.77,392.77h-4.15v-1.82h10.41v1.82h-4.15v9.98h-2.11v-9.98Z"></path>
    <path class="uuid-97c9b665-b580-413b-ad46-f86823b5bfe3" d="M68.56,398.04v-7.1h2.11v6.99c0,1.95,1.09,3.06,2.91,3.06s2.89-1.11,2.89-3.06v-6.99h2.11v7.1c0,3.04-1.97,4.88-5.01,4.88s-5.02-1.84-5.02-4.88Z"></path>
    <path class="uuid-97c9b665-b580-413b-ad46-f86823b5bfe3" d="M80.98,390.95h4.99c3.39,0,5.19,2.02,5.19,4.51,0,1.58-.86,3.08-2.42,3.82l2.6,3.46h-2.46l-2.06-2.88c-.33.05-.69.09-1.06.09h-2.68v2.79h-2.11v-11.8ZM86.05,398.14c1.69,0,2.88-1.2,2.88-2.68s-1.18-2.71-2.86-2.71h-2.99v5.39h2.97Z"></path>
    <path class="uuid-97c9b665-b580-413b-ad46-f86823b5bfe3" d="M97.38,390.95h2l5.32,11.8h-2.15l-.93-2.04h-6.48l-.93,2.04h-2.15l5.32-11.8ZM100.89,399.03l-1.35-3.06c-.51-1.17-1.17-2.75-1.17-2.75,0,0-.64,1.57-1.17,2.75l-1.35,3.06h5.02Z"></path>
    <path class="uuid-97c9b665-b580-413b-ad46-f86823b5bfe3" d="M106.15,390.95h2.11v9.98h7.06v1.82h-9.17v-11.8Z"></path>
    <path class="uuid-97c9b665-b580-413b-ad46-f86823b5bfe3" d="M117.22,390.95h9.16v1.82h-7.04v2.88h6.64v1.8h-6.64v3.48h7.3v1.82h-9.41v-11.8Z"></path>
    <path class="uuid-97c9b665-b580-413b-ad46-f86823b5bfe3" d="M127.86,401.23l.82-1.6c.96.78,2.15,1.38,3.91,1.38,1.27,0,2.55-.6,2.55-1.67s-1.22-1.4-2.42-1.69c-2.17-.51-4.41-1.2-4.41-3.55,0-2.2,2.09-3.33,4.28-3.33,1.69,0,3,.47,4.19,1.27l-.82,1.62c-1.06-.67-2.15-.98-3.37-.98-.78,0-2.13.33-2.13,1.4,0,.95,1.06,1.26,2.48,1.6,2.24.53,4.41,1.37,4.41,3.66,0,2.48-2.44,3.59-4.77,3.59-2.57,0-3.93-.96-4.71-1.69Z"></path>
    <line class="uuid-909f487b-9bf2-4abe-8822-5e1b7afd72c3" x1="164.5" y1="85.79" x2="164.5" y2="412.67"></line>
    <path class="uuid-066a78d4-ce77-4346-b524-b7aea46d51a3" d="M237.52,65.15c-5.71,0-10.87,2.32-14.6,6.06-3.74-3.74-8.9-6.06-14.6-6.06s-10.87,2.32-14.6,6.06c-3.74-3.74-8.9-6.06-14.6-6.06s-10.87,2.32-14.6,6.06c-3.74-3.74-8.9-6.06-14.6-6.06s-10.87,2.32-14.6,6.06c-3.74-3.74-8.9-6.06-14.6-6.06s-10.87,2.32-14.6,6.06c-3.74-3.74-8.9-6.06-14.6-6.06-11.4,0-20.64,9.24-20.64,20.64s9.24,20.64,20.64,20.64c5.71,0,10.87-2.32,14.6-6.06,3.74,3.74,8.9,6.06,14.6,6.06s10.87-2.32,14.6-6.06c3.74,3.74,8.9,6.06,14.6,6.06s10.87-2.32,14.6-6.06c3.74,3.74,8.9,6.06,14.6,6.06s10.87-2.32,14.6-6.06c3.74,3.74,8.9,6.06,14.6,6.06s10.87-2.32,14.6-6.06c3.74,3.74,8.9,6.06,14.6,6.06,11.4,0,20.64-9.24,20.64-20.64s-9.24-20.64-20.64-20.64Z"></path>
    <path class="uuid-94b10cc1-c73f-425f-af89-31d9769e711d" d="M95.54,80.26c1.29,0,2.31.32,3.06.96.75.64,1.12,1.63,1.12,2.96s-.37,2.26-1.12,2.88c-.75.62-1.77.93-3.06.93h-2.29v3.11h-3.28v-10.84h5.57ZM93.25,85.4h2c.35,0,.62-.09.81-.27s.29-.5.29-.95c0-.79-.37-1.19-1.1-1.19h-2v2.42Z"></path>
    <path class="uuid-94b10cc1-c73f-425f-af89-31d9769e711d" d="M101.39,88.29c-.29-.74-.43-1.61-.43-2.61s.14-1.87.43-2.61.7-1.32,1.23-1.75c.53-.43,1.14-.74,1.83-.94s1.46-.3,2.31-.3,1.63.1,2.32.3,1.29.52,1.83.94c.53.43.94,1.01,1.23,1.75s.43,1.61.43,2.61-.14,1.87-.43,2.61c-.29.74-.7,1.32-1.23,1.75-.53.43-1.14.74-1.83.94s-1.46.3-2.32.3-1.63-.1-2.31-.3-1.3-.52-1.83-.94c-.53-.43-.94-1.01-1.23-1.75ZM104.88,83.42c-.36.42-.54,1.17-.54,2.25s.18,1.83.54,2.25c.36.42.99.63,1.89.63s1.53-.21,1.89-.63c.36-.42.54-1.17.54-2.25s-.18-1.83-.54-2.25c-.36-.42-.99-.63-1.89-.63s-1.53.21-1.89.63Z"></path>
    <path class="uuid-94b10cc1-c73f-425f-af89-31d9769e711d" d="M120.45,80.26c1.12,0,2.04.27,2.73.81.7.54,1.04,1.32,1.04,2.35,0,.72-.19,1.31-.57,1.77-.38.46-.91.77-1.59.94v.23c.4.1.76.35,1.07.74.31.39.63.98.96,1.77l.91,2.23h-3.67l-1.32-3.56h-2.38v3.56h-3.28v-10.84h6.1ZM117.63,85.14h2.23c.68,0,1.02-.37,1.02-1.1s-.34-1.05-1.02-1.05h-2.23v2.15Z"></path>
    <path class="uuid-94b10cc1-c73f-425f-af89-31d9769e711d" d="M133.41,83.42c-.31.42-.46,1.17-.46,2.25s.16,1.83.46,2.25c.31.42.86.63,1.64.63.69,0,1.18-.13,1.46-.4.28-.27.46-.75.53-1.46l3.38.5c-.23,1.47-.8,2.51-1.72,3.14s-2.14.94-3.65.94c-1.67,0-3-.45-3.99-1.34-.99-.89-1.49-2.32-1.49-4.27,0-1,.14-1.87.41-2.61.27-.74.66-1.32,1.17-1.75.51-.43,1.08-.74,1.73-.94.64-.2,1.37-.3,2.17-.3,1.52,0,2.74.31,3.65.94s1.49,1.68,1.72,3.14l-3.38.5c-.07-.7-.25-1.19-.53-1.46-.28-.27-.77-.4-1.46-.4-.78,0-1.33.21-1.64.63Z"></path>
    <path class="uuid-94b10cc1-c73f-425f-af89-31d9769e711d" d="M140.97,91.1l3.79-10.84h4.57l3.79,10.84h-3.59l-.76-2.25h-3.5l-.76,2.25h-3.55ZM146.11,86.33h1.83c-.36-1.1-.62-2.42-.79-3.96h-.25c-.19,1.58-.45,2.9-.79,3.96Z"></path>
    <path class="uuid-94b10cc1-c73f-425f-af89-31d9769e711d" d="M159.15,80.26c3.79,0,5.68,1.81,5.68,5.42s-1.89,5.42-5.68,5.42h-4.71v-10.84h4.71ZM157.71,88.37h1.44c.85,0,1.44-.2,1.79-.59s.52-1.09.52-2.11-.17-1.71-.52-2.11c-.35-.39-.94-.59-1.79-.59h-1.44v5.39Z"></path>
    <path class="uuid-94b10cc1-c73f-425f-af89-31d9769e711d" d="M165.37,91.1l3.79-10.84h4.57l3.79,10.84h-3.59l-.76-2.25h-3.5l-.76,2.25h-3.55ZM170.51,86.33h1.83c-.36-1.1-.62-2.42-.79-3.96h-.25c-.19,1.58-.45,2.9-.79,3.96Z"></path>
    <path class="uuid-94b10cc1-c73f-425f-af89-31d9769e711d" d="M188.49,80.26v8h2.15v2.83h-8.28v-2.83h2.97v-3.05c0-.88.07-1.55.22-2.01l-.2-.14c-.08.18-.25.37-.52.57-.26.21-.55.37-.86.48l-.87.31-.29-2.79,3.31-1.38h2.37Z"></path>
    <path class="uuid-94b10cc1-c73f-425f-af89-31d9769e711d" d="M201.23,85.66c0,1.99-.41,3.43-1.22,4.3-.81.88-1.98,1.32-3.52,1.32s-2.71-.44-3.52-1.32c-.81-.88-1.22-2.31-1.22-4.3s.41-3.41,1.22-4.28c.81-.87,1.98-1.31,3.52-1.31s2.71.44,3.52,1.31c.81.87,1.22,2.3,1.22,4.28ZM194.95,85.66c0,.88.05,1.54.15,1.99s.26.76.47.92c.21.17.52.25.92.25s.71-.08.92-.25c.21-.17.37-.47.47-.92s.16-1.11.16-1.99c0-1.26-.11-2.09-.33-2.5-.22-.41-.63-.61-1.22-.61s-.99.2-1.22.61c-.22.41-.33,1.24-.33,2.5Z"></path>
    <path class="uuid-94b10cc1-c73f-425f-af89-31d9769e711d" d="M211.3,85.66c0,1.99-.41,3.43-1.22,4.3-.81.88-1.98,1.32-3.52,1.32s-2.71-.44-3.52-1.32c-.81-.88-1.22-2.31-1.22-4.3s.41-3.41,1.22-4.28c.81-.87,1.98-1.31,3.52-1.31s2.71.44,3.52,1.31c.81.87,1.22,2.3,1.22,4.28ZM205.01,85.66c0,.88.05,1.54.15,1.99s.26.76.47.92c.21.17.52.25.92.25s.71-.08.92-.25c.21-.17.37-.47.47-.92s.16-1.11.16-1.99c0-1.26-.11-2.09-.33-2.5-.22-.41-.63-.61-1.22-.61s-.99.2-1.22.61c-.22.41-.33,1.24-.33,2.5Z"></path>
    <path class="uuid-94b10cc1-c73f-425f-af89-31d9769e711d" d="M223.37,84.28c-.09-.57-.3-.96-.61-1.17-.32-.21-.77-.32-1.37-.32-.85,0-1.45.21-1.8.63-.35.42-.53,1.17-.53,2.25s.17,1.82.5,2.25c.34.42.9.63,1.7.63.72,0,1.26-.11,1.6-.32.35-.21.55-.56.61-1.05h-2.52v-2.21h5.87l-.05,6.12h-2.01l-.06-2.43h-.25c-.46,1.74-1.73,2.62-3.81,2.62-.66,0-1.28-.1-1.85-.31-.57-.21-1.1-.52-1.57-.94-.47-.42-.85-1.01-1.12-1.75-.27-.74-.41-1.61-.41-2.6s.14-1.87.43-2.61.7-1.32,1.22-1.75c.53-.43,1.12-.74,1.79-.94.67-.2,1.42-.3,2.25-.3,3.12,0,4.91,1.21,5.37,3.62l-3.39.59Z"></path>
    <path class="uuid-94b10cc1-c73f-425f-af89-31d9769e711d" d="M235.09,80.26c1.12,0,2.04.27,2.73.81.7.54,1.04,1.32,1.04,2.35,0,.72-.19,1.31-.57,1.77-.38.46-.91.77-1.59.94v.23c.4.1.76.35,1.07.74.31.39.63.98.96,1.77l.91,2.23h-3.67l-1.32-3.56h-2.38v3.56h-3.28v-10.84h6.1ZM232.28,85.14h2.23c.68,0,1.02-.37,1.02-1.1s-.34-1.05-1.02-1.05h-2.23v2.15Z"></path>
    <line class="uuid-909f487b-9bf2-4abe-8822-5e1b7afd72c3" y1="179.9" x2="328.99" y2="179.9"></line>
    <line class="uuid-909f487b-9bf2-4abe-8822-5e1b7afd72c3" y1="253.38" x2="328.99" y2="253.38"></line>
    <line class="uuid-909f487b-9bf2-4abe-8822-5e1b7afd72c3" y1="326.85" x2="328.99" y2="326.85"></line>
    <path class="uuid-011602ac-d812-46f8-b2fb-2643bd22dd50" d="M223.64,132.71h-6.4v-1.91l5.1-9.48,2.35,1.18-4.15,7.72h3.11v-2.96h2.71v2.96h1.62v2.5h-1.62v2.62h-2.71v-2.62Z"></path>
    <path class="uuid-011602ac-d812-46f8-b2fb-2643bd22dd50" d="M239.62,126.35c0,1.3-.48,2.62-1.3,3.71l-4.13,5.56-2.22-1.51,2.37-3.13c-.13.02-.29.04-.4.04-2.67,0-4.62-2.04-4.62-4.53,0-2.81,1.95-4.97,5.16-4.97s5.14,2.08,5.14,4.83ZM232.26,126.37c0,1.26.88,2.29,2.22,2.29s2.2-1.03,2.2-2.29c0-1.34-.8-2.37-2.2-2.37s-2.22,1.03-2.22,2.37Z"></path>
    <path class="uuid-011602ac-d812-46f8-b2fb-2643bd22dd50" d="M242.37,132.5h2.54l-1.99,5.71h-1.78l1.24-5.71Z"></path>
    <path class="uuid-011602ac-d812-46f8-b2fb-2643bd22dd50" d="M246.71,131.36c0-1.47.75-2.75,2.2-3.36-.92-.61-1.38-1.59-1.38-2.81,0-2.08,1.66-3.67,4.41-3.67s4.39,1.59,4.39,3.67c0,1.22-.46,2.2-1.38,2.81,1.45.61,2.2,1.89,2.2,3.36,0,2.48-1.97,4.2-5.2,4.2s-5.22-1.72-5.22-4.2ZM254.18,131.11c0-1.11-.78-2.04-2.25-2.04s-2.27.92-2.27,2.04.82,1.97,2.27,1.97,2.25-.86,2.25-1.97ZM253.74,125.53c0-.9-.65-1.66-1.8-1.66s-1.8.75-1.8,1.66.59,1.68,1.8,1.68,1.8-.8,1.8-1.68Z"></path>
    <path class="uuid-011602ac-d812-46f8-b2fb-2643bd22dd50" d="M264.13,137.11l1.05-1.76c.84.65,2.06.94,3.04.94,1.95,0,2.94-1.17,3.02-2.85.02-.06.02-.15.02-.23-.46.82-1.59,1.55-3.15,1.55-2.92,0-4.74-2.27-4.74-5.06s1.83-5.08,4.74-5.08c1.34,0,2.73.59,3.29,1.64v-1.43h2.66v7.95c0,3.44-2.08,5.62-5.56,5.62-1.89,0-3.42-.5-4.38-1.3ZM271.28,129.64c0-1.47-1.09-2.58-2.54-2.58s-2.52,1.11-2.52,2.64,1.09,2.6,2.52,2.6,2.54-1.09,2.54-2.66Z"></path>
    <path class="uuid-97c9b665-b580-413b-ad46-f86823b5bfe3" d="M214.54,145.05h2l5.32,11.8h-2.15l-.93-2.04h-6.48l-.93,2.04h-2.15l5.32-11.8ZM218.05,153.13l-1.35-3.06c-.51-1.17-1.17-2.75-1.17-2.75,0,0-.64,1.57-1.17,2.75l-1.35,3.06h5.02Z"></path>
    <path class="uuid-97c9b665-b580-413b-ad46-f86823b5bfe3" d="M222.64,155.24l5.86-7.12c.67-.84,1.13-1.26,1.13-1.26h-6.68v-1.82h9.3v1.62l-5.66,6.88c-.73.87-1.29,1.47-1.29,1.47h7.14v1.82h-9.79v-1.6Z"></path>
    <path class="uuid-97c9b665-b580-413b-ad46-f86823b5bfe3" d="M234.15,152.15v-7.1h2.11v6.99c0,1.95,1.09,3.06,2.91,3.06s2.89-1.11,2.89-3.06v-6.99h2.11v7.1c0,3.04-1.97,4.88-5.01,4.88s-5.02-1.84-5.02-4.88ZM239.54,141.56h2.08l-1.89,2.68h-1.8l1.62-2.68Z"></path>
    <path class="uuid-97c9b665-b580-413b-ad46-f86823b5bfe3" d="M246.11,150.93c0-3.35,2.64-6.06,6.21-6.06,1.53,0,2.93.51,3.97,1.38l-1.22,1.42c-.8-.62-1.67-.89-2.6-.89-2.44,0-4.15,1.89-4.15,4.15s1.71,4.19,4.02,4.19c1.15,0,2.2-.42,2.97-1.17l1.29,1.46c-1.09,1-2.58,1.62-4.28,1.62-3.57,0-6.21-2.71-6.21-6.1Z"></path>
    <path class="uuid-97c9b665-b580-413b-ad46-f86823b5bfe3" d="M262.62,145.05h2l5.32,11.8h-2.15l-.93-2.04h-6.48l-.93,2.04h-2.15l5.32-11.8ZM266.13,153.13l-1.35-3.06c-.51-1.17-1.17-2.75-1.17-2.75,0,0-.64,1.57-1.17,2.75l-1.35,3.06h5.02Z"></path>
    <path class="uuid-97c9b665-b580-413b-ad46-f86823b5bfe3" d="M271.4,145.05h4.99c3.39,0,5.19,2.02,5.19,4.51,0,1.58-.86,3.08-2.42,3.82l2.6,3.46h-2.46l-2.06-2.88c-.33.05-.69.09-1.06.09h-2.68v2.79h-2.11v-11.8ZM276.48,152.24c1.69,0,2.88-1.2,2.88-2.68s-1.18-2.71-2.86-2.71h-2.99v5.39h2.97Z"></path>
    <path class="uuid-011602ac-d812-46f8-b2fb-2643bd22dd50" d="M231.68,206.13c0-4.11,2.22-7.01,5.43-7.01s5.41,2.9,5.41,7.01-2.22,7.01-5.41,7.01-5.43-2.9-5.43-7.01ZM239.59,206.13c0-2.64-.84-4.49-2.48-4.49s-2.52,1.85-2.52,4.49.86,4.49,2.52,4.49,2.48-1.85,2.48-4.49Z"></path>
    <path class="uuid-011602ac-d812-46f8-b2fb-2643bd22dd50" d="M249.47,214.71l1.05-1.76c.84.65,2.06.94,3.04.94,1.95,0,2.94-1.17,3.02-2.85.02-.06.02-.15.02-.23-.46.82-1.59,1.55-3.15,1.55-2.92,0-4.74-2.27-4.74-5.06s1.83-5.08,4.74-5.08c1.34,0,2.73.59,3.29,1.64v-1.43h2.66v7.95c0,3.44-2.08,5.62-5.56,5.62-1.89,0-3.42-.5-4.38-1.3ZM256.63,207.24c0-1.47-1.09-2.58-2.54-2.58s-2.52,1.11-2.52,2.64,1.09,2.6,2.52,2.6,2.54-1.09,2.54-2.66Z"></path>
    <path class="uuid-97c9b665-b580-413b-ad46-f86823b5bfe3" d="M220.79,222.65h8.68v1.82h-6.57v2.88h5.55v1.8h-5.55v5.3h-2.11v-11.8Z"></path>
    <path class="uuid-97c9b665-b580-413b-ad46-f86823b5bfe3" d="M230.99,222.65h2.11v11.8h-2.11v-11.8Z"></path>
    <path class="uuid-97c9b665-b580-413b-ad46-f86823b5bfe3" d="M235.61,222.65h5.5c1.95,0,3.53.91,3.53,2.99,0,.93-.58,1.78-1.24,2.11,1.35.29,2.35,1.49,2.35,3.02,0,2.42-1.84,3.68-4.48,3.68h-5.66v-11.8ZM241,227.11c.91,0,1.44-.49,1.44-1.29s-.51-1.35-1.53-1.35h-3.19v2.64h3.28ZM241.13,232.62c1.47,0,2.42-.6,2.42-1.82s-.87-1.89-2.22-1.89h-3.6v3.71h3.4Z"></path>
    <path class="uuid-97c9b665-b580-413b-ad46-f86823b5bfe3" d="M247.85,222.65h4.99c3.39,0,5.19,2.02,5.19,4.51,0,1.58-.86,3.08-2.42,3.82l2.6,3.46h-2.46l-2.06-2.88c-.33.05-.69.09-1.06.09h-2.68v2.79h-2.11v-11.8ZM252.93,229.84c1.69,0,2.88-1.2,2.88-2.68s-1.18-2.71-2.86-2.71h-2.99v5.39h2.97Z"></path>
    <path class="uuid-97c9b665-b580-413b-ad46-f86823b5bfe3" d="M264.25,222.65h2l5.32,11.8h-2.15l-.93-2.04h-6.48l-.93,2.04h-2.15l5.32-11.8ZM267.76,230.73l-1.35-3.06c-.51-1.17-1.17-2.75-1.17-2.75,0,0-.64,1.57-1.17,2.75l-1.35,3.06h5.02Z"></path>
    <path class="uuid-011602ac-d812-46f8-b2fb-2643bd22dd50" d="M229.49,283.07l1.2-1.93c.88.8,2.12,1.09,3.23,1.09,1.76,0,2.96-.88,2.96-2.27,0-1.07-.99-1.95-2.69-1.95-.69,0-1.26.11-1.93.48l-.94-1.66,4.11-3.48h-5.25v-2.5h8.85v2.41l-3.23,2.83c.38.02.73.11,1.09.21,1.68.48,2.9,1.83,2.9,3.76,0,3.08-2.56,4.59-5.62,4.59-1.97,0-3.61-.61-4.68-1.59Z"></path>
    <path class="uuid-011602ac-d812-46f8-b2fb-2643bd22dd50" d="M245.45,274.49l-2.94,1.91-1.26-1.97,4.49-3.57h2.52v13.6h-2.81v-9.97Z"></path>
    <path class="uuid-011602ac-d812-46f8-b2fb-2643bd22dd50" d="M251.45,280.49c0-1.47.75-2.75,2.2-3.36-.92-.61-1.38-1.59-1.38-2.81,0-2.08,1.66-3.67,4.41-3.67s4.39,1.59,4.39,3.67c0,1.22-.46,2.2-1.38,2.81,1.45.61,2.2,1.89,2.2,3.36,0,2.48-1.97,4.2-5.2,4.2s-5.22-1.72-5.22-4.2ZM258.92,280.23c0-1.11-.78-2.04-2.25-2.04s-2.27.92-2.27,2.04.82,1.97,2.27,1.97,2.25-.86,2.25-1.97ZM258.48,274.65c0-.9-.65-1.66-1.8-1.66s-1.8.75-1.8,1.66.59,1.68,1.8,1.68,1.8-.8,1.8-1.68Z"></path>
    <path class="uuid-97c9b665-b580-413b-ad46-f86823b5bfe3" d="M223.11,294.17h2.11v6.97s.76-1.09,1.27-1.71l4.22-5.26h2.49l-4.35,5.52,4.81,6.28h-2.48l-3.66-4.82-2.31,2.79v2.04h-2.11v-11.8Z"></path>
    <path class="uuid-97c9b665-b580-413b-ad46-f86823b5bfe3" d="M234.36,300.05c0-3.35,2.64-6.06,6.21-6.06,1.53,0,2.93.51,3.97,1.38l-1.22,1.42c-.8-.62-1.67-.89-2.6-.89-2.44,0-4.15,1.89-4.15,4.15s1.71,4.19,4.02,4.19c1.15,0,2.2-.42,2.97-1.17l1.29,1.46c-1.09,1-2.58,1.62-4.28,1.62-3.57,0-6.21-2.71-6.21-6.1Z"></path>
    <path class="uuid-97c9b665-b580-413b-ad46-f86823b5bfe3" d="M250.87,294.17h2l5.32,11.8h-2.15l-.93-2.04h-6.48l-.93,2.04h-2.15l5.32-11.8ZM254.38,302.25l-1.35-3.06c-.51-1.17-1.17-2.75-1.17-2.75,0,0-.64,1.57-1.17,2.75l-1.35,3.06h5.02Z"></path>
    <path class="uuid-97c9b665-b580-413b-ad46-f86823b5bfe3" d="M259.65,294.17h2.11v9.98h7.06v1.82h-9.17v-11.8Z"></path>
    <path class="uuid-011602ac-d812-46f8-b2fb-2643bd22dd50" d="M197.64,353c0-3.86,2.98-6.99,7.18-6.99,1.87,0,3.54.63,4.76,1.72l-1.8,1.97c-.92-.8-1.87-1.03-2.79-1.03-2.48,0-4.28,1.93-4.28,4.32s1.76,4.38,4.17,4.38c1.26,0,2.41-.48,3.25-1.41l1.83,2.06c-1.3,1.26-3.06,2.01-5.14,2.01-4.2,0-7.18-3.13-7.18-7.05Z"></path>
    <path class="uuid-011602ac-d812-46f8-b2fb-2643bd22dd50" d="M210.99,353.02c0-3.88,3-7.01,7.2-7.01s7.2,3.13,7.2,7.01-3,7.03-7.2,7.03-7.2-3.13-7.2-7.03ZM222.32,353.02c0-2.41-1.74-4.34-4.11-4.34s-4.15,1.93-4.15,4.34,1.76,4.36,4.15,4.36,4.11-1.93,4.11-4.36Z"></path>
    <path class="uuid-011602ac-d812-46f8-b2fb-2643bd22dd50" d="M227.58,346.22h2.94v11.08h7.87v2.52h-10.8v-13.6Z"></path>
    <path class="uuid-011602ac-d812-46f8-b2fb-2643bd22dd50" d="M239.6,353.02c0-3.88,3-7.01,7.2-7.01s7.2,3.13,7.2,7.01-3,7.03-7.2,7.03-7.2-3.13-7.2-7.03ZM250.93,353.02c0-2.41-1.74-4.34-4.11-4.34s-4.15,1.93-4.15,4.34,1.76,4.36,4.15,4.36,4.11-1.93,4.11-4.36Z"></path>
    <path class="uuid-011602ac-d812-46f8-b2fb-2643bd22dd50" d="M256.2,346.22h5.83c4.01,0,6.11,2.35,6.11,5.27,0,1.74-.9,3.42-2.58,4.32l2.83,4.01h-3.38l-2.1-3.19c-.4.06-.75.11-1.15.11h-2.62v3.08h-2.94v-13.6ZM262.11,354.21c1.72,0,2.92-1.24,2.92-2.73s-1.2-2.77-2.9-2.77h-3v5.5h2.98Z"></path>
    <path class="uuid-011602ac-d812-46f8-b2fb-2643bd22dd50" d="M270.25,346.22h10.64v2.52h-7.7v2.77h7.3v2.5h-7.3v3.29h7.99v2.52h-10.93v-13.6Z"></path>
    <path class="uuid-011602ac-d812-46f8-b2fb-2643bd22dd50" d="M282.48,358.2l1.07-2.27c1.09.8,2.39,1.49,4.47,1.49,1.13,0,2.52-.52,2.52-1.59s-1.22-1.32-2.41-1.62c-2.54-.59-5.16-1.45-5.16-4.28,0-2.62,2.46-3.92,5.06-3.92,2.06,0,3.61.55,4.97,1.45l-1.07,2.27c-1.09-.71-2.52-1.09-3.9-1.09-.71,0-2.06.27-2.06,1.3,0,.88.99,1.2,2.33,1.51,2.41.57,5.31,1.47,5.31,4.38s-2.85,4.22-5.58,4.22c-3.25,0-4.78-1.24-5.54-1.85Z"></path>
    <path class="uuid-011602ac-d812-46f8-b2fb-2643bd22dd50" d="M192.96,375.18l-5.12-7.45h3.36l2.2,3.23c.57.82,1.03,1.72,1.03,1.72,0,0,.52-.92,1.05-1.72l2.12-3.23h3.36l-5.06,7.43v6.17h-2.94v-6.15Z"></path>
    <path class="uuid-011602ac-d812-46f8-b2fb-2643bd22dd50" d="M206.59,379.72l1.07-2.27c1.09.8,2.39,1.49,4.47,1.49,1.13,0,2.52-.52,2.52-1.59s-1.22-1.32-2.41-1.62c-2.54-.59-5.16-1.45-5.16-4.28,0-2.62,2.46-3.92,5.06-3.92,2.06,0,3.61.55,4.97,1.45l-1.07,2.27c-1.09-.71-2.52-1.09-3.9-1.09-.71,0-2.06.27-2.06,1.3,0,.88.99,1.2,2.33,1.51,2.41.57,5.31,1.47,5.31,4.38s-2.85,4.22-5.58,4.22c-3.25,0-4.78-1.24-5.54-1.85Z"></path>
    <path class="uuid-011602ac-d812-46f8-b2fb-2643bd22dd50" d="M224.76,367.74h2.9l5.92,13.6h-2.98l-.92-2.16h-6.9l-.92,2.16h-3l5.92-13.6ZM228.75,376.88l-1.57-3.88c-.42-1.03-.94-2.39-.96-2.43-.02.04-.55,1.41-.96,2.43l-1.57,3.88h5.08Z"></path>
    <path class="uuid-011602ac-d812-46f8-b2fb-2643bd22dd50" d="M235.12,367.74h6.42c2.25,0,4.24.94,4.24,3.55,0,.99-.61,1.99-1.34,2.41,1.47.36,2.58,1.66,2.58,3.44,0,2.87-2.27,4.2-5.27,4.2h-6.63v-13.6ZM241.33,372.94c1.03,0,1.53-.5,1.53-1.32s-.5-1.36-1.59-1.36h-3.21v2.69h3.27ZM241.61,378.81c1.41,0,2.35-.5,2.35-1.72s-.88-1.78-2.18-1.78h-3.71v3.5h3.55Z"></path>
    <path class="uuid-011602ac-d812-46f8-b2fb-2643bd22dd50" d="M248.76,374.53c0-3.88,3-7.01,7.2-7.01s7.2,3.13,7.2,7.01-3,7.03-7.2,7.03-7.2-3.13-7.2-7.03ZM260.09,374.53c0-2.41-1.74-4.34-4.11-4.34s-4.15,1.93-4.15,4.34,1.76,4.36,4.15,4.36,4.11-1.93,4.11-4.36Z"></path>
    <path class="uuid-011602ac-d812-46f8-b2fb-2643bd22dd50" d="M265.35,367.74h5.83c4.01,0,6.11,2.35,6.11,5.27,0,1.74-.9,3.42-2.58,4.32l2.83,4.01h-3.38l-2.1-3.19c-.4.06-.75.11-1.15.11h-2.62v3.08h-2.94v-13.6ZM271.27,375.73c1.72,0,2.92-1.24,2.92-2.73s-1.2-2.77-2.9-2.77h-3v5.5h2.98Z"></path>
    <path class="uuid-011602ac-d812-46f8-b2fb-2643bd22dd50" d="M279.41,367.74h10.64v2.52h-7.7v2.77h7.3v2.5h-7.3v3.29h7.99v2.52h-10.93v-13.6Z"></path>
    <path class="uuid-011602ac-d812-46f8-b2fb-2643bd22dd50" d="M291.64,379.72l1.07-2.27c1.09.8,2.39,1.49,4.47,1.49,1.13,0,2.52-.52,2.52-1.59s-1.22-1.32-2.41-1.62c-2.54-.59-5.16-1.45-5.16-4.28,0-2.62,2.46-3.92,5.06-3.92,2.06,0,3.61.55,4.97,1.45l-1.07,2.27c-1.09-.71-2.52-1.09-3.9-1.09-.71,0-2.06.27-2.06,1.3,0,.88.99,1.2,2.33,1.51,2.41.57,5.31,1.47,5.31,4.38s-2.85,4.22-5.58,4.22c-3.25,0-4.78-1.24-5.54-1.85Z"></path>
    <path class="uuid-97c9b665-b580-413b-ad46-f86823b5bfe3" d="M192.16,391.05h2l5.32,11.8h-2.15l-.93-2.04h-6.48l-.93,2.04h-2.15l5.32-11.8ZM195.68,399.13l-1.35-3.06c-.51-1.17-1.17-2.75-1.17-2.75,0,0-.64,1.57-1.17,2.75l-1.35,3.06h5.02Z"></path>
    <path class="uuid-97c9b665-b580-413b-ad46-f86823b5bfe3" d="M200.94,391.05h4.99c3.39,0,5.19,2.02,5.19,4.51,0,1.58-.86,3.08-2.42,3.82l2.6,3.46h-2.46l-2.06-2.88c-.33.05-.69.09-1.06.09h-2.68v2.79h-2.11v-11.8ZM206.02,398.24c1.69,0,2.88-1.2,2.88-2.68s-1.18-2.71-2.86-2.71h-2.99v5.39h2.97Z"></path>
    <path class="uuid-97c9b665-b580-413b-ad46-f86823b5bfe3" d="M216.07,392.87h-4.15v-1.82h10.41v1.82h-4.15v9.98h-2.11v-9.98Z"></path>
    <path class="uuid-97c9b665-b580-413b-ad46-f86823b5bfe3" d="M223.99,391.05h2.11v11.8h-2.11v-11.8Z"></path>
    <path class="uuid-97c9b665-b580-413b-ad46-f86823b5bfe3" d="M228.61,391.05h8.68v1.82h-6.57v2.88h5.55v1.8h-5.55v5.3h-2.11v-11.8Z"></path>
    <path class="uuid-97c9b665-b580-413b-ad46-f86823b5bfe3" d="M238.81,391.05h2.11v11.8h-2.11v-11.8Z"></path>
    <path class="uuid-97c9b665-b580-413b-ad46-f86823b5bfe3" d="M242.98,396.93c0-3.35,2.64-6.06,6.21-6.06,1.53,0,2.93.51,3.97,1.38l-1.22,1.42c-.8-.62-1.67-.89-2.6-.89-2.44,0-4.15,1.89-4.15,4.15s1.71,4.19,4.02,4.19c1.15,0,2.2-.42,2.97-1.17l1.29,1.46c-1.09,1-2.58,1.62-4.28,1.62-3.57,0-6.21-2.71-6.21-6.1Z"></path>
    <path class="uuid-97c9b665-b580-413b-ad46-f86823b5bfe3" d="M254.98,391.05h2.11v11.8h-2.11v-11.8Z"></path>
    <path class="uuid-97c9b665-b580-413b-ad46-f86823b5bfe3" d="M263.86,391.05h2l5.32,11.8h-2.15l-.93-2.04h-6.48l-.93,2.04h-2.15l5.32-11.8ZM267.37,399.13l-1.35-3.06c-.51-1.17-1.17-2.75-1.17-2.75,0,0-.64,1.57-1.17,2.75l-1.35,3.06h5.02Z"></path>
    <path class="uuid-97c9b665-b580-413b-ad46-f86823b5bfe3" d="M272.64,391.05h2.11v9.98h7.06v1.82h-9.17v-11.8Z"></path>
    <path class="uuid-97c9b665-b580-413b-ad46-f86823b5bfe3" d="M283.7,391.05h9.16v1.82h-7.04v2.88h6.64v1.8h-6.64v3.48h7.3v1.82h-9.41v-11.8Z"></path>
    <path class="uuid-97c9b665-b580-413b-ad46-f86823b5bfe3" d="M294.34,401.34l.82-1.6c.96.78,2.15,1.38,3.91,1.38,1.27,0,2.55-.6,2.55-1.67s-1.22-1.4-2.42-1.69c-2.17-.51-4.41-1.2-4.41-3.55,0-2.2,2.09-3.33,4.28-3.33,1.69,0,3,.47,4.19,1.27l-.82,1.62c-1.06-.67-2.15-.98-3.37-.98-.78,0-2.13.33-2.13,1.4,0,.95,1.06,1.26,2.48,1.6,2.24.53,4.41,1.37,4.41,3.66,0,2.48-2.44,3.59-4.77,3.59-2.57,0-3.93-.96-4.71-1.69Z"></path>
    <circle class="uuid-066a78d4-ce77-4346-b524-b7aea46d51a3" cx="164.5" cy="27.08" r="19.59"></circle>
    <path class="uuid-94b10cc1-c73f-425f-af89-31d9769e711d" d="M154.12,21.23h2.37l2.35,6.28c.23.61.63,1.8.65,1.89.03-.08.41-1.27.65-1.89l2.38-6.28h2.35l-4.17,10.75h-2.4l-4.17-10.75Z"></path>
    <path class="uuid-94b10cc1-c73f-425f-af89-31d9769e711d" d="M165.54,30.68l.84-1.79c.86.63,1.89,1.17,3.53,1.17.89,0,1.99-.41,1.99-1.26s-.96-1.04-1.9-1.27c-2-.46-4.07-1.14-4.07-3.38,0-2.07,1.94-3.1,3.99-3.1,1.62,0,2.85.43,3.92,1.14l-.84,1.79c-.86-.56-1.99-.86-3.08-.86-.56,0-1.62.21-1.62,1.03,0,.7.78.94,1.84,1.19,1.9.45,4.19,1.16,4.19,3.46s-2.25,3.33-4.4,3.33c-2.57,0-3.78-.98-4.37-1.46Z"></path>
    <path class="uuid-011602ac-d812-46f8-b2fb-2643bd22dd50" d="M223.29,13.43c0-4.66,3.58-8.41,8.59-8.41s8.59,3.75,8.59,8.41-3.58,8.43-8.59,8.43-8.59-3.75-8.59-8.43ZM236.82,13.43c0-2.9-2.08-5.21-4.91-5.21s-4.96,2.32-4.96,5.21,2.1,5.24,4.96,5.24,4.91-2.32,4.91-5.24Z"></path>
    <path class="uuid-011602ac-d812-46f8-b2fb-2643bd22dd50" d="M243.63,17.53v-5.82h-1.83v-2.72h1.83v-2.42l3.36-.75v3.17h3.46v2.72h-3.46v5.77c0,1.08.53,1.43,1.13,1.43.8,0,1.5-.45,1.6-.53l.95,2.49c-.75.5-1.85.96-3.18.96-2.51,0-3.86-1.46-3.86-4.31Z"></path>
    <path class="uuid-011602ac-d812-46f8-b2fb-2643bd22dd50" d="M252.33,9h3.31v2.42c.35-1.03,1.63-2.67,4.38-2.67v3.68c-2.91,0-4.33,1.33-4.33,4.33v4.83h-3.36v-12.59Z"></path>
    <path class="uuid-011602ac-d812-46f8-b2fb-2643bd22dd50" d="M261.37,15.29c0-3.63,2.2-6.55,5.66-6.55,1.45,0,3.01.58,3.91,1.79v-1.54h3.28v12.59h-3.28v-1.51c-.88,1.21-2.46,1.76-3.91,1.76-3.46,0-5.66-2.92-5.66-6.55ZM270.87,15.29c0-1.96-1.25-3.42-2.98-3.42s-3.11,1.46-3.11,3.42,1.3,3.42,3.11,3.42,2.98-1.41,2.98-3.42Z"></path>
    <path class="uuid-011602ac-d812-46f8-b2fb-2643bd22dd50" d="M276.13,20.13l1.2-2.59c.85.66,2.03,1.33,3.91,1.33.78,0,2.05-.3,2.05-1.06s-1.08-.93-2.15-1.23c-2.48-.66-4.51-1.49-4.51-3.9,0-2.57,2.5-3.93,4.86-3.93,2.05,0,3.36.5,4.66,1.26l-1.13,2.52c-1.23-.6-2.38-.88-3.48-.88-.78,0-1.5.35-1.5.88,0,.71,1.05.93,2.21,1.18,2.13.5,4.46,1.44,4.46,4,0,3.1-3.13,4.13-5.46,4.13-2.68,0-4.41-1.06-5.11-1.71Z"></path>
    <path class="uuid-011602ac-d812-46f8-b2fb-2643bd22dd50" d="M209.44,49.54l1.25-2.11c1,.78,2.46,1.13,3.63,1.13,2.33,0,3.51-1.41,3.61-3.42.02-.08.02-.18.02-.28-.55.98-1.9,1.86-3.76,1.86-3.48,0-5.66-2.72-5.66-6.07s2.18-6.09,5.66-6.09c1.6,0,3.26.7,3.93,1.96v-1.71h3.18v9.54c0,4.13-2.48,6.75-6.64,6.75-2.25,0-4.08-.6-5.24-1.56ZM217.99,40.58c0-1.76-1.3-3.1-3.03-3.1s-3.01,1.33-3.01,3.17,1.3,3.12,3.01,3.12,3.03-1.31,3.03-3.2Z"></path>
    <path class="uuid-011602ac-d812-46f8-b2fb-2643bd22dd50" d="M223.47,41.11c0-3.65,2.96-6.55,6.69-6.55s6.71,2.89,6.71,6.55-2.96,6.55-6.71,6.55-6.69-2.9-6.69-6.55ZM233.45,41.11c0-1.96-1.4-3.42-3.28-3.42s-3.28,1.46-3.28,3.42,1.4,3.42,3.28,3.42,3.28-1.44,3.28-3.42Z"></path>
    <path class="uuid-011602ac-d812-46f8-b2fb-2643bd22dd50" d="M239.06,34.82h3.28v1.69c.73-1.13,2.21-1.94,3.71-1.94,1.98,0,3.21.83,3.86,2.24.9-1.51,2.63-2.24,4.06-2.24,3.53,0,4.63,2.44,4.63,5.66v7.18h-3.36v-6.75c0-1.66-.4-2.9-2.18-2.9-1.65,0-2.56,1.33-2.56,3v6.65h-3.36v-6.75c0-1.66-.38-2.9-2.18-2.9-1.7,0-2.56,1.46-2.56,3.12v6.52h-3.36v-12.59Z"></path>
    <path class="uuid-011602ac-d812-46f8-b2fb-2643bd22dd50" d="M260.66,31.29c0-1.11.9-2.01,1.98-2.01s2,.91,2,2.01-.9,1.99-2,1.99-1.98-.91-1.98-1.99ZM260.98,34.82h3.36v12.59h-3.36v-12.59Z"></path>
    <path class="uuid-011602ac-d812-46f8-b2fb-2643bd22dd50" d="M267.75,43.35v-5.82h-1.83v-2.72h1.83v-2.42l3.36-.75v3.17h3.46v2.72h-3.46v5.77c0,1.08.53,1.43,1.13,1.43.8,0,1.5-.45,1.6-.53l.95,2.49c-.75.5-1.85.96-3.18.96-2.51,0-3.86-1.46-3.86-4.31Z"></path>
    <path class="uuid-011602ac-d812-46f8-b2fb-2643bd22dd50" d="M275.99,41.11c0-3.63,2.2-6.55,5.66-6.55,1.45,0,3.01.58,3.91,1.79v-1.54h3.28v12.59h-3.28v-1.51c-.88,1.21-2.46,1.76-3.91,1.76-3.46,0-5.66-2.92-5.66-6.55ZM285.49,41.11c0-1.96-1.25-3.42-2.98-3.42s-3.11,1.46-3.11,3.42,1.3,3.42,3.11,3.42,2.98-1.41,2.98-3.42Z"></path>
    <path class="uuid-011602ac-d812-46f8-b2fb-2643bd22dd50" d="M290.75,45.95l1.2-2.59c.85.66,2.03,1.33,3.91,1.33.78,0,2.05-.3,2.05-1.06s-1.08-.93-2.15-1.23c-2.48-.66-4.51-1.49-4.51-3.9,0-2.57,2.5-3.93,4.86-3.93,2.05,0,3.36.5,4.66,1.26l-1.13,2.52c-1.23-.6-2.38-.88-3.48-.88-.78,0-1.5.35-1.5.88,0,.71,1.05.93,2.21,1.18,2.13.5,4.46,1.44,4.46,4,0,3.1-3.13,4.13-5.46,4.13-2.68,0-4.41-1.06-5.11-1.71Z"></path>
    <path class="uuid-e55e182d-5dc2-4868-83d8-574e579354d2" d="M28.03,11.87c0-.51.26-.96.77-1.37.51-.41,1.11-.52,1.79-.33,1.71.38,3.11.75,4.2,1.1,1.09.35,2.37,1,3.84,1.95,1.47.95,2.61,2.06,3.43,3.33.82,1.27,1.51,3.01,2.09,5.22.58,2.22.79,4.81.65,7.78-.15,4.43-.98,8.37-2.49,11.81-1.51,3.45-3.43,6.11-5.76,8.01-2.33,1.89-4.89,3.03-7.69,3.4-.48.06-.99-.1-1.54-.48-.55-.38-.82-.89-.82-1.52l1.52-38.91ZM32.02,14.44l-1.3,33.88c2.67-1.07,4.96-3.22,6.88-6.44,1.92-3.22,2.95-7.4,3.1-12.52.07-2.85-.08-5.22-.45-7.12-.37-1.9-1.02-3.36-1.94-4.37-.92-1.01-1.83-1.74-2.71-2.19-.89-.44-2.08-.86-3.58-1.24Z"></path>
    <path class="uuid-e55e182d-5dc2-4868-83d8-574e579354d2" d="M63.19,9c.41.38.61.82.61,1.33,0,.51-.21.95-.62,1.33s-.89.57-1.44.57c-1.91,0-3.73,1.57-5.44,4.73-1.72,3.16-2.82,7.11-3.31,11.86l7.48.11c.61,0,1.11.19,1.49.57.37.38.56.84.56,1.38,0,.54-.21.98-.62,1.33-.41.35-.89.52-1.44.52l-7.69-.11c0,2.97.31,5.71.96,8.21.64,2.5,1.54,4.5,2.7,5.98,1.16,1.49,2.49,2.3,3.99,2.43.55.06,1.01.3,1.38.71.37.41.53.87.46,1.38-.07.51-.33.93-.77,1.28-.45.35-.94.49-1.49.42-2.05-.19-3.86-.93-5.43-2.19-1.57-1.27-2.76-2.9-3.58-4.9s-1.41-4.12-1.78-6.36c-.37-2.25-.55-4.64-.55-7.17-.89-.32-1.33-.92-1.33-1.81,0-.95.52-1.55,1.54-1.8,0-.13,0-.22,0-.28.28-2.47.71-4.82,1.3-7.07.58-2.24,1.38-4.36,2.37-6.35.99-1.99,2.28-3.6,3.85-4.83,1.57-1.23,3.35-1.84,5.33-1.84.55,0,1.02.19,1.43.57Z"></path>
    <path class="uuid-e55e182d-5dc2-4868-83d8-574e579354d2" d="M67.44,8.68c.44-.35.94-.49,1.49-.42.55.06.99.3,1.33.71.34.41.48.87.41,1.38-.28,2.34-.51,4.32-.68,5.93-.17,1.61-.37,3.69-.58,6.22-.21,2.53-.34,4.7-.37,6.5-.04,1.8-.03,3.81.04,6.03.06,2.22.25,4.1.55,5.65.3,1.55.71,3.05,1.22,4.51.51,1.46,1.19,2.63,2.04,3.52.85.89,1.86,1.49,3.02,1.81.55.13.96.41,1.23.86.27.44.34.92.2,1.42-.14.51-.46.88-.98,1.14-.51.25-1.04.31-1.59.19-1.43-.38-2.71-1.02-3.84-1.91-1.13-.89-2.08-1.87-2.86-2.95-.78-1.08-1.41-2.47-1.89-4.18-.48-1.71-.85-3.29-1.12-4.75-.27-1.46-.42-3.28-.45-5.46-.03-2.18-.03-4.02.01-5.5.04-1.49.16-3.4.37-5.74.21-2.34.38-4.09.52-5.27.14-1.17.35-2.83.63-4.98.21-1.58.38-2.72.52-3.42.07-.51.33-.93.77-1.28Z"></path>
    <path class="uuid-e55e182d-5dc2-4868-83d8-574e579354d2" d="M76.64,46.71c-1.49-4.24-2.24-9.27-2.22-15.09.01-5.82.77-10.85,2.29-15.09,1.51-4.23,3.84-6.35,6.98-6.34,3.14,0,5.46,2.13,6.96,6.37,1.49,4.24,2.24,9.27,2.22,15.09-.01,5.82-.78,10.85-2.29,15.09-1.51,4.23-3.84,6.35-6.98,6.34-3.14,0-5.46-2.13-6.96-6.37ZM79.56,22.08c-.69,2.88-1.04,6.06-1.05,9.54,0,3.48.33,6.66,1,9.54.68,2.88,1.41,4.95,2.19,6.22.78,1.27,1.41,1.9,1.89,1.9.48,0,1.11-.63,1.9-1.89.79-1.26,1.53-3.33,2.22-6.21.69-2.88,1.04-6.06,1.05-9.54,0-3.48-.33-6.66-1-9.54-.68-2.88-1.41-4.95-2.19-6.22-.78-1.27-1.41-1.9-1.89-1.9-.48,0-1.11.63-1.9,1.89-.79,1.26-1.53,3.33-2.22,6.21Z"></path>
    <path class="uuid-e55e182d-5dc2-4868-83d8-574e579354d2" d="M105.78,9.58c-.18.85-.67,1.25-1.38,1.13-.48-.08-.83-.42-.86-.96-.05-.83-.07-1.67-.05-2.5.04-1.51.1-3.01.18-4.52.02-.43.14-.85.21-1.28.03-.18.19-.36-.01-.54-.03-.03.04-.18.08-.26.32-.52.91-.76,1.45-.6.68.2,1.07.66,1.03,1.32-.07,1.25-.17,2.49-.26,3.73-.09,1.27-.19,2.53-.3,3.79-.02.23-.06.45-.09.68Z"></path>
    <path class="uuid-e55e182d-5dc2-4868-83d8-574e579354d2" d="M111.67,9.58c-.18.85-.67,1.25-1.38,1.13-.48-.08-.83-.42-.86-.96-.05-.83-.07-1.67-.05-2.5.04-1.51.1-3.01.18-4.52.02-.43.14-.85.21-1.28.03-.18.19-.36-.01-.54-.03-.03.04-.18.08-.26.32-.52.91-.76,1.45-.6.68.2,1.07.66,1.03,1.32-.07,1.25-.17,2.49-.26,3.73-.09,1.27-.19,2.53-.3,3.79-.02.23-.06.45-.09.68Z"></path>
    <path class="uuid-e55e182d-5dc2-4868-83d8-574e579354d2" d="M104.23,53.13c-1.81-.63-3.36-2.07-4.66-4.32-1.3-2.25-2.21-5.08-2.74-8.5-.46-2.88-.76-7-.91-12.38-.14-5.37-.05-9.63.27-12.78.07-.9.4-1.71.99-2.43.59-.72,1.18-1.08,1.78-1.08.53,0,1.06.18,1.6.54.53.36.89.77,1.06,1.21.21.45.34,4.25.37,11.4.03,5.66.15,9.59.35,11.77.19,2.18.58,4.08,1.14,5.7.35,1.03.77,1.88,1.25,2.53.48.65.91.98,1.3.98.35,0,.82-.38,1.38-1.15.57-.76,1.06-1.66,1.49-2.7.64-1.66,1.06-3.35,1.28-5.06.21-1.71.39-4.97.53-9.78.11-4.09.15-6.7.13-7.82-.02-1.12-.12-1.96-.29-2.5-.32-.76-.43-1.51-.32-2.23.11-.58.39-1.19.85-1.82.46-.63.92-1.03,1.38-1.21.71-.27,1.48-.04,2.32.67.83.72,1.41,1.66,1.73,2.83.18.72.27,3.55.29,8.5.02,4.95-.06,8.52-.24,10.72-.53,6.43-1.98,11.44-4.34,15.04-2.36,3.6-5.03,4.88-8.01,3.84Z"></path>
  </g>
</svg>
