<?xml version="1.0" encoding="UTF-8"?>
<svg xmlns="http://www.w3.org/2000/svg" id="uuid-7fc83919-bef9-4597-ba03-d43c0effeb17" viewBox="0 0 104.99 126.76">
  <defs>
    <style>.uuid-c25a7b01-7bba-4b75-8666-e3d4cdd3695d{fill:#3c3c3b;stroke-width:0px;}.uuid-60abeff0-fbac-45b8-8bbf-4d08226744ed{fill:none;stroke:#3c3c3b;stroke-miterlimit:10;stroke-width:2px;}</style>
  </defs>
  <g id="uuid-aa81cdea-8ee0-4b19-8c5e-f9acb667c902">
    <path class="uuid-c25a7b01-7bba-4b75-8666-e3d4cdd3695d" d="M12.11,26.85l-.23-1.34c1.45.1,3-.25,4.51-1.52,1.3-1.08,2.2-2.78,1.19-3.98-.93-1.11-2.51-.36-4.06.39-2.16,1.06-4.42,2-5.93.19-1.46-1.75-.48-4.07,1.32-5.57,1.24-1.03,2.62-1.67,4.28-1.73l.26,1.35c-1.47.07-2.66.68-3.62,1.49-.99.83-1.88,2.34-.98,3.42.84,1.01,2.26.38,3.89-.41,2.24-1.1,4.63-2.04,6.15-.22,1.67,2,.33,4.58-1.59,6.18-1.98,1.65-3.83,1.89-5.19,1.75Z"></path>
    <path class="uuid-c25a7b01-7bba-4b75-8666-e3d4cdd3695d" d="M16.15,10.55c-.29-.47-.15-1.08.33-1.38s1.11-.16,1.4.31c.29.47.12,1.08-.36,1.37s-1.08.16-1.37-.3ZM17.77,12.71l1.3-.8,5.02,8.13-1.3.8-5.02-8.13Z"></path>
    <path class="uuid-c25a7b01-7bba-4b75-8666-e3d4cdd3695d" d="M22.01,10.09l1.4-.63.67,1.49c.15-1.34,1.03-2.47,2.36-3.07,2.24-1.01,3.83-.13,4.86,2.16l2.38,5.28-1.4.63-2.29-5.1c-.73-1.61-1.72-2.2-3.34-1.47-1.6.72-2.17,2.44-1.52,3.89l2.21,4.9-1.4.63-3.92-8.71Z"></path>
    <path class="uuid-c25a7b01-7bba-4b75-8666-e3d4cdd3695d" d="M38.28,8.93c-.42-2.77,1.14-5.21,3.83-5.62,1.55-.24,3.02.17,3.93,1.29l-.25-1.65,1.51-.23,1.44,9.45-1.51.23-.25-1.65c-.53,1.35-1.81,2.16-3.36,2.4-2.69.41-4.92-1.47-5.33-4.21ZM46.51,7.67c-.3-1.98-1.99-3.27-3.84-2.99-1.93.29-3.14,1.99-2.84,4.01.3,2,1.96,3.25,3.9,2.96,1.85-.28,3.08-2,2.78-3.98Z"></path>
    <path class="uuid-c25a7b01-7bba-4b75-8666-e3d4cdd3695d" d="M50.06,11l5.26-5.85c.4-.42,1.06-1.05,1.06-1.05l-5.85-.17.04-1.33,7.76.23-.03,1.12-5.24,5.79c-.44.48-1.12,1.13-1.12,1.13l6.25.18-.04,1.34-8.12-.24.04-1.14Z"></path>
    <path class="uuid-c25a7b01-7bba-4b75-8666-e3d4cdd3695d" d="M60.01,8.92l1.24-5.83,1.5.32-1.2,5.64c-.37,1.75.34,2.66,1.9,2.99,1.74.37,3.04-.8,3.34-2.24l1.13-5.3,1.5.32-1.99,9.35-1.44-.31.35-1.65c-.85,1.08-2.36,1.42-3.63,1.15-2.37-.5-3.23-1.95-2.7-4.45ZM66.67,0l1.64.35-2.4,2.16-1.38-.29,2.14-2.21Z"></path>
    <path class="uuid-c25a7b01-7bba-4b75-8666-e3d4cdd3695d" d="M70.81,10.12c1.02-2.59,3.94-3.81,6.62-2.76,1.26.49,2.23,1.38,2.8,2.46l-1.29.63c-.36-.73-1.07-1.37-2.03-1.74-1.91-.75-3.9.07-4.65,1.97-.72,1.84.11,3.81,2.12,4.6,1.03.4,2.12.39,3,.02l.42,1.36c-1.2.48-2.64.49-4.01-.05-2.69-1.05-4.01-3.91-3-6.5Z"></path>
    <path class="uuid-c25a7b01-7bba-4b75-8666-e3d4cdd3695d" d="M80.49,14.01c1.49-2.38,4.27-3.21,6.58-1.76,1.33.83,2.18,2.1,2.14,3.54l.88-1.41,1.3.81-5.07,8.1-1.3-.81.88-1.41c-1.28.68-2.78.46-4.12-.38-2.31-1.44-2.76-4.32-1.29-6.67ZM87.55,18.43c1.06-1.7.63-3.77-.96-4.77-1.66-1.04-3.68-.54-4.76,1.19-1.07,1.71-.63,3.75,1.02,4.78,1.59,1,3.64.49,4.7-1.2Z"></path>
    <path class="uuid-c25a7b01-7bba-4b75-8666-e3d4cdd3695d" d="M94.18,17.52l1.15,1.01-1.34,1.51c1.25-.57,2.84-.45,4.31.85l-1.08,1.22c-1.72-1.52-3.67-1.57-5.22.18l-3,3.4-1.15-1.01,6.32-7.16Z"></path>
    <path class="uuid-c25a7b01-7bba-4b75-8666-e3d4cdd3695d" d="M89.65,102.91l.16,1.35c-1.44-.17-3,.09-4.59,1.28-1.36,1.01-2.34,2.66-1.4,3.92.87,1.16,2.49.49,4.07-.18,2.21-.95,4.52-1.77,5.93.11s.27,4.09-1.6,5.49c-1.29.97-2.71,1.54-4.37,1.51l-.19-1.36c1.46,0,2.69-.55,3.69-1.29,1.03-.77,2-2.24,1.16-3.37-.79-1.05-2.24-.5-3.9.21-2.29.98-4.72,1.8-6.15-.1-1.57-2.09-.09-4.59,1.91-6.09,2.07-1.55,3.92-1.69,5.27-1.47Z"></path>
    <path class="uuid-c25a7b01-7bba-4b75-8666-e3d4cdd3695d" d="M83.26,116.75l-1.34.74-4.61-8.37,1.34-.74,4.61,8.37ZM84.77,118.99c.26.48.09,1.09-.4,1.36-.49.27-1.12.1-1.38-.38-.26-.48-.07-1.08.43-1.35.49-.27,1.09-.11,1.36.37Z"></path>
    <path class="uuid-c25a7b01-7bba-4b75-8666-e3d4cdd3695d" d="M78.93,119.13l-1.43.56-.59-1.51c-.21,1.33-1.15,2.41-2.5,2.94-2.29.9-3.83-.05-4.75-2.39l-2.12-5.39,1.43-.56,2.04,5.2c.64,1.64,1.61,2.28,3.26,1.63,1.63-.64,2.29-2.33,1.71-3.81l-1.96-5,1.43-.56,3.49,8.89Z"></path>
    <path class="uuid-c25a7b01-7bba-4b75-8666-e3d4cdd3695d" d="M62.62,119.52c.28,2.79-1.41,5.15-4.12,5.42-1.57.16-3.01-.33-3.86-1.49l.17,1.66-1.52.15-.95-9.51,1.52-.15.17,1.66c.6-1.32,1.92-2.07,3.49-2.22,2.71-.27,4.83,1.72,5.11,4.48ZM54.34,120.35c.2,1.99,1.82,3.37,3.68,3.18,1.95-.2,3.24-1.82,3.04-3.85-.2-2.01-1.8-3.35-3.74-3.16-1.86.19-3.18,1.84-2.98,3.83Z"></path>
    <path class="uuid-c25a7b01-7bba-4b75-8666-e3d4cdd3695d" d="M50.98,116.84l-5.59,5.53c-.42.4-1.12.98-1.12.98l5.82.52-.12,1.33-7.73-.69.1-1.11,5.56-5.47c.46-.45,1.19-1.06,1.19-1.06l-6.23-.55.12-1.33,8.09.72-.1,1.13Z"></path>
    <path class="uuid-c25a7b01-7bba-4b75-8666-e3d4cdd3695d" d="M40.88,118.26l-1.59,5.75-1.48-.41,1.53-5.56c.47-1.72-.18-2.67-1.72-3.1-1.71-.47-3.08.62-3.47,2.04l-1.44,5.22-1.48-.41,2.54-9.21,1.42.39-.45,1.63c.91-1.03,2.44-1.28,3.69-.94,2.33.64,3.11,2.14,2.44,4.6ZM33.7,126.76l-1.61-.45,2.52-2.01,1.36.37-2.27,2.08Z"></path>
    <path class="uuid-c25a7b01-7bba-4b75-8666-e3d4cdd3695d" d="M30.18,116.31c-1.24,2.5-4.26,3.45-6.84,2.17-1.21-.6-2.1-1.57-2.58-2.7l1.34-.52c.3.76.94,1.45,1.86,1.91,1.84.91,3.89.27,4.8-1.56.88-1.78.23-3.81-1.71-4.77-.99-.49-2.08-.57-2.99-.28l-.3-1.39c1.24-.37,2.67-.25,3.99.4,2.58,1.28,3.66,4.25,2.42,6.74Z"></path>
    <path class="uuid-c25a7b01-7bba-4b75-8666-e3d4cdd3695d" d="M20.88,111.58c-1.71,2.22-4.56,2.78-6.71,1.11-1.25-.96-1.96-2.31-1.78-3.73l-1.02,1.32-1.21-.94,5.84-7.57,1.21.94-1.02,1.32c1.34-.55,2.81-.18,4.06.78,2.15,1.66,2.33,4.57.64,6.76ZM14.29,106.49c-1.22,1.58-.99,3.7.49,4.84,1.55,1.19,3.61.9,4.85-.72,1.24-1.6,1-3.67-.55-4.86-1.48-1.15-3.57-.85-4.79.74Z"></path>
    <path class="uuid-c25a7b01-7bba-4b75-8666-e3d4cdd3695d" d="M7.56,106.67l-1.03-1.13,1.49-1.36c-1.31.43-2.87.14-4.19-1.31l1.2-1.1c1.55,1.7,3.48,1.95,5.21.38l3.35-3.05,1.03,1.13-7.06,6.44Z"></path>
    <path class="uuid-60abeff0-fbac-45b8-8bbf-4d08226744ed" d="M3.46,70.5c-1.6-4.94-2.46-10.21-2.46-15.69s.94-11.19,2.66-16.31"></path>
    <path class="uuid-60abeff0-fbac-45b8-8bbf-4d08226744ed" d="M101.53,70.5c1.6-4.94,2.46-10.21,2.46-15.69s-.94-11.19-2.66-16.31"></path>
    <path class="uuid-c25a7b01-7bba-4b75-8666-e3d4cdd3695d" d="M71.89,81.67c-2.9-.45-5.92-.91-8.94-1.39-1.56-.24-3.11-.56-4.67-.73-1.12-.12-1.89-.57-2.54-1.51-2.55-3.63-5.16-7.21-7.78-10.79-.59-.8-.75-1.48-.18-2.4,2.26-3.59,4.47-7.2,6.64-10.84.66-1.11,1.38-1.45,2.66-1.06,4.15,1.23,8.34,2.37,12.52,3.52.69.19,1.23.56,1.71,1.09,2.81,3.1,5.61,6.22,8.49,9.26.95,1,1.06,1.81.32,2.98-2.27,3.58-4.45,7.21-6.67,10.82-.33.54-.64,1.15-1.56,1.05ZM70.78,79.76c1.03.17,1.54-.46,2-1.22,1.7-2.82,3.39-5.64,5.14-8.44.56-.9.51-1.36-.61-1.65-3.33-.86-6.65-1.77-9.96-2.69-.85-.24-1.4-.04-1.85.71-2.08,3.45-4.17,6.89-6.3,10.32-.47.76-.42,1.11.52,1.25,3.69.56,7.38,1.15,11.06,1.72ZM57.18,76.49c.12-.13.31-.29.43-.49,2.21-3.6,4.41-7.22,6.63-10.82.31-.51.21-.9-.17-1.32-2.51-2.7-5.01-5.41-7.49-8.14-.58-.64-.9-.53-1.31.16-1.84,3.08-3.71,6.15-5.59,9.2-.35.56-.45,1.03-.03,1.61,2.27,3.09,4.51,6.21,6.77,9.3.17.23.32.51.77.49ZM58.98,55.26c-.06.11-.13.21-.19.32,2.4,2.57,4.78,5.16,7.2,7.7.31.33.86.46,1.33.59,2.74.79,5.48,1.57,8.23,2.34.3.09.64.31,1.05-.22-1.55-1.71-3.09-3.47-4.71-5.17-.87-.92-1.58-2.18-2.79-2.58-3.34-1.1-6.74-2-10.12-2.97Z"></path>
    <path class="uuid-c25a7b01-7bba-4b75-8666-e3d4cdd3695d" d="M65.96,45.29c-.08.24-.13.55-.29.78-1.25,1.78-2.88,3.23-4.32,4.84-.32.36-.79.45-1.18.05-.37-.4-.23-.84.08-1.2.83-.98,1.66-1.95,2.52-2.89.67-.73.67-1.24-.33-1.63-3.66-1.45-7.31-2.93-10.97-4.41-.59-.24-.99-.09-1.41.39-2.28,2.58-4.58,5.15-6.91,7.69-.85.93-.66,1.32.53,1.62,2.24.57,4.46,1.24,6.68,1.91.63.19,1.54.34,1.25,1.29-.28.91-1.12.6-1.77.41-2.93-.86-5.84-1.77-8.78-2.61-.89-.26-1.31-.8-1.42-1.67-.53-4.2-1.05-8.4-1.58-12.6-.09-.69.17-1.24.62-1.74,2.53-2.82,5.07-5.64,7.56-8.49.69-.78,1.38-.95,2.34-.55,3.83,1.57,7.67,3.1,11.51,4.63.76.3,1.4.69,1.68,1.53,1.32,3.92,2.65,7.84,3.97,11.76.09.28.13.58.2.92ZM63.77,43.96c-1.26-3.78-2.39-7.17-3.53-10.56-.16-.46-.58-.65-.99-.82-3.11-1.25-6.22-2.49-9.33-3.73-.3-.12-.65-.42-.94-.09-.25.29-.03.66.04.99.62,2.59,1.28,5.16,1.84,7.76.23,1.05.79,1.59,1.76,1.95,1.85.67,3.68,1.41,5.51,2.15,1.76.71,3.51,1.46,5.64,2.35ZM39.88,37.71c.4,3.02.8,6.04,1.21,9.06.05.37-.06.88.42,1,.44.11.68-.34.93-.62,2.18-2.4,4.35-4.82,6.52-7.23.34-.38.58-.77.44-1.33-.73-2.91-1.44-5.82-2.14-8.74-.17-.71-.44-.82-.95-.24-1.99,2.25-3.99,4.48-5.98,6.72-.35.39-.45.86-.44,1.38Z"></path>
    <path class="uuid-c25a7b01-7bba-4b75-8666-e3d4cdd3695d" d="M32.75,61.4c3.41.94,6.82,1.89,10.23,2.82.65.18,1.26-.17,1.89-.19.48-.02.91.08,1.05.61.13.46-.15.8-.53.94-.9.32-1.11.96-1.1,1.85.03,3.79.03,7.59,0,11.38,0,1.21.32,1.65,1.56,1.09,1.75-.79,3.53-1.5,5.31-2.24.6-.25,1.31-.54,1.63.3.3.76-.4,1.01-.94,1.25-2.44,1.05-4.9,2.08-7.33,3.15-.78.34-1.48.32-2.27-.02-4.21-1.8-8.43-3.57-12.67-5.32-.9-.37-1.29-.91-1.29-1.89.03-4.33.04-8.67,0-13-.01-1.15.5-1.69,1.55-1.98,4.13-1.14,8.24-2.34,12.37-3.49,2.15-.6,4.03.52,6,1.05.39.11.62.5.51.95-.13.53-.54.68-1.02.63-.34-.04-.7-.09-1.01-.23-2.3-1.03-4.54-.77-6.87.05-2.31.81-4.72,1.36-7.08,2.02,0,.09,0,.18,0,.27ZM42.49,73.17c0-1.97-.01-3.94,0-5.91,0-.75-.12-1.33-.97-1.58-3.41-.97-6.8-1.97-10.2-2.97-.78-.23-1.21-.09-1.21.85.03,3.54.02,7.09,0,10.63,0,.72.27,1.19.96,1.48,3.36,1.4,6.71,2.81,10.05,4.26,1.15.5,1.38,0,1.36-1.02-.03-1.92,0-3.84,0-5.76Z"></path>
  </g>
</svg>
