<?xml version="1.0" encoding="UTF-8"?>
<svg xmlns="http://www.w3.org/2000/svg" id="uuid-f38ba84c-903d-47a2-8795-94fc969935e6" viewBox="0 0 100.96 100.96">
  <defs>
    <style>.uuid-f9148e23-6c24-4d4d-9f94-b675b378ac06{fill:#e84db5;stroke-width:0px;}.uuid-3c4d5582-0793-4bc9-b87a-5e4677a4055b{fill:none;stroke:#e84db5;stroke-miterlimit:10;stroke-width:2px;}</style>
  </defs>
  <g id="uuid-0e0f487d-168b-48bd-8e9a-04e85fe053b5">
    <circle class="uuid-3c4d5582-0793-4bc9-b87a-5e4677a4055b" cx="50.48" cy="50.48" r="49.48"></circle>
    <path class="uuid-f9148e23-6c24-4d4d-9f94-b675b378ac06" d="M41.41,30.56l-11.49,11.15c-.5.34-.65.68-.65,1.18,0,.47.16.97.48,1.31l.33.31c.67.65,1.81.84,2.63,0l3.44-3.27,3.94,3.93-4.59,4.45c-.65.65-.65,1.81,0,2.62l.5.34c.65.81,1.81.81,2.46,0l.65-.5,14.11,14.6c.33.34.98.5,1.48.5l6.4-1.47,5.08,5.26c.82.97,2.3.97,3.28,0,.98-.84.98-2.49.17-3.45l-5.25-5.26h0l1.64-6.07c.16-.5,0-1.15-.33-1.65l-14.28-14.45.65-.65c.67-.68.67-1.81,0-2.64l-.33-.31c-.33-.34-.82-.5-1.31-.5s-.98.16-1.31.5l-4.44,4.27-3.94-3.95,3.45-3.45c.33-.31.48-.81.48-1.31s-.16-.81-.48-1.31l-.34-.16c-.65-.84-1.79-.84-2.45,0h0ZM52.73,46h0l-2.8,2.62c-.33.34-.33.81,0,1.15.33.34.82.34,1.15,0l2.79-2.62,1.15,1.15-2.79,2.62c-.33.31-.33.81,0,1.15.33.34.81.34,1.15,0l2.79-2.64.98,1.15-2.63,2.64c-.33.31-.33.81-.16,1.15.33.31.82.31,1.15,0l2.79-2.64,1.14,1.15-2.79,2.64c-.33.31-.33.81,0,1.13.33.34.82.34,1.15,0l2.79-2.62,2.13,2.15-1.64,6.07-.17.16-6.07,1.31-13.28-13.79,7.71-7.54,3.45,3.61Z"></path>
  </g>
</svg>
