<?xml version="1.0" encoding="UTF-8"?>
<svg xmlns="http://www.w3.org/2000/svg" id="uuid-d5b9fae9-fa01-4786-b6e9-23ba89787a1c" viewBox="0 0 100.96 100.96">
  <defs>
    <style>.uuid-1b19b936-a0e4-4a59-884a-ca6508e1a9f9{fill:#e84db5;stroke-width:0px;}.uuid-a8058244-faa3-4d24-b081-a6bf4347ba73{fill:none;stroke:#e84db5;stroke-miterlimit:10;stroke-width:2px;}</style>
  </defs>
  <g id="uuid-df0a690c-3106-4888-9ee3-62a3f501179c">
    <circle class="uuid-a8058244-faa3-4d24-b081-a6bf4347ba73" cx="50.48" cy="50.48" r="49.48"></circle>
    <path class="uuid-1b19b936-a0e4-4a59-884a-ca6508e1a9f9" d="M69.98,39.37l.62-1.24c.62-1.01.2-2.24-.62-2.86l-2.68-1.44c.43-.41.85-.82,1.24-1.42,1.24-2.06.62-4.73-1.44-5.76-2.06-1.23-4.71-.61-5.95,1.44-.2.62-.39,1.23-.39,1.85l-3.7-1.85c-.85-.62-2.26-.41-2.68.62l-.82,1.23-4.51-2.67c-1.67-.82-3.7-.41-4.51,1.23l-17.24,29.93c-1.05,1.65-.43,3.7,1.21,4.51l25.45,14.77c1.44.82,3.5.2,4.51-1.23l17.27-29.95c1.01-1.64.39-3.68-1.24-4.5l-4.51-2.67ZM62.79,28.9h0c.62-1.23,2.26-1.64,3.5-.82,1.01.62,1.44,2.26.82,3.48-.43.62-1.01,1.03-1.64,1.23l-2.88-1.63c-.2-.82-.2-1.44.2-2.26h0ZM56.44,73.2h0c-.62.82-1.64,1.03-2.49.62l-22.15-12.92c-.82-.41-1.24-1.64-.62-2.47l15.41-26.65c.39-.82,1.44-1.03,2.45-.62l2.88,1.63c-.62.84-.23,2.06.62,2.47l13.35,7.59c.79.6,1.83.2,2.26-.62l3.07,1.85c.82.41,1.21,1.44.59,2.26l-15.37,26.86ZM55.2,48.17h0c.2-.2.43-.39.82-.39.43,0,.62.2.82.39l.82.62c.43.41.43,1.23,0,1.85l-6.35,6.76c-.43.21-.62.43-1.01.43-.23,0-.65-.21-.85-.43l-3.66-3.68c-.43-.41-.43-1.23,0-1.85l.59-.6c.23-.21.62-.41.82-.41.43,0,.85.2,1.05.41l2.06,2.04,4.91-5.14ZM51.7,39.57h0c-6.97,0-12.5,5.74-12.5,12.71s5.53,12.51,12.5,12.51c7,0,12.53-5.74,12.53-12.51,0-6.97-5.53-12.71-12.53-12.71h0ZM51.7,61.3h0c-5.1,0-9.22-4.1-9.22-9.03,0-5.12,4.12-9.23,9.22-9.23s9.06,4.1,9.06,9.23c0,4.92-4.12,9.03-9.06,9.03h0Z"></path>
  </g>
</svg>
