<?xml version="1.0" encoding="UTF-8"?>
<svg xmlns="http://www.w3.org/2000/svg" id="uuid-6bfa8998-65cd-4d08-8557-f40b10af8cb4" viewBox="0 0 133.81 79.53">
  <defs>
    <style>.uuid-23af7ace-b587-42f6-a2b4-a4339b1846bc{fill:#fff1e6;stroke-width:0px;}</style>
  </defs>
  <g id="uuid-d94fdbb4-779f-4867-978a-08ea8cef1574">
    <path class="uuid-23af7ace-b587-42f6-a2b4-a4339b1846bc" d="M2.23,17.42c0-.74.38-1.41,1.13-2.02.75-.6,1.63-.76,2.63-.48,2.51.56,4.56,1.1,6.17,1.62,1.6.52,3.48,1.47,5.64,2.87,2.15,1.4,3.83,3.03,5.03,4.89,1.2,1.86,2.22,4.42,3.07,7.67.84,3.25,1.16,7.06.95,11.43-.22,6.5-1.43,12.28-3.65,17.34-2.22,5.06-5.04,8.98-8.45,11.76-3.42,2.78-7.18,4.44-11.3,4.99-.7.09-1.46-.14-2.26-.7C.4,76.22,0,75.47,0,74.55L2.23,17.42ZM8.09,21.2l-1.91,49.74c3.92-1.57,7.28-4.72,10.1-9.45,2.82-4.73,4.34-10.86,4.55-18.38.11-4.18-.11-7.66-.65-10.45-.55-2.79-1.49-4.93-2.85-6.42-1.35-1.49-2.68-2.56-3.98-3.21-1.3-.65-3.06-1.26-5.26-1.82Z"></path>
    <path class="uuid-23af7ace-b587-42f6-a2b4-a4339b1846bc" d="M53.85,13.21c.6.56.9,1.21.9,1.95,0,.74-.3,1.39-.91,1.95s-1.31.83-2.11.83c-2.81,0-5.47,2.31-7.99,6.95-2.52,4.64-4.14,10.44-4.85,17.41l10.98.16c.9,0,1.63.28,2.18.84.55.56.83,1.23.82,2.02,0,.79-.3,1.44-.91,1.95-.6.51-1.31.76-2.11.76l-11.29-.16c0,4.37.46,8.39,1.4,12.06.94,3.67,2.27,6.6,3.97,8.79,1.7,2.19,3.65,3.38,5.86,3.57.8.1,1.48.45,2.03,1.05.55.6.77,1.28.67,2.02-.1.74-.48,1.37-1.13,1.88-.65.51-1.38.72-2.18.62-3.01-.29-5.67-1.36-7.97-3.22-2.31-1.86-4.05-4.26-5.25-7.19-1.2-2.93-2.07-6.04-2.61-9.34-.55-3.3-.81-6.81-.81-10.52-1.3-.47-1.95-1.35-1.95-2.65,0-1.39.76-2.27,2.26-2.64,0-.19,0-.32,0-.42.41-3.62,1.04-7.08,1.9-10.38.86-3.29,2.02-6.41,3.48-9.33,1.46-2.92,3.35-5.29,5.66-7.09,2.31-1.81,4.92-2.71,7.83-2.7.8,0,1.5.28,2.11.84Z"></path>
    <path class="uuid-23af7ace-b587-42f6-a2b4-a4339b1846bc" d="M60.1,12.74c.65-.51,1.38-.72,2.18-.62.8.1,1.45.45,1.95,1.05.5.61.7,1.28.6,2.02-.41,3.44-.74,6.34-1,8.71-.26,2.37-.54,5.41-.85,9.13-.31,3.72-.49,6.9-.55,9.54-.06,2.65-.04,5.6.06,8.85.09,3.25.36,6.02.81,8.29.45,2.28,1.04,4.49,1.79,6.62.75,2.14,1.75,3.86,3,5.16,1.25,1.3,2.73,2.19,4.43,2.66.8.19,1.4.61,1.8,1.26.4.65.5,1.35.3,2.09-.2.74-.68,1.3-1.43,1.67-.75.37-1.53.46-2.33.27-2.11-.56-3.98-1.5-5.64-2.8-1.65-1.31-3.06-2.75-4.2-4.33-1.15-1.58-2.08-3.63-2.77-6.14-.7-2.51-1.25-4.83-1.64-6.97-.4-2.14-.62-4.81-.66-8.01-.04-3.2-.04-5.9.02-8.08.05-2.18.24-4.99.54-8.43.31-3.43.56-6.01.77-7.73.2-1.72.51-4.16.92-7.31.31-2.32.56-3.99.76-5.01.1-.74.48-1.37,1.13-1.88Z"></path>
    <path class="uuid-23af7ace-b587-42f6-a2b4-a4339b1846bc" d="M73.6,68.57c-2.19-6.23-3.28-13.61-3.26-22.16.02-8.55,1.14-15.93,3.36-22.15,2.22-6.22,5.64-9.32,10.25-9.31,4.61,0,8.02,3.13,10.21,9.36,2.19,6.23,3.28,13.62,3.26,22.16-.02,8.55-1.14,15.93-3.36,22.15-2.22,6.22-5.64,9.32-10.25,9.31-4.62,0-8.02-3.13-10.21-9.36ZM77.89,32.42c-1.01,4.23-1.52,8.89-1.53,14-.01,5.11.48,9.78,1.47,14.01.99,4.23,2.07,7.27,3.22,9.13,1.15,1.86,2.07,2.79,2.78,2.79.7,0,1.63-.92,2.79-2.78,1.16-1.85,2.24-4.89,3.25-9.12,1.01-4.22,1.52-8.89,1.53-14,.01-5.11-.48-9.78-1.47-14.01-1-4.23-2.07-7.27-3.22-9.13-1.15-1.86-2.08-2.79-2.78-2.79-.7,0-1.63.93-2.79,2.78-1.16,1.86-2.24,4.9-3.25,9.12Z"></path>
    <path class="uuid-23af7ace-b587-42f6-a2b4-a4339b1846bc" d="M116.39,14.06c-.27,1.25-.98,1.84-2.03,1.66-.71-.12-1.21-.61-1.26-1.41-.07-1.22-.1-2.45-.07-3.67.05-2.21.15-4.42.26-6.63.03-.63.21-1.25.31-1.88.04-.26.27-.52-.02-.79-.04-.04.05-.26.12-.38.46-.76,1.33-1.11,2.13-.88,1,.3,1.56.97,1.51,1.94-.1,1.83-.25,3.65-.39,5.48-.14,1.86-.29,3.71-.44,5.57-.03.33-.09.66-.14.99Z"></path>
    <path class="uuid-23af7ace-b587-42f6-a2b4-a4339b1846bc" d="M125.04,14.06c-.27,1.25-.98,1.84-2.03,1.66-.71-.12-1.21-.61-1.26-1.41-.07-1.22-.1-2.45-.07-3.67.05-2.21.15-4.42.26-6.63.03-.63.21-1.25.31-1.88.04-.26.27-.52-.02-.79-.04-.04.05-.26.12-.38.46-.76,1.33-1.11,2.13-.88,1,.3,1.56.97,1.51,1.94-.1,1.83-.25,3.65-.39,5.48-.14,1.86-.29,3.71-.44,5.57-.03.33-.09.66-.14.99Z"></path>
    <path class="uuid-23af7ace-b587-42f6-a2b4-a4339b1846bc" d="M112.22,77.75c-2.6-1.09-4.74-3.34-6.43-6.75-1.69-3.41-2.77-7.65-3.24-12.7-.41-4.26-.48-10.33-.2-18.22.28-7.88.8-14.12,1.56-18.7.19-1.31.74-2.47,1.67-3.47.92-1,1.83-1.47,2.71-1.42.78.05,1.54.36,2.29.94.75.58,1.23,1.2,1.45,1.88.27.68.11,6.26-.49,16.74-.47,8.3-.65,14.06-.57,17.28.09,3.21.47,6.03,1.16,8.46.42,1.55.96,2.82,1.6,3.82.64,1,1.25,1.52,1.82,1.55.52.03,1.23-.48,2.13-1.55.9-1.07,1.71-2.34,2.43-3.82,1.09-2.38,1.87-4.81,2.33-7.3.47-2.48,1.03-7.24,1.67-14.28.53-5.98.83-9.8.91-11.45.08-1.65,0-2.88-.2-3.68-.4-1.15-.49-2.25-.26-3.29.21-.85.68-1.71,1.41-2.59.73-.88,1.45-1.43,2.14-1.65,1.06-.33,2.18.07,3.33,1.2,1.16,1.13,1.92,2.57,2.28,4.31.19,1.07.08,5.23-.35,12.48-.43,7.25-.87,12.48-1.33,15.69-1.37,9.37-3.94,16.59-7.73,21.64-3.79,5.06-7.82,6.69-12.09,4.9Z"></path>
  </g>
</svg>
